<?xml version="1.0" encoding="UTF-8" standalone="no"?>
<!-- Generator: Adobe Illustrator 19.1.0, SVG Export Plug-In . SVG Version: 6.00 Build 0)  -->

<svg
   version="1.1"
   id="Capa_1"
   x="0px"
   y="0px"
   viewBox="0 0 474 474"
   style="enable-background:new 0 0 474 474;"
   xml:space="preserve"
   sodipodi:docname="mailImg.svg"
   inkscape:version="1.2 (dc2aedaf03, 2022-05-15)"
   xmlns:inkscape="http://www.inkscape.org/namespaces/inkscape"
   xmlns:sodipodi="http://sodipodi.sourceforge.net/DTD/sodipodi-0.dtd"
   xmlns="http://www.w3.org/2000/svg"
   xmlns:svg="http://www.w3.org/2000/svg"
   xmlns:rdf="http://www.w3.org/1999/02/22-rdf-syntax-ns#"
   xmlns:cc="http://creativecommons.org/ns#"
   xmlns:dc="http://purl.org/dc/elements/1.1/"><metadata
   id="metadata41"><rdf:RDF><cc:Work
       rdf:about=""><dc:format>image/svg+xml</dc:format><dc:type
         rdf:resource="http://purl.org/dc/dcmitype/StillImage" /></cc:Work></rdf:RDF></metadata><defs
   id="defs39" /><sodipodi:namedview
   pagecolor="#ffffff"
   bordercolor="#666666"
   borderopacity="1"
   objecttolerance="10"
   gridtolerance="10"
   guidetolerance="10"
   inkscape:pageopacity="0"
   inkscape:pageshadow="2"
   inkscape:window-width="2560"
   inkscape:window-height="1414"
   id="namedview37"
   showgrid="false"
   inkscape:zoom="0.4978903"
   inkscape:cx="208.88135"
   inkscape:cy="746.1483"
   inkscape:window-x="0"
   inkscape:window-y="0"
   inkscape:window-maximized="1"
   inkscape:current-layer="g4"
   inkscape:showpageshadow="2"
   inkscape:pagecheckerboard="0"
   inkscape:deskcolor="#d1d1d1" />
<g
   id="g4"
   style="fill:#43d0ff;fill-opacity:1">
	<path
   d="M 437.5,59.3 H 36.5 C 16.4,59.3 0,75.7 0,95.8 v 282.4 c 0,20.1 16.4,36.5 36.5,36.5 h 401 c 20.1,0 36.5,-16.4 36.5,-36.5 V 95.8 C 474,75.7 457.6,59.3 437.5,59.3 Z m -5.3,27 L 234.89572,84.12028 46.8,86.3 Z M 447,378.2 c 0,5.2 -4.3,9.5 -9.5,9.5 h -401 c -5.2,0 -9.5,-4.3 -9.5,-9.5 V 104.9 l 203.7,174.2 c 0.1,0.1 0.3,0.2 0.4,0.3 0.1,0.1 0.3,0.2 0.4,0.3 0.3,0.2 0.5,0.4 0.8,0.5 0.1,0.1 0.2,0.1 0.3,0.2 l 1.2,0.6 c 0.1,0 0.2,0.1 0.3,0.1 0.3,0.1 0.6,0.3 1,0.4 0.1,0 0.3,0.1 0.4,0.1 0.3,0.1 0.6,0.2 0.9,0.2 0.1,0 0.3,0.1 0.4,0.1 0.3,0.1 0.7,0.1 1,0.2 h 0.3 c 0.4,0 0.9,0.1 1.3,0.1 v 0 0 c 0.4,0 0.9,0 1.3,-0.1 h 0.3 c 0.3,0 0.7,-0.1 1,-0.2 0.1,0 0.3,-0.1 0.4,-0.1 0.3,-0.1 0.6,-0.2 0.9,-0.2 0.1,0 0.3,-0.1 0.4,-0.1 0.3,-0.1 0.6,-0.2 1,-0.4 0.1,0 0.2,-0.1 0.3,-0.1 l 1.2,-0.6 c 0.1,-0.1 0.2,-0.1 0.3,-0.2 0.3,-0.2 0.5,-0.3 0.8,-0.5 0.1,-0.1 0.3,-0.2 0.4,-0.3 0.1,-0.1 0.3,-0.2 0.4,-0.3 L 447,109.2 Z"
   id="path2"
   style="fill:#43d0ff;fill-opacity:1"
   sodipodi:nodetypes="sssssssssccccssssccscccccccsccsscscsccsccccccsccs" />
</g>
<g
   id="g6"
   style="fill:#43d0ff;fill-opacity:1">
</g>
<g
   id="g8"
   style="fill:#43d0ff;fill-opacity:1">
</g>
<g
   id="g10"
   style="fill:#43d0ff;fill-opacity:1">
</g>
<g
   id="g12"
   style="fill:#43d0ff;fill-opacity:1">
</g>
<g
   id="g14"
   style="fill:#43d0ff;fill-opacity:1">
</g>
<g
   id="g16"
   style="fill:#43d0ff;fill-opacity:1">
</g>
<g
   id="g18"
   style="fill:#43d0ff;fill-opacity:1">
</g>
<g
   id="g20"
   style="fill:#43d0ff;fill-opacity:1">
</g>
<g
   id="g22"
   style="fill:#43d0ff;fill-opacity:1">
</g>
<g
   id="g24"
   style="fill:#43d0ff;fill-opacity:1">
</g>
<g
   id="g26"
   style="fill:#43d0ff;fill-opacity:1">
</g>
<g
   id="g28"
   style="fill:#43d0ff;fill-opacity:1">
</g>
<g
   id="g30"
   style="fill:#43d0ff;fill-opacity:1">
</g>
<g
   id="g32"
   style="fill:#43d0ff;fill-opacity:1">
</g>
<g
   id="g34"
   style="fill:#43d0ff;fill-opacity:1">
</g>
</svg>
