<?xml version="1.0" encoding="UTF-8" standalone="no"?>
<svg
   xmlns:dc="http://purl.org/dc/elements/1.1/"
   xmlns:cc="http://creativecommons.org/ns#"
   xmlns:rdf="http://www.w3.org/1999/02/22-rdf-syntax-ns#"
   xmlns:svg="http://www.w3.org/2000/svg"
   xmlns="http://www.w3.org/2000/svg"
   xmlns:sodipodi="http://sodipodi.sourceforge.net/DTD/sodipodi-0.dtd"
   xmlns:inkscape="http://www.inkscape.org/namespaces/inkscape"
   width="59.224449mm"
   height="59.248741mm"
   viewBox="0 0 59.224449 59.248741"
   version="1.1"
   id="svg8"
   inkscape:version="1.0.1 (1.0.1+r73)"
   sodipodi:docname="laser.svg">
  <defs
     id="defs2" />
  <sodipodi:namedview
     id="base"
     pagecolor="#ffffff"
     bordercolor="#666666"
     borderopacity="1.0"
     inkscape:pageopacity="0.0"
     inkscape:pageshadow="2"
     inkscape:zoom="0.98994949"
     inkscape:cx="62.597148"
     inkscape:cy="213.03062"
     inkscape:document-units="mm"
     inkscape:current-layer="layer1"
     inkscape:document-rotation="0"
     showgrid="false"
     inkscape:window-width="1920"
     inkscape:window-height="1054"
     inkscape:window-x="0"
     inkscape:window-y="0"
     inkscape:window-maximized="1"
     fit-margin-top="0"
     fit-margin-left="0"
     fit-margin-right="0"
     fit-margin-bottom="0" />
  <metadata
     id="metadata5">
    <rdf:RDF>
      <cc:Work
         rdf:about="">
        <dc:format>image/svg+xml</dc:format>
        <dc:type
           rdf:resource="http://purl.org/dc/dcmitype/StillImage" />
        <dc:title></dc:title>
      </cc:Work>
    </rdf:RDF>
  </metadata>
  <g
     inkscape:label="Layer 1"
     inkscape:groupmode="layer"
     id="layer1"
     transform="translate(-45.794025,-87.260003)">
    <path
       style="fill:#2699fb;fill-opacity:1;stroke-width:0.264583"
       d="m 62.21277,145.9783 c -1.34503,-1.058 -1.0835,-1.8448 2.89882,-8.72082 1.97778,-3.41492 3.71951,-6.4381 3.87051,-6.71818 0.25997,-0.48223 0.2244,-0.47967 -0.67054,0.0484 -4.79152,2.82707 -6.7611,3.787 -7.42715,3.61983 -1.60167,-0.402 -2.27826,-2.53201 -1.15472,-3.63528 0.32742,-0.32151 2.05349,-1.41743 3.8357,-2.43537 l 3.24039,-1.8508 -9.91405,-0.13229 c -9.81426,-0.13096 -9.91999,-0.13823 -10.50321,-0.72173 -0.79266,-0.79304 -0.79266,-2.26142 0,-3.05446 0.58324,-0.58352 0.6887,-0.59076 10.51054,-0.72173 l 9.9214,-0.13229 -3.38002,-1.94962 c -11.24073,-6.48373 -11.15973,-6.43185 -11.4596,-7.34044 -0.22502,-0.68184 -0.19996,-1.02871 0.11887,-1.64526 0.43221,-0.8358 1.72485,-1.45233 2.47806,-1.18192 0.33038,0.11861 11.61887,6.53935 14.4562,8.22249 0.25005,0.14834 -0.66023,-1.51724 -2.71558,-4.96879 -1.4328,-2.4061 -1.54847,-3.47681 -0.4753,-4.39991 1.03923,-0.89391 2.15552,-0.82401 3.10701,0.19456 l 0.76761,0.82173 v 5.24856 c 0,4.85184 -0.0419,5.31955 -0.55407,6.18764 -0.6798,1.15217 -0.93241,3.59888 -0.52648,5.09932 0.409,1.51178 1.75787,3.20815 3.3179,4.17264 1.16212,0.71848 1.51152,0.79942 3.45119,0.79942 1.93968,0 2.28908,-0.0809 3.4512,-0.79942 1.56003,-0.96449 2.9089,-2.66086 3.3179,-4.17264 0.40593,-1.50044 0.15331,-3.94715 -0.52649,-5.09932 -0.51089,-0.86591 -0.55406,-1.33777 -0.55406,-6.05617 v -5.1171 l 2.11439,-3.66518 c 1.16292,-2.01584 2.36673,-3.87353 2.67515,-4.12819 0.80393,-0.66382 2.13936,-0.59353 2.83725,0.14934 1.23006,1.30934 1.10769,1.58107 -7.04063,15.63425 -0.0763,0.13162 -0.0311,0.17653 0.10056,0.0998 0.13162,-0.0767 1.7276,-1.0077 3.54661,-2.06882 3.78874,-2.21017 4.70271,-2.40484 5.72283,-1.21888 0.6637,0.77159 0.80039,1.73365 0.36257,2.55174 -0.14553,0.27192 -1.87618,1.42495 -3.84589,2.56229 l -3.58129,2.06788 9.92424,0.13229 c 9.8248,0.13097 9.93015,0.1382 10.51339,0.72173 0.79266,0.79304 0.79266,2.26142 0,3.05446 -0.58319,0.58348 -0.68924,0.59077 -10.49461,0.72173 l -9.90548,0.13229 5.48077,3.15753 c 8.87779,5.11458 9.00872,5.19937 9.29414,6.01811 0.31724,0.91004 -0.078,2.22761 -0.78111,2.60391 -1.35963,0.72765 -1.13367,0.83636 -15.30241,-7.36237 -1.36173,-0.78797 -1.47434,-1.11281 1.19908,3.4589 2.01261,3.44166 2.20076,4.40189 1.05554,5.38696 -0.93149,0.80123 -2.12686,0.81453 -2.90012,0.0323 -0.32366,-0.32742 -1.41957,-2.06753 -2.43537,-3.86692 l -1.84691,-3.27162 -0.14616,5.38828 c -0.0804,2.96356 -0.16968,5.41341 -0.19843,5.44412 -1.42455,1.52165 -2.64876,1.52165 -4.07331,0 -0.0288,-0.0307 -0.11805,-2.47365 -0.19844,-5.42876 l -0.14616,-5.37293 -3.81833,6.64833 c -2.10008,3.65658 -4.06134,6.81854 -4.35835,7.02657 -0.76635,0.53678 -1.82364,0.46853 -2.63555,-0.17012 z m 11.44004,-19.2117 c -1.53989,-0.95569 -2.02763,-3.19949 -1.02468,-4.71389 0.51078,-0.77125 0.52573,-1.2756 0.52742,-17.79323 l 0.002,-16.999477 h 2.24896 2.24896 l 0.002,16.999477 c 0.002,16.51763 0.0166,17.02198 0.52743,17.79323 1.01626,1.5345 0.50458,3.79717 -1.06887,4.72664 -0.9316,0.5503 -2.56516,0.54429 -3.4627,-0.0128 z"
       id="path847" />
  </g>
</svg>
