<?xml version="1.0" encoding="UTF-8" standalone="no"?>
<svg
   xmlns:dc="http://purl.org/dc/elements/1.1/"
   xmlns:cc="http://creativecommons.org/ns#"
   xmlns:rdf="http://www.w3.org/1999/02/22-rdf-syntax-ns#"
   xmlns:svg="http://www.w3.org/2000/svg"
   xmlns="http://www.w3.org/2000/svg"
   xmlns:sodipodi="http://sodipodi.sourceforge.net/DTD/sodipodi-0.dtd"
   xmlns:inkscape="http://www.inkscape.org/namespaces/inkscape"
   version="1.1"
   x="0px"
   y="0px"
   viewBox="0 0 45.916 32.082001"
   enable-background="new 0 0 47 47"
   xml:space="preserve"
   id="svg10"
   sodipodi:docname="email.svg"
   width="45.916"
   height="32.082001"
   inkscape:version="0.92.5 (2060ec1f9f, 2020-04-08)"><metadata
     id="metadata16"><rdf:RDF><cc:Work
         rdf:about=""><dc:format>image/svg+xml</dc:format><dc:type
           rdf:resource="http://purl.org/dc/dcmitype/StillImage" /><dc:title /></cc:Work></rdf:RDF></metadata><defs
     id="defs14" /><sodipodi:namedview
     pagecolor="#ffffff"
     bordercolor="#666666"
     borderopacity="1"
     objecttolerance="10"
     gridtolerance="10"
     guidetolerance="10"
     inkscape:pageopacity="0"
     inkscape:pageshadow="2"
     inkscape:window-width="1920"
     inkscape:window-height="1057"
     id="namedview12"
     showgrid="false"
     fit-margin-top="0"
     fit-margin-left="0"
     fit-margin-right="0"
     fit-margin-bottom="0"
     inkscape:zoom="5.6568543"
     inkscape:cx="-75.525003"
     inkscape:cy="42.336622"
     inkscape:window-x="0"
     inkscape:window-y="0"
     inkscape:window-maximized="1"
     inkscape:current-layer="svg10" /><g
     id="g818"
     style="fill:#6a91c5;fill-opacity:1"><path
       inkscape:connector-curvature="0"
       id="path816"
       d="M 0.60004555,31.525111 C 0.11381054,31.038875 0.1021642,30.695309 0.1021642,16.837611 c 0,-7.8042903 0.0625013,-14.1896186 0.13889177,-14.1896186 0.1130343,0 7.98852793,6.7632053 20.21076603,17.3563166 1.295887,1.123155 2.001388,1.563175 2.506301,1.563175 0.566663,0 2.844338,-1.849864 11.763691,-9.554136 l 11.060964,-9.5541354 0.06884,13.8483624 c 0.03786,7.616599 0.0097,14.09258 -0.06261,14.39107 -0.339518,1.401785 0.993769,1.324347 -22.802082,1.324347 -21.5570772,0 -21.8965479,-0.0076 -22.38687945,-0.497881 z"
       style="opacity:1;fill:#6a91c5;fill-opacity:1;stroke:none;stroke-width:0.24894068;stroke-opacity:1" /><path
       inkscape:connector-curvature="0"
       id="path818"
       d="M 12.719202,9.0591408 2.5637232,0.28305594 12.784215,0.21805923 c 5.62127,-0.0357482 14.802414,-0.0357482 20.402539,0 L 43.368801,0.28305594 33.283611,8.9959796 C 27.736755,13.788088 23.125579,17.737326 23.03655,17.772065 22.947522,17.806803 18.304715,13.885988 12.719202,9.0591408 Z"
       style="opacity:1;fill:#6a91c5;fill-opacity:1;stroke:none;stroke-width:0.24894068;stroke-opacity:1" /></g></svg>