<?xml version="1.0" encoding="UTF-8" standalone="no"?>
<!-- Creator: CorelDRAW X6 -->

<svg
   xmlns:dc="http://purl.org/dc/elements/1.1/"
   xmlns:cc="http://creativecommons.org/ns#"
   xmlns:rdf="http://www.w3.org/1999/02/22-rdf-syntax-ns#"
   xmlns:svg="http://www.w3.org/2000/svg"
   xmlns="http://www.w3.org/2000/svg"
   xmlns:sodipodi="http://sodipodi.sourceforge.net/DTD/sodipodi-0.dtd"
   xmlns:inkscape="http://www.inkscape.org/namespaces/inkscape"
   xml:space="preserve"
   width="14.2222in"
   height="14.2222in"
   version="1.1"
   style="shape-rendering:geometricPrecision; text-rendering:geometricPrecision; image-rendering:optimizeQuality; fill-rule:evenodd; clip-rule:evenodd"
   viewBox="0 0 14222 14222"
   id="svg12"
   sodipodi:docname="Facebook.svg"
   inkscape:version="0.92.5 (2060ec1f9f, 2020-04-08)"><metadata
   id="metadata16"><rdf:RDF><cc:Work
       rdf:about=""><dc:format>image/svg+xml</dc:format><dc:type
         rdf:resource="http://purl.org/dc/dcmitype/StillImage" /></cc:Work></rdf:RDF></metadata><sodipodi:namedview
   pagecolor="#ffffff"
   bordercolor="#666666"
   borderopacity="1"
   objecttolerance="10"
   gridtolerance="10"
   guidetolerance="10"
   inkscape:pageopacity="0"
   inkscape:pageshadow="2"
   inkscape:window-width="1920"
   inkscape:window-height="1057"
   id="namedview14"
   showgrid="false"
   inkscape:zoom="0.2444494"
   inkscape:cx="-1379.0803"
   inkscape:cy="491.21031"
   inkscape:window-x="0"
   inkscape:window-y="0"
   inkscape:window-maximized="1"
   inkscape:current-layer="svg12" />
 <defs
   id="defs4">
  <style
   type="text/css"
   id="style2">
   <![CDATA[
    .fil0 {fill:#1977F3;fill-rule:nonzero}
    .fil1 {fill:#FEFEFE;fill-rule:nonzero}
   ]]>
  </style>
 
  
  
  
 </defs>
 
<path
   style="opacity:1;fill:#6a91c5;fill-opacity:1;stroke:none;stroke-width:5.78530169;stroke-opacity:1"
   d="M 496.95744,1336.3241 C 342.5702,1290.7802 217.75145,1201.8333 126.17711,1072.1027 86.97953,1016.5728 60.728942,963.63695 37.083996,892.44141 10.329064,811.88166 3.0481957,754.221 6.7478852,652.19535 10.582505,546.44876 27.169859,478.8104 71.672888,387.45024 217.5893,87.8988 552.53154,-61.530722 872.45419,30.193532 c 66.82504,19.159249 156.14491,63.329473 212.09551,104.884958 304.0802,225.8455 367.8367,651.20986 142.8867,953.29731 -68.6733,92.2219 -170.4628,173.0056 -274.51572,217.8653 -49.01984,21.1336 -129.12452,45.2054 -150.43185,45.2054 -9.94528,0 -10.481,-11.9761 -10.481,-234.3047 V 882.83705 h 79.6919 79.69195 l 13.31054,-91.1185 c 7.32083,-50.11518 14.59076,-95.67443 16.1554,-101.24278 2.62756,-9.3509 -4.51821,-10.12428 -93.54492,-10.12428 h -96.38978 l 1.98881,-82.44055 c 1.77574,-73.61107 3.39267,-84.69814 15.09686,-103.51952 19.882,-31.97193 45.78968,-41.67907 118.50751,-44.40265 l 62.192,-2.32934 v -85.35318 -85.35317 l -27.48019,-3.79478 c -194.09034,-26.80225 -303.44955,9.88223 -356.99078,119.75232 -25.30972,51.93713 -31.97166,93.97779 -32.02709,202.10767 l -0.0437,85.3332 h -86.77952 -86.77953 v 101.24278 101.24278 h 86.77953 86.77952 v 234.30475 234.3047 l -13.01693,-0.3078 c -7.15931,-0.1695 -35.1457,-6.8358 -62.19199,-14.8144 z"
   id="path814"
   inkscape:connector-curvature="0"
   transform="scale(10.416519)" /></svg>