<?xml version="1.0" encoding="UTF-8" standalone="no"?>
<svg
   xmlns:dc="http://purl.org/dc/elements/1.1/"
   xmlns:cc="http://creativecommons.org/ns#"
   xmlns:rdf="http://www.w3.org/1999/02/22-rdf-syntax-ns#"
   xmlns:svg="http://www.w3.org/2000/svg"
   xmlns="http://www.w3.org/2000/svg"
   xmlns:sodipodi="http://sodipodi.sourceforge.net/DTD/sodipodi-0.dtd"
   xmlns:inkscape="http://www.inkscape.org/namespaces/inkscape"
   width="1024"
   height="1024"
   viewBox="0 0 1024 1024"
   fill="none"
   version="1.1"
   id="svg4"
   sodipodi:docname="octocat.svg"
   inkscape:version="0.92.5 (2060ec1f9f, 2020-04-08)">
  <metadata
     id="metadata10">
    <rdf:RDF>
      <cc:Work
         rdf:about="">
        <dc:format>image/svg+xml</dc:format>
        <dc:type
           rdf:resource="http://purl.org/dc/dcmitype/StillImage" />
      </cc:Work>
    </rdf:RDF>
  </metadata>
  <defs
     id="defs8" />
  <sodipodi:namedview
     pagecolor="#ffffff"
     bordercolor="#666666"
     borderopacity="1"
     objecttolerance="10"
     gridtolerance="10"
     guidetolerance="10"
     inkscape:pageopacity="0"
     inkscape:pageshadow="2"
     inkscape:window-width="1920"
     inkscape:window-height="1057"
     id="namedview6"
     showgrid="false"
     inkscape:zoom="0.081483008"
     inkscape:cx="-6881.0889"
     inkscape:cy="-907.168"
     inkscape:window-x="0"
     inkscape:window-y="0"
     inkscape:window-maximized="1"
     inkscape:current-layer="svg4" />
  <path
     style="opacity:1;fill:#6a91c5;fill-opacity:1;stroke:none;stroke-width:2.16949153;stroke-opacity:1"
     d="M 338.6848,993.47908 C 312.27239,984.68546 263.39795,960.15647 235.63395,941.76011 159.21987,891.12841 96.790888,821.72267 57.626756,743.8597 18.861003,666.78876 1.347491,586.2418 4.1499282,497.91271 6.6559153,418.92732 21.565552,358.30147 55.38967,289.56063 126.10693,145.84179 264.02526,40.747654 418.39268,12.951386 540.19132,-8.9803649 664.60252,12.170415 767.70062,72.336193 885.79372,141.25273 971.21058,252.36105 1005.5797,381.76402 c 12.8765,48.48089 16.2915,75.9714 16.3053,131.25424 0.013,54.7631 -2.3961,75.85165 -14.2545,124.74576 -29.55741,121.8696 -106.65081,230.50053 -215.14112,303.15149 -28.7048,19.22228 -75.39762,42.63604 -105.0322,52.66762 -21.03472,7.12037 -21.29271,7.15037 -29.20921,3.39377 -15.8497,-7.52117 -15.44224,-4.84156 -15.68332,-103.14214 -0.19026,-77.63054 -0.66874,-89.46054 -4.0822,-100.9521 -5.31315,-17.88702 -13.20031,-34.60395 -20.93242,-44.36653 l -6.49234,-8.19723 13.50847,-1.40136 c 20.81035,-2.15886 57.10067,-10.97288 78.9135,-19.16609 53.52283,-20.10399 91.06753,-53.82177 113.41245,-101.85234 16.40738,-35.26782 24.04189,-75.28456 23.94151,-125.49102 -0.11282,-56.40268 -9.20687,-86.8758 -37.82715,-126.75409 l -12.34054,-17.19478 3.70907,-13.1781 c 4.88148,-17.34365 6.5956,-55.09372 3.34835,-73.74076 -1.40618,-8.07489 -4.993,-22.39388 -7.97069,-31.81999 -6.40026,-20.26042 -7.96785,-21.10732 -31.66905,-17.1096 -30.20142,5.09414 -57.41553,16.21607 -94.42634,38.59043 l -22.14619,13.38815 -17.9894,-4.31252 c -33.40815,-8.00876 -66.10441,-11.5238 -108.02332,-11.61316 -43.67824,-0.0931 -69.51806,2.50611 -105.3059,10.59265 l -23.18812,5.23956 -15.5769,-9.45581 c -37.97823,-23.05434 -69.71297,-36.44824 -98.07837,-41.39475 -28.90757,-5.04106 -29.40091,-4.68309 -38.10057,27.64573 -6.50963,24.19043 -7.06836,74.01051 -1.05409,93.99007 l 3.96689,13.1781 -11.93049,16.62863 c -15.58704,21.72507 -26.70207,45.41397 -33.27321,70.91346 -4.5675,17.72424 -5.30585,25.47065 -5.27308,55.32203 0.021,19.09153 1.07037,42.0339 2.33203,50.98305 4.92513,34.93482 16.62162,69.41323 32.96814,97.18203 10.41757,17.69693 43.18496,50.04986 61.73665,60.9557 31.77258,18.67796 70.97531,31.91693 110.90888,37.45458 10.44274,1.44811 19.29793,2.84509 19.67822,3.10441 0.38029,0.2593 -2.78435,5.30953 -7.03254,11.22269 -9.23541,12.85504 -13.68565,22.87812 -18.50899,41.68702 l -3.6022,14.04709 -16.14675,5.28623 c -12.89563,4.22185 -20.95173,5.32489 -40.01113,5.47831 -22.54763,0.18159 -24.67345,-0.19113 -38.52698,-6.75341 -17.72034,-8.39396 -34.64795,-23.94262 -51.54451,-47.34561 -15.47329,-21.43165 -30.44933,-35.67543 -45.77602,-43.53779 -15.89599,-8.15443 -45.7158,-10.18306 -53.77366,-3.6582 -8.36382,6.77263 -4.90259,13.88082 13.39596,27.5108 25.9983,19.36527 35.06472,31.20946 58.97564,77.04457 15.48519,29.68372 26.19634,41.24502 47.65207,51.43432 23.1032,10.97166 45.49185,14.50566 81.52971,12.8693 16.10847,-0.73143 31.87464,-1.88436 35.03594,-2.56206 l 5.74779,-1.23217 1.58142,21.09304 c 2.19625,29.29386 -0.54918,78.7789 -4.73094,85.27325 -2.86358,4.44715 -14.91599,11.28901 -19.66622,11.16391 -0.93325,-0.0245 -10.48325,-2.96994 -21.22223,-6.54532 z"
     id="path812"
     inkscape:connector-curvature="0" />
</svg>
