<?xml version="1.0" encoding="UTF-8" standalone="no"?>
<svg
   xmlns:dc="http://purl.org/dc/elements/1.1/"
   xmlns:cc="http://creativecommons.org/ns#"
   xmlns:rdf="http://www.w3.org/1999/02/22-rdf-syntax-ns#"
   xmlns:svg="http://www.w3.org/2000/svg"
   xmlns="http://www.w3.org/2000/svg"
   xmlns:sodipodi="http://sodipodi.sourceforge.net/DTD/sodipodi-0.dtd"
   xmlns:inkscape="http://www.inkscape.org/namespaces/inkscape"
   id="Layer_1"
   style="enable-background:new 0 0 1000 1000;"
   version="1.1"
   viewBox="0 0 1000 1000"
   xml:space="preserve"
   sodipodi:docname="Reddit.svg"
   inkscape:version="0.92.5 (2060ec1f9f, 2020-04-08)"><metadata
     id="metadata881"><rdf:RDF><cc:Work
         rdf:about=""><dc:format>image/svg+xml</dc:format><dc:type
           rdf:resource="http://purl.org/dc/dcmitype/StillImage" /></cc:Work></rdf:RDF></metadata><defs
     id="defs879" /><sodipodi:namedview
     pagecolor="#ffffff"
     bordercolor="#666666"
     borderopacity="1"
     objecttolerance="10"
     gridtolerance="10"
     guidetolerance="10"
     inkscape:pageopacity="0"
     inkscape:pageshadow="2"
     inkscape:window-width="1920"
     inkscape:window-height="1057"
     id="namedview877"
     showgrid="false"
     inkscape:zoom="1.888"
     inkscape:cx="681.21686"
     inkscape:cy="530.63274"
     inkscape:window-x="0"
     inkscape:window-y="0"
     inkscape:window-maximized="1"
     inkscape:current-layer="Layer_1" /><style
     type="text/css"
     id="style867">
	.st0{fill:#FF4500;}
	.st1{fill:#FFFFFF;}
</style><title
     id="title869" /><g
     id="g821"
     style="fill:#6a91c5;fill-opacity:1"><path
       inkscape:connector-curvature="0"
       id="path817"
       d="M 470.34849,996.23 C 423.69834,994.1027 364.9559,981.05598 318.96023,962.60662 201.89383,915.65003 104.02982,824.39394 50.868522,712.61687 29.323603,667.31648 16.228002,624.05931 7.9531444,570.85952 5.0028941,551.8921 4.565643,543.24665 4.5056915,502.69562 4.4355669,455.26332 5.1826136,445.32173 11.372654,411.31106 38.253585,263.61597 130.72105,136.0161 263.62301,63.219839 315.8074,34.636148 376.25063,15.121166 438.88823,6.6329024 463.17669,3.3414798 529.69719,2.8343665 553.49346,5.7592193 640.42715,16.444436 715.22336,44.869104 784.95109,93.719648 c 43.96999,30.804942 88.69282,75.338242 120.35122,119.841212 49.78803,69.98821 78.4967,144.97632 88.89871,232.20667 2.88746,24.21408 2.43952,87.88326 -0.79051,112.35807 -7.87626,59.6805 -23.68908,111.73498 -49.83202,164.04278 -41.31463,82.6639 -102.50008,149.98781 -181.09902,199.26783 -21.20098,13.29262 -59.10563,32.41432 -81.64686,41.18827 -66.40885,25.84899 -136.20607,36.99269 -210.48412,33.60552 z m 74.15633,-205.83589 c 109.16559,-11.62259 195.34265,-61.83083 231.52686,-134.89151 9.6551,-19.49494 14.75088,-36.98656 17.77605,-61.01755 1.21668,-9.66485 3.51961,-20.45122 5.11764,-23.96972 1.59805,-3.51852 7.55468,-11.54634 13.23695,-17.8396 11.8777,-13.15486 17.42448,-22.55683 20.67891,-35.05141 6.18444,-23.74365 -0.0728,-48.36039 -17.00039,-66.8819 -9.56488,-10.4655 -17.15142,-15.67421 -29.19914,-20.04729 -21.25812,-7.71629 -42.8806,-5.96781 -65.24294,5.27575 l -12.30174,6.18519 -12.25957,-6.65333 c -51.73559,-28.07722 -81.94881,-38.35362 -143.36141,-48.7614 -31.80138,-5.38947 -34.79181,-6.36367 -33.72402,-10.9864 0.43126,-1.86707 4.11259,-19.57424 8.18072,-39.34926 8.06569,-39.20702 18.53959,-87.24405 21.0777,-96.66987 1.25986,-4.67882 2.31032,-5.94279 4.91529,-5.9144 3.34542,0.0364 31.8108,5.78045 74.50308,15.03392 l 23.25063,5.03953 5.70136,13.07776 c 11.75772,26.96981 34.08265,40.31771 59.67214,35.67744 17.19038,-3.1172 30.93228,-13.24196 38.27986,-28.20385 3.74269,-7.62125 4.15046,-10.01187 4.15046,-24.33276 0,-15.1932 -0.22715,-16.32646 -5.24338,-26.16049 -9.1684,-17.97412 -25.32242,-26.8335 -48.6885,-26.70236 -14.1575,0.0794 -21.9783,3.42906 -35.20552,15.07835 -4.53178,3.99115 -9.33116,8.1014 -10.66529,9.1339 -1.99088,1.54074 -8.83873,0.51965 -38.20174,-5.69634 -39.11688,-8.28085 -77.49291,-14.93957 -86.10081,-14.93957 -5.1191,0 -5.69065,0.47731 -8.56092,7.14945 -5.34191,12.4176 -17.17197,63.11767 -35.55989,152.39901 -2.20609,10.71147 -4.52601,20.03103 -5.15541,20.71014 -0.62939,0.67911 -12.18408,2.49378 -25.67707,4.03262 -62.87766,7.17104 -120.76863,26.38346 -159.3624,52.88798 l -7.49053,5.14417 -9.90377,-4.97219 c -28.89508,-14.50684 -52.96794,-15.93557 -76.98647,-4.56917 -28.09375,13.29491 -41.13594,38.0956 -39.39294,74.9086 0.54732,11.55976 1.35774,15.04377 5.28491,22.71988 6.39435,12.49855 15.34014,23.4091 25.11333,30.62898 l 8.24564,6.09141 0.0135,15.30833 c 0.0213,23.92204 7.74039,54.37837 19.65334,77.54291 14.37807,27.95795 55.03905,68.00972 87.43873,86.12866 36.05327,20.16213 97.02366,39.09345 143.82737,44.65842 12.6295,1.50165 69.58181,0.72052 87.6393,-1.20203 z"
       style="opacity:1;fill:#6a91c5;fill-opacity:1;stroke:none;stroke-width:1.49810755;stroke-opacity:1" /><path
       inkscape:connector-curvature="0"
       id="path819"
       d="m 375.61897,599.28514 c -19.62004,-4.00571 -33.82375,-19.16432 -37.84999,-40.39459 -4.04843,-21.34733 7.29649,-41.18104 29.32943,-51.27503 11.27855,-5.16707 28.47318,-4.83003 39.90176,0.78212 16.79465,8.24724 25.85684,23.65959 25.80481,43.88707 -0.0764,29.69922 -28.30204,52.8975 -57.18601,47.00043 z"
       style="opacity:1;fill:#6a91c5;fill-opacity:1;stroke:none;stroke-width:1.49810755;stroke-opacity:1" /><path
       inkscape:connector-curvature="0"
       id="path821"
       d="m 453.95147,722.8281 c -16.23154,-3.04077 -40.72258,-11.42343 -54.85247,-18.77461 -13.20063,-6.86772 -25.37845,-18.5272 -25.37845,-24.29823 0,-4.75927 6.42966,-11.51875 10.9567,-11.51875 1.98508,0 8.59022,3.27715 14.67809,7.28256 27.43987,18.05358 48.3615,23.86481 90.74944,25.20674 30.59511,0.96859 48.04565,-0.64437 69.75741,-6.44771 17.50829,-4.6798 26.43559,-8.77013 40.12813,-18.38603 6.51217,-4.57331 12.51088,-7.65556 14.89937,-7.65556 5.66048,0 10.51294,5.69567 10.51294,12.33977 0,4.64772 -1.10217,6.36977 -7.86507,12.28848 -13.87441,12.14254 -36.3506,22.13392 -63.29504,28.13664 -18.31933,4.0812 -82.05942,5.24217 -100.29105,1.8267 z"
       style="opacity:1;fill:#6a91c5;fill-opacity:1;stroke:none;stroke-width:1.49810755;stroke-opacity:1" /><path
       inkscape:connector-curvature="0"
       id="path823"
       d="m 603.15088,599.27318 c -14.47292,-2.98328 -27.63969,-14.75929 -33.31148,-29.7929 -4.41545,-11.70358 -3.52155,-29.11513 2.05376,-40.00351 9.41016,-18.37769 31.01714,-28.67456 51.48371,-24.53472 30.90158,6.25057 47.26046,37.424 34.38265,65.51944 -4.89494,10.67926 -15.57942,21.59794 -25.28998,25.84433 -7.8558,3.43531 -20.72806,4.73812 -29.31866,2.96736 z"
       style="opacity:1;fill:#6a91c5;fill-opacity:1;stroke:none;stroke-width:1.49810755;stroke-opacity:1" /></g></svg>