<?xml version="1.0" encoding="UTF-8" standalone="no"?>
<svg
   xml:space="preserve"
   width="957.87"
   height="957.87"
   viewBox="0 0 957.87 957.87003"
   version="1.1"
   id="svg1819"
   sodipodi:docname="qr.svg"
   inkscape:version="1.2.2 (b0a8486541, 2022-12-01)"
   xmlns:inkscape="http://www.inkscape.org/namespaces/inkscape"
   xmlns:sodipodi="http://sodipodi.sourceforge.net/DTD/sodipodi-0.dtd"
   xmlns="http://www.w3.org/2000/svg"
   xmlns:svg="http://www.w3.org/2000/svg"><sodipodi:namedview
   id="namedview1821"
   pagecolor="#ffffff"
   bordercolor="#666666"
   borderopacity="1.0"
   inkscape:showpageshadow="2"
   inkscape:pageopacity="0.0"
   inkscape:pagecheckerboard="0"
   inkscape:deskcolor="#d1d1d1"
   showgrid="false"
   inkscape:zoom="0.7435544"
   inkscape:cx="429.69283"
   inkscape:cy="500.97208"
   inkscape:window-width="1920"
   inkscape:window-height="1055"
   inkscape:window-x="0"
   inkscape:window-y="0"
   inkscape:window-maximized="1"
   inkscape:current-layer="svg1819" />
<defs
   id="defs1775"><mask
     id="qrmask"><g
       fill="#ffffff"
       id="g1772"><g
         id="g1770">
<g
   transform="matrix(4.9783333,0,0,4.9783333,271.875,39.875)"
   id="g4"><path
     d="M 6,6 H 0 V 3 C 0,1.3 1.3,0 3,0 v 0 c 1.7,0 3,1.3 3,3 z"
     id="path2" /></g>
<g
   transform="matrix(4.9783333,0,0,4.9783333,329.875,39.875)"
   id="g8"><circle
     cx="3"
     cy="3"
     r="3"
     id="circle6" /></g>
<g
   transform="matrix(4.9783333,0,0,4.9783333,387.875,39.875)"
   id="g12"><path
     d="M 6,6 H 0 V 3 C 0,1.3 1.3,0 3,0 h 3 z"
     id="path10" /></g>
<g
   transform="matrix(4.9783333,0,0,4.9783333,416.875,39.875)"
   id="g16"><path
     d="M 6,6 H 0 V 0 h 3 c 1.7,0 3,1.3 3,3 z"
     id="path14" /></g>
<g
   transform="matrix(4.9783333,0,0,4.9783333,561.875,39.875)"
   id="g20"><circle
     cx="3"
     cy="3"
     r="3"
     id="circle18" /></g>
<g
   transform="matrix(4.9783333,0,0,4.9783333,648.875,39.875)"
   id="g24"><path
     d="M 6,6 H 0 V 3 C 0,1.3 1.3,0 3,0 v 0 c 1.7,0 3,1.3 3,3 z"
     id="path22" /></g>
<g
   transform="matrix(4.9783333,0,0,4.9783333,706.875,39.875)"
   id="g28"><path
     d="M 6,6 H 3 C 1.3,6 0,4.7 0,3 V 3 C 0,1.3 1.3,0 3,0 h 3 c 0,0 0,6 0,6 z"
     id="path26" /></g>
<g
   transform="matrix(4.9783333,0,0,4.9783333,735.875,39.875)"
   id="g32"><path
     d="M 6,6 H 0 V 0 h 3 c 1.7,0 3,1.3 3,3 z"
     id="path30" /></g>
<g
   transform="matrix(4.9783333,0,0,4.9783333,271.875,68.875)"
   id="g36"><rect
     width="6"
     height="6"
     id="rect34"
     x="0"
     y="0" /></g>
<g
   transform="matrix(4.9783333,0,0,4.9783333,358.875,68.875)"
   id="g40"><path
     d="M 6,6 H 0 V 3 C 0,1.3 1.3,0 3,0 h 3 z"
     id="path38" /></g>
<g
   transform="matrix(4.9783333,0,0,4.9783333,387.875,68.875)"
   id="g44"><rect
     width="6"
     height="6"
     id="rect42"
     x="0"
     y="0" /></g>
<g
   transform="matrix(4.9783333,0,0,4.9783333,416.875,68.875)"
   id="g48"><rect
     width="6"
     height="6"
     id="rect46"
     x="0"
     y="0" /></g>
<g
   transform="matrix(4.9783333,0,0,4.9783333,474.875,68.875)"
   id="g52"><path
     d="M 6,6 H 0 V 3 C 0,1.3 1.3,0 3,0 v 0 c 1.7,0 3,1.3 3,3 z"
     id="path50" /></g>
<g
   transform="matrix(4.9783333,0,0,4.9783333,532.875,68.875)"
   id="g56"><circle
     cx="3"
     cy="3"
     r="3"
     id="circle54" /></g>
<g
   transform="matrix(4.9783333,0,0,4.9783333,590.875,68.875)"
   id="g60"><circle
     cx="3"
     cy="3"
     r="3"
     id="circle58" /></g>
<g
   transform="matrix(4.9783333,0,0,4.9783333,648.875,68.875)"
   id="g64"><rect
     width="6"
     height="6"
     id="rect62"
     x="0"
     y="0" /></g>
<g
   transform="matrix(4.9783333,0,0,4.9783333,677.875,68.875)"
   id="g68"><path
     d="M 3,6 H 0 V 0 H 3 C 4.7,0 6,1.3 6,3 V 3 C 6,4.7 4.7,6 3,6 Z"
     id="path66" /></g>
<g
   transform="matrix(4.9783333,0,0,4.9783333,735.875,68.875)"
   id="g72"><rect
     width="6"
     height="6"
     id="rect70"
     x="0"
     y="0" /></g>
<g
   transform="matrix(4.9783333,0,0,4.9783333,271.875,97.875)"
   id="g76"><path
     d="M 6,6 H 3 C 1.3,6 0,4.7 0,3 V 0 h 6 z"
     id="path74" /></g>
<g
   transform="matrix(4.9783333,0,0,4.9783333,300.875,97.875)"
   id="g80"><path
     d="M 6,6 H 0 V 0 h 3 c 1.7,0 3,1.3 3,3 z"
     id="path78" /></g>
<g
   transform="matrix(4.9783333,0,0,4.9783333,358.875,97.875)"
   id="g84"><path
     d="M 3,6 V 6 C 1.3,6 0,4.7 0,3 V 0 H 6 V 3 C 6,4.7 4.7,6 3,6 Z"
     id="path82" /></g>
<g
   transform="matrix(4.9783333,0,0,4.9783333,416.875,97.875)"
   id="g88"><rect
     width="6"
     height="6"
     id="rect86"
     x="0"
     y="0" /></g>
<g
   transform="matrix(4.9783333,0,0,4.9783333,474.875,97.875)"
   id="g92"><path
     d="M 3,6 V 6 C 1.3,6 0,4.7 0,3 V 0 H 6 V 3 C 6,4.7 4.7,6 3,6 Z"
     id="path90" /></g>
<g
   transform="matrix(4.9783333,0,0,4.9783333,561.875,97.875)"
   id="g96"><circle
     cx="3"
     cy="3"
     r="3"
     id="circle94" /></g>
<g
   transform="matrix(4.9783333,0,0,4.9783333,619.875,97.875)"
   id="g100"><path
     d="M 6,6 H 3 C 1.3,6 0,4.7 0,3 V 3 C 0,1.3 1.3,0 3,0 h 3 c 0,0 0,6 0,6 z"
     id="path98" /></g>
<g
   transform="matrix(4.9783333,0,0,4.9783333,648.875,97.875)"
   id="g104"><path
     d="M 3,6 H 0 V 0 H 6 V 3 C 6,4.7 4.7,6 3,6 Z"
     id="path102" /></g>
<g
   transform="matrix(4.9783333,0,0,4.9783333,706.875,97.875)"
   id="g108"><path
     d="M 6,6 H 0 V 3 C 0,1.3 1.3,0 3,0 h 3 z"
     id="path106" /></g>
<g
   transform="matrix(4.9783333,0,0,4.9783333,735.875,97.875)"
   id="g112"><path
     d="M 3,6 H 0 V 0 H 6 V 3 C 6,4.7 4.7,6 3,6 Z"
     id="path110" /></g>
<g
   transform="matrix(4.9783333,0,0,4.9783333,300.875,126.875)"
   id="g116"><path
     d="M 3,6 V 6 C 1.3,6 0,4.7 0,3 V 0 H 6 V 3 C 6,4.7 4.7,6 3,6 Z"
     id="path114" /></g>
<g
   transform="matrix(4.9783333,0,0,4.9783333,387.875,126.875)"
   id="g120"><path
     d="M 6,6 H 3 C 1.3,6 0,4.7 0,3 V 3 C 0,1.3 1.3,0 3,0 h 3 c 0,0 0,6 0,6 z"
     id="path118" /></g>
<g
   transform="matrix(4.9783333,0,0,4.9783333,416.875,126.875)"
   id="g124"><rect
     width="6"
     height="6"
     id="rect122"
     x="0"
     y="0" /></g>
<g
   transform="matrix(4.9783333,0,0,4.9783333,445.875,126.875)"
   id="g128"><path
     d="M 6,6 H 0 V 0 h 3 c 1.7,0 3,1.3 3,3 z"
     id="path126" /></g>
<g
   transform="matrix(4.9783333,0,0,4.9783333,590.875,126.875)"
   id="g132"><circle
     cx="3"
     cy="3"
     r="3"
     id="circle130" /></g>
<g
   transform="matrix(4.9783333,0,0,4.9783333,677.875,126.875)"
   id="g136"><path
     d="M 6,6 H 3 C 1.3,6 0,4.7 0,3 V 3 C 0,1.3 1.3,0 3,0 h 3 c 0,0 0,6 0,6 z"
     id="path134" /></g>
<g
   transform="matrix(4.9783333,0,0,4.9783333,706.875,126.875)"
   id="g140"><path
     d="M 3,6 H 0 V 0 H 6 V 3 C 6,4.7 4.7,6 3,6 Z"
     id="path138" /></g>
<g
   transform="matrix(4.9783333,0,0,4.9783333,358.875,155.875)"
   id="g144"><path
     d="M 6,6 H 0 V 3 C 0,1.3 1.3,0 3,0 v 0 c 1.7,0 3,1.3 3,3 z"
     id="path142" /></g>
<g
   transform="matrix(4.9783333,0,0,4.9783333,445.875,155.875)"
   id="g148"><path
     d="M 6,6 H 3 C 1.3,6 0,4.7 0,3 V 0 h 6 z"
     id="path146" /></g>
<g
   transform="matrix(4.9783333,0,0,4.9783333,474.875,155.875)"
   id="g152"><path
     d="M 6,6 H 0 V 0 h 3 c 1.7,0 3,1.3 3,3 z"
     id="path150" /></g>
<g
   transform="matrix(4.9783333,0,0,4.9783333,561.875,155.875)"
   id="g156"><path
     d="M 6,6 H 0 V 3 C 0,1.3 1.3,0 3,0 v 0 c 1.7,0 3,1.3 3,3 z"
     id="path154" /></g>
<g
   transform="matrix(4.9783333,0,0,4.9783333,735.875,155.875)"
   id="g160"><circle
     cx="3"
     cy="3"
     r="3"
     id="circle158" /></g>
<g
   transform="matrix(4.9783333,0,0,4.9783333,271.875,184.875)"
   id="g164"><path
     d="M 6,6 H 0 V 3 C 0,1.3 1.3,0 3,0 v 0 c 1.7,0 3,1.3 3,3 z"
     id="path162" /></g>
<g
   transform="matrix(4.9783333,0,0,4.9783333,329.875,184.875)"
   id="g168"><path
     d="M 6,6 H 0 V 3 C 0,1.3 1.3,0 3,0 h 3 z"
     id="path166" /></g>
<g
   transform="matrix(4.9783333,0,0,4.9783333,358.875,184.875)"
   id="g172"><path
     d="M 3,6 H 0 V 0 H 6 V 3 C 6,4.7 4.7,6 3,6 Z"
     id="path170" /></g>
<g
   transform="matrix(4.9783333,0,0,4.9783333,416.875,184.875)"
   id="g176"><circle
     cx="3"
     cy="3"
     r="3"
     id="circle174" /></g>
<g
   transform="matrix(4.9783333,0,0,4.9783333,474.875,184.875)"
   id="g180"><path
     d="M 6,6 H 3 C 1.3,6 0,4.7 0,3 V 0 h 6 z"
     id="path178" /></g>
<g
   transform="matrix(4.9783333,0,0,4.9783333,503.875,184.875)"
   id="g184"><rect
     width="6"
     height="6"
     id="rect182"
     x="0"
     y="0" /></g>
<g
   transform="matrix(4.9783333,0,0,4.9783333,532.875,184.875)"
   id="g188"><rect
     width="6"
     height="6"
     id="rect186"
     x="0"
     y="0" /></g>
<g
   transform="matrix(4.9783333,0,0,4.9783333,561.875,184.875)"
   id="g192"><rect
     width="6"
     height="6"
     id="rect190"
     x="0"
     y="0" /></g>
<g
   transform="matrix(4.9783333,0,0,4.9783333,590.875,184.875)"
   id="g196"><path
     d="M 3,6 H 0 V 0 H 3 C 4.7,0 6,1.3 6,3 V 3 C 6,4.7 4.7,6 3,6 Z"
     id="path194" /></g>
<g
   transform="matrix(4.9783333,0,0,4.9783333,677.875,184.875)"
   id="g200"><path
     d="M 6,6 H 0 V 3 C 0,1.3 1.3,0 3,0 v 0 c 1.7,0 3,1.3 3,3 z"
     id="path198" /></g>
<g
   transform="matrix(4.9783333,0,0,4.9783333,271.875,213.875)"
   id="g204"><rect
     width="6"
     height="6"
     id="rect202"
     x="0"
     y="0" /></g>
<g
   transform="matrix(4.9783333,0,0,4.9783333,329.875,213.875)"
   id="g208"><rect
     width="6"
     height="6"
     id="rect206"
     x="0"
     y="0" /></g>
<g
   transform="matrix(4.9783333,0,0,4.9783333,387.875,213.875)"
   id="g212"><path
     d="M 6,6 H 0 V 3 C 0,1.3 1.3,0 3,0 v 0 c 1.7,0 3,1.3 3,3 z"
     id="path210" /></g>
<g
   transform="matrix(4.9783333,0,0,4.9783333,445.875,213.875)"
   id="g216"><circle
     cx="3"
     cy="3"
     r="3"
     id="circle214" /></g>
<g
   transform="matrix(4.9783333,0,0,4.9783333,503.875,213.875)"
   id="g220"><path
     d="M 3,6 V 6 C 1.3,6 0,4.7 0,3 V 0 H 6 V 3 C 6,4.7 4.7,6 3,6 Z"
     id="path218" /></g>
<g
   transform="matrix(4.9783333,0,0,4.9783333,561.875,213.875)"
   id="g224"><rect
     width="6"
     height="6"
     id="rect222"
     x="0"
     y="0" /></g>
<g
   transform="matrix(4.9783333,0,0,4.9783333,619.875,213.875)"
   id="g228"><circle
     cx="3"
     cy="3"
     r="3"
     id="circle226" /></g>
<g
   transform="matrix(4.9783333,0,0,4.9783333,677.875,213.875)"
   id="g232"><path
     d="M 3,6 V 6 C 1.3,6 0,4.7 0,3 V 0 H 6 V 3 C 6,4.7 4.7,6 3,6 Z"
     id="path230" /></g>
<g
   transform="matrix(4.9783333,0,0,4.9783333,735.875,213.875)"
   id="g236"><path
     d="M 6,6 H 0 V 3 C 0,1.3 1.3,0 3,0 v 0 c 1.7,0 3,1.3 3,3 z"
     id="path234" /></g>
<g
   transform="matrix(4.9783333,0,0,4.9783333,271.875,242.875)"
   id="g240"><rect
     width="6"
     height="6"
     id="rect238"
     x="0"
     y="0" /></g>
<g
   transform="matrix(4.9783333,0,0,4.9783333,329.875,242.875)"
   id="g244"><path
     d="M 6,6 H 3 C 1.3,6 0,4.7 0,3 V 0 h 6 z"
     id="path242" /></g>
<g
   transform="matrix(4.9783333,0,0,4.9783333,358.875,242.875)"
   id="g248"><rect
     width="6"
     height="6"
     id="rect246"
     x="0"
     y="0" /></g>
<g
   transform="matrix(4.9783333,0,0,4.9783333,387.875,242.875)"
   id="g252"><rect
     width="6"
     height="6"
     id="rect250"
     x="0"
     y="0" /></g>
<g
   transform="matrix(4.9783333,0,0,4.9783333,416.875,242.875)"
   id="g256"><path
     d="M 3,6 H 0 V 0 H 3 C 4.7,0 6,1.3 6,3 V 3 C 6,4.7 4.7,6 3,6 Z"
     id="path254" /></g>
<g
   transform="matrix(4.9783333,0,0,4.9783333,561.875,242.875)"
   id="g260"><rect
     width="6"
     height="6"
     id="rect258"
     x="0"
     y="0" /></g>
<g
   transform="matrix(4.9783333,0,0,4.9783333,648.875,242.875)"
   id="g264"><circle
     cx="3"
     cy="3"
     r="3"
     id="circle262" /></g>
<g
   transform="matrix(4.9783333,0,0,4.9783333,735.875,242.875)"
   id="g268"><rect
     width="6"
     height="6"
     id="rect266"
     x="0"
     y="0" /></g>
<g
   transform="matrix(4.9783333,0,0,4.9783333,97.875,271.875)"
   id="g272"><path
     d="M 6,6 H 0 V 3 C 0,1.3 1.3,0 3,0 h 3 z"
     id="path270" /></g>
<g
   transform="matrix(4.9783333,0,0,4.9783333,126.875,271.875)"
   id="g276"><rect
     width="6"
     height="6"
     id="rect274"
     x="0"
     y="0" /></g>
<g
   transform="matrix(4.9783333,0,0,4.9783333,155.875,271.875)"
   id="g280"><path
     d="M 6,6 H 0 V 0 h 3 c 1.7,0 3,1.3 3,3 z"
     id="path278" /></g>
<g
   transform="matrix(4.9783333,0,0,4.9783333,213.875,271.875)"
   id="g284"><circle
     cx="3"
     cy="3"
     r="3"
     id="circle282" /></g>
<g
   transform="matrix(4.9783333,0,0,4.9783333,271.875,271.875)"
   id="g288"><path
     d="M 3,6 V 6 C 1.3,6 0,4.7 0,3 V 0 H 6 V 3 C 6,4.7 4.7,6 3,6 Z"
     id="path286" /></g>
<g
   transform="matrix(4.9783333,0,0,4.9783333,358.875,271.875)"
   id="g292"><path
     d="M 3,6 V 6 C 1.3,6 0,4.7 0,3 V 0 H 6 V 3 C 6,4.7 4.7,6 3,6 Z"
     id="path290" /></g>
<g
   transform="matrix(4.9783333,0,0,4.9783333,532.875,271.875)"
   id="g296"><path
     d="M 6,6 H 0 V 3 C 0,1.3 1.3,0 3,0 h 3 z"
     id="path294" /></g>
<g
   transform="matrix(4.9783333,0,0,4.9783333,561.875,271.875)"
   id="g300"><path
     d="M 3,6 H 0 V 0 H 6 V 3 C 6,4.7 4.7,6 3,6 Z"
     id="path298" /></g>
<g
   transform="matrix(4.9783333,0,0,4.9783333,677.875,271.875)"
   id="g304"><path
     d="M 6,6 H 0 V 3 C 0,1.3 1.3,0 3,0 v 0 c 1.7,0 3,1.3 3,3 z"
     id="path302" /></g>
<g
   transform="matrix(4.9783333,0,0,4.9783333,735.875,271.875)"
   id="g308"><path
     d="M 6,6 H 3 C 1.3,6 0,4.7 0,3 V 0 h 6 z"
     id="path306" /></g>
<g
   transform="matrix(4.9783333,0,0,4.9783333,764.875,271.875)"
   id="g312"><rect
     width="6"
     height="6"
     id="rect310"
     x="0"
     y="0" /></g>
<g
   transform="matrix(4.9783333,0,0,4.9783333,793.875,271.875)"
   id="g316"><rect
     width="6"
     height="6"
     id="rect314"
     x="0"
     y="0" /></g>
<g
   transform="matrix(4.9783333,0,0,4.9783333,822.875,271.875)"
   id="g320"><path
     d="M 3,6 H 0 V 0 H 3 C 4.7,0 6,1.3 6,3 V 3 C 6,4.7 4.7,6 3,6 Z"
     id="path318" /></g>
<g
   transform="matrix(4.9783333,0,0,4.9783333,909.875,271.875)"
   id="g324"><path
     d="M 6,6 H 0 V 3 C 0,1.3 1.3,0 3,0 h 3 z"
     id="path322" /></g>
<g
   transform="matrix(4.9783333,0,0,4.9783333,938.875,271.875)"
   id="g328"><rect
     width="6"
     height="6"
     id="rect326"
     x="0"
     y="0" /></g>
<g
   transform="matrix(4.9783333,0,0,4.9783333,967.875,271.875)"
   id="g332"><path
     d="M 6,6 H 0 V 0 h 3 c 1.7,0 3,1.3 3,3 z"
     id="path330" /></g>
<g
   transform="matrix(4.9783333,0,0,4.9783333,97.875,300.875)"
   id="g336"><path
     d="M 3,6 V 6 C 1.3,6 0,4.7 0,3 V 0 H 6 V 3 C 6,4.7 4.7,6 3,6 Z"
     id="path334" /></g>
<g
   transform="matrix(4.9783333,0,0,4.9783333,155.875,300.875)"
   id="g340"><path
     d="M 6,6 H 3 C 1.3,6 0,4.7 0,3 V 0 h 6 z"
     id="path338" /></g>
<g
   transform="matrix(4.9783333,0,0,4.9783333,184.875,300.875)"
   id="g344"><path
     d="M 3,6 H 0 V 0 H 3 C 4.7,0 6,1.3 6,3 V 3 C 6,4.7 4.7,6 3,6 Z"
     id="path342" /></g>
<g
   transform="matrix(4.9783333,0,0,4.9783333,300.875,300.875)"
   id="g348"><path
     d="M 6,6 H 0 V 3 C 0,1.3 1.3,0 3,0 v 0 c 1.7,0 3,1.3 3,3 z"
     id="path346" /></g>
<g
   transform="matrix(4.9783333,0,0,4.9783333,445.875,300.875)"
   id="g352"><path
     d="M 6,6 H 0 V 3 C 0,1.3 1.3,0 3,0 h 3 z"
     id="path350" /></g>
<g
   transform="matrix(4.9783333,0,0,4.9783333,474.875,300.875)"
   id="g356"><path
     d="M 6,6 H 0 V 0 h 3 c 1.7,0 3,1.3 3,3 z"
     id="path354" /></g>
<g
   transform="matrix(4.9783333,0,0,4.9783333,532.875,300.875)"
   id="g360"><path
     d="M 3,6 V 6 C 1.3,6 0,4.7 0,3 V 0 H 6 V 3 C 6,4.7 4.7,6 3,6 Z"
     id="path358" /></g>
<g
   transform="matrix(4.9783333,0,0,4.9783333,619.875,300.875)"
   id="g364"><path
     d="M 6,6 H 0 V 3 C 0,1.3 1.3,0 3,0 v 0 c 1.7,0 3,1.3 3,3 z"
     id="path362" /></g>
<g
   transform="matrix(4.9783333,0,0,4.9783333,677.875,300.875)"
   id="g368"><rect
     width="6"
     height="6"
     id="rect366"
     x="0"
     y="0" /></g>
<g
   transform="matrix(4.9783333,0,0,4.9783333,706.875,300.875)"
   id="g372"><path
     d="M 3,6 H 0 V 0 H 3 C 4.7,0 6,1.3 6,3 V 3 C 6,4.7 4.7,6 3,6 Z"
     id="path370" /></g>
<g
   transform="matrix(4.9783333,0,0,4.9783333,764.875,300.875)"
   id="g376"><rect
     width="6"
     height="6"
     id="rect374"
     x="0"
     y="0" /></g>
<g
   transform="matrix(4.9783333,0,0,4.9783333,793.875,300.875)"
   id="g380"><rect
     width="6"
     height="6"
     id="rect378"
     x="0"
     y="0" /></g>
<g
   transform="matrix(4.9783333,0,0,4.9783333,880.875,300.875)"
   id="g384"><path
     d="M 6,6 H 3 C 1.3,6 0,4.7 0,3 V 3 C 0,1.3 1.3,0 3,0 h 3 c 0,0 0,6 0,6 z"
     id="path382" /></g>
<g
   transform="matrix(4.9783333,0,0,4.9783333,909.875,300.875)"
   id="g388"><rect
     width="6"
     height="6"
     id="rect386"
     x="0"
     y="0" /></g>
<g
   transform="matrix(4.9783333,0,0,4.9783333,938.875,300.875)"
   id="g392"><rect
     width="6"
     height="6"
     id="rect390"
     x="0"
     y="0" /></g>
<g
   transform="matrix(4.9783333,0,0,4.9783333,967.875,300.875)"
   id="g396"><path
     d="M 3,6 H 0 V 0 H 6 V 3 C 6,4.7 4.7,6 3,6 Z"
     id="path394" /></g>
<g
   transform="matrix(4.9783333,0,0,4.9783333,39.875,329.875)"
   id="g400"><path
     d="M 6,6 H 0 V 3 C 0,1.3 1.3,0 3,0 v 0 c 1.7,0 3,1.3 3,3 z"
     id="path398" /></g>
<g
   transform="matrix(4.9783333,0,0,4.9783333,213.875,329.875)"
   id="g404"><path
     d="M 6,6 H 3 C 1.3,6 0,4.7 0,3 V 3 C 0,1.3 1.3,0 3,0 h 3 c 0,0 0,6 0,6 z"
     id="path402" /></g>
<g
   transform="matrix(4.9783333,0,0,4.9783333,242.875,329.875)"
   id="g408"><path
     d="M 6,6 H 0 V 0 h 3 c 1.7,0 3,1.3 3,3 z"
     id="path406" /></g>
<g
   transform="matrix(4.9783333,0,0,4.9783333,300.875,329.875)"
   id="g412"><rect
     width="6"
     height="6"
     id="rect410"
     x="0"
     y="0" /></g>
<g
   transform="matrix(4.9783333,0,0,4.9783333,329.875,329.875)"
   id="g416"><rect
     width="6"
     height="6"
     id="rect414"
     x="0"
     y="0" /></g>
<g
   transform="matrix(4.9783333,0,0,4.9783333,358.875,329.875)"
   id="g420"><rect
     width="6"
     height="6"
     id="rect418"
     x="0"
     y="0" /></g>
<g
   transform="matrix(4.9783333,0,0,4.9783333,387.875,329.875)"
   id="g424"><rect
     width="6"
     height="6"
     id="rect422"
     x="0"
     y="0" /></g>
<g
   transform="matrix(4.9783333,0,0,4.9783333,416.875,329.875)"
   id="g428"><rect
     width="6"
     height="6"
     id="rect426"
     x="0"
     y="0" /></g>
<g
   transform="matrix(4.9783333,0,0,4.9783333,445.875,329.875)"
   id="g432"><rect
     width="6"
     height="6"
     id="rect430"
     x="0"
     y="0" /></g>
<g
   transform="matrix(4.9783333,0,0,4.9783333,474.875,329.875)"
   id="g436"><rect
     width="6"
     height="6"
     id="rect434"
     x="0"
     y="0" /></g>
<g
   transform="matrix(4.9783333,0,0,4.9783333,503.875,329.875)"
   id="g440"><path
     d="M 3,6 H 0 V 0 H 3 C 4.7,0 6,1.3 6,3 V 3 C 6,4.7 4.7,6 3,6 Z"
     id="path438" /></g>
<g
   transform="matrix(4.9783333,0,0,4.9783333,590.875,329.875)"
   id="g444"><path
     d="M 6,6 H 0 V 3 C 0,1.3 1.3,0 3,0 h 3 z"
     id="path442" /></g>
<g
   transform="matrix(4.9783333,0,0,4.9783333,619.875,329.875)"
   id="g448"><rect
     width="6"
     height="6"
     id="rect446"
     x="0"
     y="0" /></g>
<g
   transform="matrix(4.9783333,0,0,4.9783333,677.875,329.875)"
   id="g452"><path
     d="M 3,6 V 6 C 1.3,6 0,4.7 0,3 V 0 H 6 V 3 C 6,4.7 4.7,6 3,6 Z"
     id="path450" /></g>
<g
   transform="matrix(4.9783333,0,0,4.9783333,764.875,329.875)"
   id="g456"><path
     d="M 6,6 H 3 C 1.3,6 0,4.7 0,3 V 0 h 6 z"
     id="path454" /></g>
<g
   transform="matrix(4.9783333,0,0,4.9783333,793.875,329.875)"
   id="g460"><rect
     width="6"
     height="6"
     id="rect458"
     x="0"
     y="0" /></g>
<g
   transform="matrix(4.9783333,0,0,4.9783333,822.875,329.875)"
   id="g464"><path
     d="M 3,6 H 0 V 0 H 3 C 4.7,0 6,1.3 6,3 V 3 C 6,4.7 4.7,6 3,6 Z"
     id="path462" /></g>
<g
   transform="matrix(4.9783333,0,0,4.9783333,909.875,329.875)"
   id="g468"><rect
     width="6"
     height="6"
     id="rect466"
     x="0"
     y="0" /></g>
<g
   transform="matrix(4.9783333,0,0,4.9783333,938.875,329.875)"
   id="g472"><rect
     width="6"
     height="6"
     id="rect470"
     x="0"
     y="0" /></g>
<g
   transform="matrix(4.9783333,0,0,4.9783333,39.875,358.875)"
   id="g476"><path
     d="M 6,6 H 3 C 1.3,6 0,4.7 0,3 V 0 h 6 z"
     id="path474" /></g>
<g
   transform="matrix(4.9783333,0,0,4.9783333,68.875,358.875)"
   id="g480"><path
     d="M 6,6 H 0 V 0 h 3 c 1.7,0 3,1.3 3,3 z"
     id="path478" /></g>
<g
   transform="matrix(4.9783333,0,0,4.9783333,155.875,358.875)"
   id="g484"><path
     d="M 6,6 H 0 V 3 C 0,1.3 1.3,0 3,0 h 3 z"
     id="path482" /></g>
<g
   transform="matrix(4.9783333,0,0,4.9783333,184.875,358.875)"
   id="g488"><path
     d="M 6,6 H 0 V 0 h 3 c 1.7,0 3,1.3 3,3 z"
     id="path486" /></g>
<g
   transform="matrix(4.9783333,0,0,4.9783333,242.875,358.875)"
   id="g492"><path
     d="M 3,6 V 6 C 1.3,6 0,4.7 0,3 V 0 H 6 V 3 C 6,4.7 4.7,6 3,6 Z"
     id="path490" /></g>
<g
   transform="matrix(4.9783333,0,0,4.9783333,300.875,358.875)"
   id="g496"><path
     d="M 6,6 H 3 C 1.3,6 0,4.7 0,3 V 0 h 6 z"
     id="path494" /></g>
<g
   transform="matrix(4.9783333,0,0,4.9783333,329.875,358.875)"
   id="g500"><rect
     width="6"
     height="6"
     id="rect498"
     x="0"
     y="0" /></g>
<g
   transform="matrix(4.9783333,0,0,4.9783333,358.875,358.875)"
   id="g504"><path
     d="M 3,6 H 0 V 0 H 6 V 3 C 6,4.7 4.7,6 3,6 Z"
     id="path502" /></g>
<g
   transform="matrix(4.9783333,0,0,4.9783333,416.875,358.875)"
   id="g508"><rect
     width="6"
     height="6"
     id="rect506"
     x="0"
     y="0" /></g>
<g
   transform="matrix(4.9783333,0,0,4.9783333,561.875,358.875)"
   id="g512"><path
     d="M 6,6 H 3 C 1.3,6 0,4.7 0,3 V 3 C 0,1.3 1.3,0 3,0 h 3 c 0,0 0,6 0,6 z"
     id="path510" /></g>
<g
   transform="matrix(4.9783333,0,0,4.9783333,590.875,358.875)"
   id="g516"><rect
     width="6"
     height="6"
     id="rect514"
     x="0"
     y="0" /></g>
<g
   transform="matrix(4.9783333,0,0,4.9783333,619.875,358.875)"
   id="g520"><rect
     width="6"
     height="6"
     id="rect518"
     x="0"
     y="0" /></g>
<g
   transform="matrix(4.9783333,0,0,4.9783333,706.875,358.875)"
   id="g524"><path
     d="M 6,6 H 0 V 3 C 0,1.3 1.3,0 3,0 v 0 c 1.7,0 3,1.3 3,3 z"
     id="path522" /></g>
<g
   transform="matrix(4.9783333,0,0,4.9783333,793.875,358.875)"
   id="g528"><path
     d="M 3,6 V 6 C 1.3,6 0,4.7 0,3 V 0 H 6 V 3 C 6,4.7 4.7,6 3,6 Z"
     id="path526" /></g>
<g
   transform="matrix(4.9783333,0,0,4.9783333,880.875,358.875)"
   id="g532"><path
     d="M 6,6 H 3 C 1.3,6 0,4.7 0,3 V 3 C 0,1.3 1.3,0 3,0 h 3 c 0,0 0,6 0,6 z"
     id="path530" /></g>
<g
   transform="matrix(4.9783333,0,0,4.9783333,909.875,358.875)"
   id="g536"><rect
     width="6"
     height="6"
     id="rect534"
     x="0"
     y="0" /></g>
<g
   transform="matrix(4.9783333,0,0,4.9783333,938.875,358.875)"
   id="g540"><rect
     width="6"
     height="6"
     id="rect538"
     x="0"
     y="0" /></g>
<g
   transform="matrix(4.9783333,0,0,4.9783333,68.875,387.875)"
   id="g544"><rect
     width="6"
     height="6"
     id="rect542"
     x="0"
     y="0" /></g>
<g
   transform="matrix(4.9783333,0,0,4.9783333,126.875,387.875)"
   id="g548"><path
     d="M 6,6 H 0 V 3 C 0,1.3 1.3,0 3,0 h 3 z"
     id="path546" /></g>
<g
   transform="matrix(4.9783333,0,0,4.9783333,155.875,387.875)"
   id="g552"><rect
     width="6"
     height="6"
     id="rect550"
     x="0"
     y="0" /></g>
<g
   transform="matrix(4.9783333,0,0,4.9783333,184.875,387.875)"
   id="g556"><rect
     width="6"
     height="6"
     id="rect554"
     x="0"
     y="0" /></g>
<g
   transform="matrix(4.9783333,0,0,4.9783333,213.875,387.875)"
   id="g560"><path
     d="M 3,6 H 0 V 0 H 3 C 4.7,0 6,1.3 6,3 V 3 C 6,4.7 4.7,6 3,6 Z"
     id="path558" /></g>
<g
   transform="matrix(4.9783333,0,0,4.9783333,271.875,387.875)"
   id="g564"><path
     d="M 6,6 H 0 V 3 C 0,1.3 1.3,0 3,0 v 0 c 1.7,0 3,1.3 3,3 z"
     id="path562" /></g>
<g
   transform="matrix(4.9783333,0,0,4.9783333,329.875,387.875)"
   id="g568"><rect
     width="6"
     height="6"
     id="rect566"
     x="0"
     y="0" /></g>
<g
   transform="matrix(4.9783333,0,0,4.9783333,416.875,387.875)"
   id="g572"><rect
     width="6"
     height="6"
     id="rect570"
     x="0"
     y="0" /></g>
<g
   transform="matrix(4.9783333,0,0,4.9783333,445.875,387.875)"
   id="g576"><path
     d="M 6,6 H 0 V 0 h 3 c 1.7,0 3,1.3 3,3 z"
     id="path574" /></g>
<g
   transform="matrix(4.9783333,0,0,4.9783333,503.875,387.875)"
   id="g580"><circle
     cx="3"
     cy="3"
     r="3"
     id="circle578" /></g>
<g
   transform="matrix(4.9783333,0,0,4.9783333,619.875,387.875)"
   id="g584"><path
     d="M 6,6 H 3 C 1.3,6 0,4.7 0,3 V 0 h 6 z"
     id="path582" /></g>
<g
   transform="matrix(4.9783333,0,0,4.9783333,648.875,387.875)"
   id="g588"><rect
     width="6"
     height="6"
     id="rect586"
     x="0"
     y="0" /></g>
<g
   transform="matrix(4.9783333,0,0,4.9783333,677.875,387.875)"
   id="g592"><rect
     width="6"
     height="6"
     id="rect590"
     x="0"
     y="0" /></g>
<g
   transform="matrix(4.9783333,0,0,4.9783333,706.875,387.875)"
   id="g596"><rect
     width="6"
     height="6"
     id="rect594"
     x="0"
     y="0" /></g>
<g
   transform="matrix(4.9783333,0,0,4.9783333,735.875,387.875)"
   id="g600"><rect
     width="6"
     height="6"
     id="rect598"
     x="0"
     y="0" /></g>
<g
   transform="matrix(4.9783333,0,0,4.9783333,764.875,387.875)"
   id="g604"><path
     d="M 3,6 H 0 V 0 H 3 C 4.7,0 6,1.3 6,3 V 3 C 6,4.7 4.7,6 3,6 Z"
     id="path602" /></g>
<g
   transform="matrix(4.9783333,0,0,4.9783333,822.875,387.875)"
   id="g608"><circle
     cx="3"
     cy="3"
     r="3"
     id="circle606" /></g>
<g
   transform="matrix(4.9783333,0,0,4.9783333,938.875,387.875)"
   id="g612"><path
     d="M 3,6 V 6 C 1.3,6 0,4.7 0,3 V 0 H 6 V 3 C 6,4.7 4.7,6 3,6 Z"
     id="path610" /></g>
<g
   transform="matrix(4.9783333,0,0,4.9783333,68.875,416.875)"
   id="g616"><path
     d="M 6,6 H 3 C 1.3,6 0,4.7 0,3 V 0 h 6 z"
     id="path614" /></g>
<g
   transform="matrix(4.9783333,0,0,4.9783333,97.875,416.875)"
   id="g620"><rect
     width="6"
     height="6"
     id="rect618"
     x="0"
     y="0" /></g>
<g
   transform="matrix(4.9783333,0,0,4.9783333,126.875,416.875)"
   id="g624"><path
     d="M 3,6 H 0 V 0 H 6 V 3 C 6,4.7 4.7,6 3,6 Z"
     id="path622" /></g>
<g
   transform="matrix(4.9783333,0,0,4.9783333,242.875,416.875)"
   id="g628"><path
     d="M 6,6 H 3 C 1.3,6 0,4.7 0,3 V 3 C 0,1.3 1.3,0 3,0 h 3 c 0,0 0,6 0,6 z"
     id="path626" /></g>
<g
   transform="matrix(4.9783333,0,0,4.9783333,271.875,416.875)"
   id="g632"><rect
     width="6"
     height="6"
     id="rect630"
     x="0"
     y="0" /></g>
<g
   transform="matrix(4.9783333,0,0,4.9783333,329.875,416.875)"
   id="g636"><rect
     width="6"
     height="6"
     id="rect634"
     x="0"
     y="0" /></g>
<g
   transform="matrix(4.9783333,0,0,4.9783333,358.875,416.875)"
   id="g640"><path
     d="M 3,6 H 0 V 0 H 3 C 4.7,0 6,1.3 6,3 V 3 C 6,4.7 4.7,6 3,6 Z"
     id="path638" /></g>
<g
   transform="matrix(4.9783333,0,0,4.9783333,416.875,416.875)"
   id="g644"><path
     d="M 6,6 H 3 C 1.3,6 0,4.7 0,3 V 0 h 6 z"
     id="path642" /></g>
<g
   transform="matrix(4.9783333,0,0,4.9783333,445.875,416.875)"
   id="g648"><path
     d="M 3,6 H 0 V 0 H 6 V 3 C 6,4.7 4.7,6 3,6 Z"
     id="path646" /></g>
<g
   transform="matrix(4.9783333,0,0,4.9783333,706.875,416.875)"
   id="g652"><path
     d="M 3,6 V 6 C 1.3,6 0,4.7 0,3 V 0 H 6 V 3 C 6,4.7 4.7,6 3,6 Z"
     id="path650" /></g>
<g
   transform="matrix(4.9783333,0,0,4.9783333,793.875,416.875)"
   id="g656"><path
     d="M 6,6 H 0 V 3 C 0,1.3 1.3,0 3,0 v 0 c 1.7,0 3,1.3 3,3 z"
     id="path654" /></g>
<g
   transform="matrix(4.9783333,0,0,4.9783333,851.875,416.875)"
   id="g660"><path
     d="M 6,6 H 0 V 3 C 0,1.3 1.3,0 3,0 v 0 c 1.7,0 3,1.3 3,3 z"
     id="path658" /></g>
<g
   transform="matrix(4.9783333,0,0,4.9783333,909.875,416.875)"
   id="g664"><circle
     cx="3"
     cy="3"
     r="3"
     id="circle662" /></g>
<g
   transform="matrix(4.9783333,0,0,4.9783333,967.875,416.875)"
   id="g668"><circle
     cx="3"
     cy="3"
     r="3"
     id="circle666" /></g>
<g
   transform="matrix(4.9783333,0,0,4.9783333,39.875,445.875)"
   id="g672"><path
     d="M 6,6 H 0 V 3 C 0,1.3 1.3,0 3,0 v 0 c 1.7,0 3,1.3 3,3 z"
     id="path670" /></g>
<g
   transform="matrix(4.9783333,0,0,4.9783333,184.875,445.875)"
   id="g676"><path
     d="M 6,6 H 0 V 3 C 0,1.3 1.3,0 3,0 h 3 z"
     id="path674" /></g>
<g
   transform="matrix(4.9783333,0,0,4.9783333,213.875,445.875)"
   id="g680"><path
     d="M 3,6 H 0 V 0 H 3 C 4.7,0 6,1.3 6,3 V 3 C 6,4.7 4.7,6 3,6 Z"
     id="path678" /></g>
<g
   transform="matrix(4.9783333,0,0,4.9783333,271.875,445.875)"
   id="g684"><rect
     width="6"
     height="6"
     id="rect682"
     x="0"
     y="0" /></g>
<g
   transform="matrix(4.9783333,0,0,4.9783333,300.875,445.875)"
   id="g688"><rect
     width="6"
     height="6"
     id="rect686"
     x="0"
     y="0" /></g>
<g
   transform="matrix(4.9783333,0,0,4.9783333,329.875,445.875)"
   id="g692"><rect
     width="6"
     height="6"
     id="rect690"
     x="0"
     y="0" /></g>
<g
   transform="matrix(4.9783333,0,0,4.9783333,387.875,445.875)"
   id="g696"><circle
     cx="3"
     cy="3"
     r="3"
     id="circle694" /></g>
<g
   transform="matrix(4.9783333,0,0,4.9783333,474.875,445.875)"
   id="g700"><circle
     cx="3"
     cy="3"
     r="3"
     id="circle698" /></g>
<g
   transform="matrix(4.9783333,0,0,4.9783333,619.875,445.875)"
   id="g704"><circle
     cx="3"
     cy="3"
     r="3"
     id="circle702" /></g>
<g
   transform="matrix(4.9783333,0,0,4.9783333,677.875,445.875)"
   id="g708"><path
     d="M 6,6 H 0 V 3 C 0,1.3 1.3,0 3,0 v 0 c 1.7,0 3,1.3 3,3 z"
     id="path706" /></g>
<g
   transform="matrix(4.9783333,0,0,4.9783333,764.875,445.875)"
   id="g712"><path
     d="M 6,6 H 0 V 3 C 0,1.3 1.3,0 3,0 h 3 z"
     id="path710" /></g>
<g
   transform="matrix(4.9783333,0,0,4.9783333,793.875,445.875)"
   id="g716"><rect
     width="6"
     height="6"
     id="rect714"
     x="0"
     y="0" /></g>
<g
   transform="matrix(4.9783333,0,0,4.9783333,822.875,445.875)"
   id="g720"><rect
     width="6"
     height="6"
     id="rect718"
     x="0"
     y="0" /></g>
<g
   transform="matrix(4.9783333,0,0,4.9783333,851.875,445.875)"
   id="g724"><rect
     width="6"
     height="6"
     id="rect722"
     x="0"
     y="0" /></g>
<g
   transform="matrix(4.9783333,0,0,4.9783333,880.875,445.875)"
   id="g728"><path
     d="M 6,6 H 0 V 0 h 3 c 1.7,0 3,1.3 3,3 z"
     id="path726" /></g>
<g
   transform="matrix(4.9783333,0,0,4.9783333,938.875,445.875)"
   id="g732"><circle
     cx="3"
     cy="3"
     r="3"
     id="circle730" /></g>
<g
   transform="matrix(4.9783333,0,0,4.9783333,39.875,474.875)"
   id="g736"><rect
     width="6"
     height="6"
     id="rect734"
     x="0"
     y="0" /></g>
<g
   transform="matrix(4.9783333,0,0,4.9783333,68.875,474.875)"
   id="g740"><rect
     width="6"
     height="6"
     id="rect738"
     x="0"
     y="0" /></g>
<g
   transform="matrix(4.9783333,0,0,4.9783333,97.875,474.875)"
   id="g744"><path
     d="M 3,6 H 0 V 0 H 3 C 4.7,0 6,1.3 6,3 V 3 C 6,4.7 4.7,6 3,6 Z"
     id="path742" /></g>
<g
   transform="matrix(4.9783333,0,0,4.9783333,155.875,474.875)"
   id="g748"><path
     d="M 6,6 H 0 V 3 C 0,1.3 1.3,0 3,0 h 3 z"
     id="path746" /></g>
<g
   transform="matrix(4.9783333,0,0,4.9783333,184.875,474.875)"
   id="g752"><path
     d="M 3,6 H 0 V 0 H 6 V 3 C 6,4.7 4.7,6 3,6 Z"
     id="path750" /></g>
<g
   transform="matrix(4.9783333,0,0,4.9783333,271.875,474.875)"
   id="g756"><path
     d="M 3,6 V 6 C 1.3,6 0,4.7 0,3 V 0 H 6 V 3 C 6,4.7 4.7,6 3,6 Z"
     id="path754" /></g>
<g
   transform="matrix(4.9783333,0,0,4.9783333,329.875,474.875)"
   id="g760"><path
     d="M 3,6 V 6 C 1.3,6 0,4.7 0,3 V 0 H 6 V 3 C 6,4.7 4.7,6 3,6 Z"
     id="path758" /></g>
<g
   transform="matrix(4.9783333,0,0,4.9783333,590.875,474.875)"
   id="g764"><path
     d="M 6,6 H 0 V 3 C 0,1.3 1.3,0 3,0 v 0 c 1.7,0 3,1.3 3,3 z"
     id="path762" /></g>
<g
   transform="matrix(4.9783333,0,0,4.9783333,648.875,474.875)"
   id="g768"><path
     d="M 6,6 H 3 C 1.3,6 0,4.7 0,3 V 3 C 0,1.3 1.3,0 3,0 h 3 c 0,0 0,6 0,6 z"
     id="path766" /></g>
<g
   transform="matrix(4.9783333,0,0,4.9783333,677.875,474.875)"
   id="g772"><path
     d="M 3,6 H 0 V 0 H 6 V 3 C 6,4.7 4.7,6 3,6 Z"
     id="path770" /></g>
<g
   transform="matrix(4.9783333,0,0,4.9783333,764.875,474.875)"
   id="g776"><rect
     width="6"
     height="6"
     id="rect774"
     x="0"
     y="0" /></g>
<g
   transform="matrix(4.9783333,0,0,4.9783333,793.875,474.875)"
   id="g780"><path
     d="M 3,6 H 0 V 0 H 6 V 3 C 6,4.7 4.7,6 3,6 Z"
     id="path778" /></g>
<g
   transform="matrix(4.9783333,0,0,4.9783333,851.875,474.875)"
   id="g784"><rect
     width="6"
     height="6"
     id="rect782"
     x="0"
     y="0" /></g>
<g
   transform="matrix(4.9783333,0,0,4.9783333,880.875,474.875)"
   id="g788"><rect
     width="6"
     height="6"
     id="rect786"
     x="0"
     y="0" /></g>
<g
   transform="matrix(4.9783333,0,0,4.9783333,909.875,474.875)"
   id="g792"><path
     d="M 3,6 H 0 V 0 H 3 C 4.7,0 6,1.3 6,3 V 3 C 6,4.7 4.7,6 3,6 Z"
     id="path790" /></g>
<g
   transform="matrix(4.9783333,0,0,4.9783333,39.875,503.875)"
   id="g796"><rect
     width="6"
     height="6"
     id="rect794"
     x="0"
     y="0" /></g>
<g
   transform="matrix(4.9783333,0,0,4.9783333,126.875,503.875)"
   id="g800"><path
     d="M 6,6 H 3 C 1.3,6 0,4.7 0,3 V 3 C 0,1.3 1.3,0 3,0 h 3 c 0,0 0,6 0,6 z"
     id="path798" /></g>
<g
   transform="matrix(4.9783333,0,0,4.9783333,155.875,503.875)"
   id="g804"><path
     d="M 3,6 H 0 V 0 H 6 V 3 C 6,4.7 4.7,6 3,6 Z"
     id="path802" /></g>
<g
   transform="matrix(4.9783333,0,0,4.9783333,213.875,503.875)"
   id="g808"><circle
     cx="3"
     cy="3"
     r="3"
     id="circle806" /></g>
<g
   transform="matrix(4.9783333,0,0,4.9783333,300.875,503.875)"
   id="g812"><circle
     cx="3"
     cy="3"
     r="3"
     id="circle810" /></g>
<g
   transform="matrix(4.9783333,0,0,4.9783333,445.875,503.875)"
   id="g816"><path
     d="M 6,6 H 3 C 1.3,6 0,4.7 0,3 V 3 C 0,1.3 1.3,0 3,0 h 3 c 0,0 0,6 0,6 z"
     id="path814" /></g>
<g
   transform="matrix(4.9783333,0,0,4.9783333,474.875,503.875)"
   id="g820"><path
     d="M 3,6 H 0 V 0 H 3 C 4.7,0 6,1.3 6,3 V 3 C 6,4.7 4.7,6 3,6 Z"
     id="path818" /></g>
<g
   transform="matrix(4.9783333,0,0,4.9783333,532.875,503.875)"
   id="g824"><circle
     cx="3"
     cy="3"
     r="3"
     id="circle822" /></g>
<g
   transform="matrix(4.9783333,0,0,4.9783333,590.875,503.875)"
   id="g828"><rect
     width="6"
     height="6"
     id="rect826"
     x="0"
     y="0" /></g>
<g
   transform="matrix(4.9783333,0,0,4.9783333,764.875,503.875)"
   id="g832"><path
     d="M 3,6 V 6 C 1.3,6 0,4.7 0,3 V 0 H 6 V 3 C 6,4.7 4.7,6 3,6 Z"
     id="path830" /></g>
<g
   transform="matrix(4.9783333,0,0,4.9783333,822.875,503.875)"
   id="g836"><path
     d="M 6,6 H 0 V 3 C 0,1.3 1.3,0 3,0 h 3 z"
     id="path834" /></g>
<g
   transform="matrix(4.9783333,0,0,4.9783333,851.875,503.875)"
   id="g840"><rect
     width="6"
     height="6"
     id="rect838"
     x="0"
     y="0" /></g>
<g
   transform="matrix(4.9783333,0,0,4.9783333,880.875,503.875)"
   id="g844"><path
     d="M 3,6 H 0 V 0 H 6 V 3 C 6,4.7 4.7,6 3,6 Z"
     id="path842" /></g>
<g
   transform="matrix(4.9783333,0,0,4.9783333,938.875,503.875)"
   id="g848"><path
     d="M 6,6 H 3 C 1.3,6 0,4.7 0,3 V 3 C 0,1.3 1.3,0 3,0 h 3 c 0,0 0,6 0,6 z"
     id="path846" /></g>
<g
   transform="matrix(4.9783333,0,0,4.9783333,967.875,503.875)"
   id="g852"><path
     d="M 6,6 H 0 V 0 h 3 c 1.7,0 3,1.3 3,3 z"
     id="path850" /></g>
<g
   transform="matrix(4.9783333,0,0,4.9783333,39.875,532.875)"
   id="g856"><path
     d="M 3,6 V 6 C 1.3,6 0,4.7 0,3 V 0 H 6 V 3 C 6,4.7 4.7,6 3,6 Z"
     id="path854" /></g>
<g
   transform="matrix(4.9783333,0,0,4.9783333,97.875,532.875)"
   id="g860"><circle
     cx="3"
     cy="3"
     r="3"
     id="circle858" /></g>
<g
   transform="matrix(4.9783333,0,0,4.9783333,358.875,532.875)"
   id="g864"><path
     d="M 6,6 H 3 C 1.3,6 0,4.7 0,3 V 3 C 0,1.3 1.3,0 3,0 h 3 c 0,0 0,6 0,6 z"
     id="path862" /></g>
<g
   transform="matrix(4.9783333,0,0,4.9783333,387.875,532.875)"
   id="g868"><rect
     width="6"
     height="6"
     id="rect866"
     x="0"
     y="0" /></g>
<g
   transform="matrix(4.9783333,0,0,4.9783333,416.875,532.875)"
   id="g872"><path
     d="M 6,6 H 0 V 0 h 3 c 1.7,0 3,1.3 3,3 z"
     id="path870" /></g>
<g
   transform="matrix(4.9783333,0,0,4.9783333,590.875,532.875)"
   id="g876"><rect
     width="6"
     height="6"
     id="rect874"
     x="0"
     y="0" /></g>
<g
   transform="matrix(4.9783333,0,0,4.9783333,619.875,532.875)"
   id="g880"><rect
     width="6"
     height="6"
     id="rect878"
     x="0"
     y="0" /></g>
<g
   transform="matrix(4.9783333,0,0,4.9783333,648.875,532.875)"
   id="g884"><path
     d="M 6,6 H 0 V 0 h 3 c 1.7,0 3,1.3 3,3 z"
     id="path882" /></g>
<g
   transform="matrix(4.9783333,0,0,4.9783333,706.875,532.875)"
   id="g888"><path
     d="M 6,6 H 3 C 1.3,6 0,4.7 0,3 V 3 C 0,1.3 1.3,0 3,0 h 3 c 0,0 0,6 0,6 z"
     id="path886" /></g>
<g
   transform="matrix(4.9783333,0,0,4.9783333,735.875,532.875)"
   id="g892"><path
     d="M 3,6 H 0 V 0 H 3 C 4.7,0 6,1.3 6,3 V 3 C 6,4.7 4.7,6 3,6 Z"
     id="path890" /></g>
<g
   transform="matrix(4.9783333,0,0,4.9783333,793.875,532.875)"
   id="g896"><path
     d="M 6,6 H 3 C 1.3,6 0,4.7 0,3 V 3 C 0,1.3 1.3,0 3,0 h 3 c 0,0 0,6 0,6 z"
     id="path894" /></g>
<g
   transform="matrix(4.9783333,0,0,4.9783333,822.875,532.875)"
   id="g900"><rect
     width="6"
     height="6"
     id="rect898"
     x="0"
     y="0" /></g>
<g
   transform="matrix(4.9783333,0,0,4.9783333,967.875,532.875)"
   id="g904"><path
     d="M 3,6 V 6 C 1.3,6 0,4.7 0,3 V 0 H 6 V 3 C 6,4.7 4.7,6 3,6 Z"
     id="path902" /></g>
<g
   transform="matrix(4.9783333,0,0,4.9783333,68.875,561.875)"
   id="g908"><circle
     cx="3"
     cy="3"
     r="3"
     id="circle906" /></g>
<g
   transform="matrix(4.9783333,0,0,4.9783333,155.875,561.875)"
   id="g912"><path
     d="M 6,6 H 3 C 1.3,6 0,4.7 0,3 V 3 C 0,1.3 1.3,0 3,0 h 3 c 0,0 0,6 0,6 z"
     id="path910" /></g>
<g
   transform="matrix(4.9783333,0,0,4.9783333,184.875,561.875)"
   id="g916"><rect
     width="6"
     height="6"
     id="rect914"
     x="0"
     y="0" /></g>
<g
   transform="matrix(4.9783333,0,0,4.9783333,213.875,561.875)"
   id="g920"><rect
     width="6"
     height="6"
     id="rect918"
     x="0"
     y="0" /></g>
<g
   transform="matrix(4.9783333,0,0,4.9783333,242.875,561.875)"
   id="g924"><rect
     width="6"
     height="6"
     id="rect922"
     x="0"
     y="0" /></g>
<g
   transform="matrix(4.9783333,0,0,4.9783333,271.875,561.875)"
   id="g928"><rect
     width="6"
     height="6"
     id="rect926"
     x="0"
     y="0" /></g>
<g
   transform="matrix(4.9783333,0,0,4.9783333,300.875,561.875)"
   id="g932"><rect
     width="6"
     height="6"
     id="rect930"
     x="0"
     y="0" /></g>
<g
   transform="matrix(4.9783333,0,0,4.9783333,329.875,561.875)"
   id="g936"><path
     d="M 6,6 H 0 V 0 h 3 c 1.7,0 3,1.3 3,3 z"
     id="path934" /></g>
<g
   transform="matrix(4.9783333,0,0,4.9783333,416.875,561.875)"
   id="g940"><rect
     width="6"
     height="6"
     id="rect938"
     x="0"
     y="0" /></g>
<g
   transform="matrix(4.9783333,0,0,4.9783333,445.875,561.875)"
   id="g944"><path
     d="M 3,6 H 0 V 0 H 3 C 4.7,0 6,1.3 6,3 V 3 C 6,4.7 4.7,6 3,6 Z"
     id="path942" /></g>
<g
   transform="matrix(4.9783333,0,0,4.9783333,590.875,561.875)"
   id="g948"><path
     d="M 6,6 H 3 C 1.3,6 0,4.7 0,3 V 0 h 6 z"
     id="path946" /></g>
<g
   transform="matrix(4.9783333,0,0,4.9783333,619.875,561.875)"
   id="g952"><rect
     width="6"
     height="6"
     id="rect950"
     x="0"
     y="0" /></g>
<g
   transform="matrix(4.9783333,0,0,4.9783333,648.875,561.875)"
   id="g956"><rect
     width="6"
     height="6"
     id="rect954"
     x="0"
     y="0" /></g>
<g
   transform="matrix(4.9783333,0,0,4.9783333,677.875,561.875)"
   id="g960"><path
     d="M 6,6 H 0 V 0 h 3 c 1.7,0 3,1.3 3,3 z"
     id="path958" /></g>
<g
   transform="matrix(4.9783333,0,0,4.9783333,822.875,561.875)"
   id="g964"><path
     d="M 6,6 H 3 C 1.3,6 0,4.7 0,3 V 0 h 6 z"
     id="path962" /></g>
<g
   transform="matrix(4.9783333,0,0,4.9783333,851.875,561.875)"
   id="g968"><path
     d="M 3,6 H 0 V 0 H 3 C 4.7,0 6,1.3 6,3 V 3 C 6,4.7 4.7,6 3,6 Z"
     id="path966" /></g>
<g
   transform="matrix(4.9783333,0,0,4.9783333,909.875,561.875)"
   id="g972"><path
     d="M 6,6 H 0 V 3 C 0,1.3 1.3,0 3,0 h 3 z"
     id="path970" /></g>
<g
   transform="matrix(4.9783333,0,0,4.9783333,938.875,561.875)"
   id="g976"><path
     d="M 6,6 H 0 V 0 h 3 c 1.7,0 3,1.3 3,3 z"
     id="path974" /></g>
<g
   transform="matrix(4.9783333,0,0,4.9783333,126.875,590.875)"
   id="g980"><path
     d="M 6,6 H 0 V 3 C 0,1.3 1.3,0 3,0 v 0 c 1.7,0 3,1.3 3,3 z"
     id="path978" /></g>
<g
   transform="matrix(4.9783333,0,0,4.9783333,271.875,590.875)"
   id="g984"><path
     d="M 3,6 V 6 C 1.3,6 0,4.7 0,3 V 0 H 6 V 3 C 6,4.7 4.7,6 3,6 Z"
     id="path982" /></g>
<g
   transform="matrix(4.9783333,0,0,4.9783333,329.875,590.875)"
   id="g988"><path
     d="M 6,6 H 3 C 1.3,6 0,4.7 0,3 V 0 h 6 z"
     id="path986" /></g>
<g
   transform="matrix(4.9783333,0,0,4.9783333,358.875,590.875)"
   id="g992"><rect
     width="6"
     height="6"
     id="rect990"
     x="0"
     y="0" /></g>
<g
   transform="matrix(4.9783333,0,0,4.9783333,387.875,590.875)"
   id="g996"><rect
     width="6"
     height="6"
     id="rect994"
     x="0"
     y="0" /></g>
<g
   transform="matrix(4.9783333,0,0,4.9783333,416.875,590.875)"
   id="g1000"><rect
     width="6"
     height="6"
     id="rect998"
     x="0"
     y="0" /></g>
<g
   transform="matrix(4.9783333,0,0,4.9783333,532.875,590.875)"
   id="g1004"><circle
     cx="3"
     cy="3"
     r="3"
     id="circle1002" /></g>
<g
   transform="matrix(4.9783333,0,0,4.9783333,648.875,590.875)"
   id="g1008"><path
     d="M 6,6 H 3 C 1.3,6 0,4.7 0,3 V 0 h 6 z"
     id="path1006" /></g>
<g
   transform="matrix(4.9783333,0,0,4.9783333,677.875,590.875)"
   id="g1012"><rect
     width="6"
     height="6"
     id="rect1010"
     x="0"
     y="0" /></g>
<g
   transform="matrix(4.9783333,0,0,4.9783333,706.875,590.875)"
   id="g1016"><rect
     width="6"
     height="6"
     id="rect1014"
     x="0"
     y="0" /></g>
<g
   transform="matrix(4.9783333,0,0,4.9783333,735.875,590.875)"
   id="g1020"><rect
     width="6"
     height="6"
     id="rect1018"
     x="0"
     y="0" /></g>
<g
   transform="matrix(4.9783333,0,0,4.9783333,764.875,590.875)"
   id="g1024"><path
     d="M 3,6 H 0 V 0 H 3 C 4.7,0 6,1.3 6,3 V 3 C 6,4.7 4.7,6 3,6 Z"
     id="path1022" /></g>
<g
   transform="matrix(4.9783333,0,0,4.9783333,880.875,590.875)"
   id="g1028"><path
     d="M 6,6 H 0 V 3 C 0,1.3 1.3,0 3,0 h 3 z"
     id="path1026" /></g>
<g
   transform="matrix(4.9783333,0,0,4.9783333,909.875,590.875)"
   id="g1032"><rect
     width="6"
     height="6"
     id="rect1030"
     x="0"
     y="0" /></g>
<g
   transform="matrix(4.9783333,0,0,4.9783333,938.875,590.875)"
   id="g1036"><path
     d="M 3,6 H 0 V 0 H 6 V 3 C 6,4.7 4.7,6 3,6 Z"
     id="path1034" /></g>
<g
   transform="matrix(4.9783333,0,0,4.9783333,97.875,619.875)"
   id="g1040"><path
     d="M 6,6 H 0 V 3 C 0,1.3 1.3,0 3,0 h 3 z"
     id="path1038" /></g>
<g
   transform="matrix(4.9783333,0,0,4.9783333,126.875,619.875)"
   id="g1044"><rect
     width="6"
     height="6"
     id="rect1042"
     x="0"
     y="0" /></g>
<g
   transform="matrix(4.9783333,0,0,4.9783333,213.875,619.875)"
   id="g1048"><path
     d="M 6,6 H 3 C 1.3,6 0,4.7 0,3 V 3 C 0,1.3 1.3,0 3,0 h 3 c 0,0 0,6 0,6 z"
     id="path1046" /></g>
<g
   transform="matrix(4.9783333,0,0,4.9783333,242.875,619.875)"
   id="g1052"><path
     d="M 3,6 H 0 V 0 H 3 C 4.7,0 6,1.3 6,3 V 3 C 6,4.7 4.7,6 3,6 Z"
     id="path1050" /></g>
<g
   transform="matrix(4.9783333,0,0,4.9783333,300.875,619.875)"
   id="g1056"><path
     d="M 6,6 H 0 V 3 C 0,1.3 1.3,0 3,0 v 0 c 1.7,0 3,1.3 3,3 z"
     id="path1054" /></g>
<g
   transform="matrix(4.9783333,0,0,4.9783333,358.875,619.875)"
   id="g1060"><path
     d="M 3,6 V 6 C 1.3,6 0,4.7 0,3 V 0 H 6 V 3 C 6,4.7 4.7,6 3,6 Z"
     id="path1058" /></g>
<g
   transform="matrix(4.9783333,0,0,4.9783333,416.875,619.875)"
   id="g1064"><path
     d="M 6,6 H 3 C 1.3,6 0,4.7 0,3 V 0 h 6 z"
     id="path1062" /></g>
<g
   transform="matrix(4.9783333,0,0,4.9783333,445.875,619.875)"
   id="g1068"><path
     d="M 6,6 H 0 V 0 h 3 c 1.7,0 3,1.3 3,3 z"
     id="path1066" /></g>
<g
   transform="matrix(4.9783333,0,0,4.9783333,503.875,619.875)"
   id="g1072"><circle
     cx="3"
     cy="3"
     r="3"
     id="circle1070" /></g>
<g
   transform="matrix(4.9783333,0,0,4.9783333,590.875,619.875)"
   id="g1076"><circle
     cx="3"
     cy="3"
     r="3"
     id="circle1074" /></g>
<g
   transform="matrix(4.9783333,0,0,4.9783333,735.875,619.875)"
   id="g1080"><path
     d="M 3,6 V 6 C 1.3,6 0,4.7 0,3 V 0 H 6 V 3 C 6,4.7 4.7,6 3,6 Z"
     id="path1078" /></g>
<g
   transform="matrix(4.9783333,0,0,4.9783333,822.875,619.875)"
   id="g1084"><path
     d="M 6,6 H 3 C 1.3,6 0,4.7 0,3 V 3 C 0,1.3 1.3,0 3,0 h 3 c 0,0 0,6 0,6 z"
     id="path1082" /></g>
<g
   transform="matrix(4.9783333,0,0,4.9783333,851.875,619.875)"
   id="g1088"><rect
     width="6"
     height="6"
     id="rect1086"
     x="0"
     y="0" /></g>
<g
   transform="matrix(4.9783333,0,0,4.9783333,880.875,619.875)"
   id="g1092"><rect
     width="6"
     height="6"
     id="rect1090"
     x="0"
     y="0" /></g>
<g
   transform="matrix(4.9783333,0,0,4.9783333,39.875,648.875)"
   id="g1096"><path
     d="M 6,6 H 0 V 3 C 0,1.3 1.3,0 3,0 v 0 c 1.7,0 3,1.3 3,3 z"
     id="path1094" /></g>
<g
   transform="matrix(4.9783333,0,0,4.9783333,97.875,648.875)"
   id="g1100"><rect
     width="6"
     height="6"
     id="rect1098"
     x="0"
     y="0" /></g>
<g
   transform="matrix(4.9783333,0,0,4.9783333,126.875,648.875)"
   id="g1104"><rect
     width="6"
     height="6"
     id="rect1102"
     x="0"
     y="0" /></g>
<g
   transform="matrix(4.9783333,0,0,4.9783333,155.875,648.875)"
   id="g1108"><rect
     width="6"
     height="6"
     id="rect1106"
     x="0"
     y="0" /></g>
<g
   transform="matrix(4.9783333,0,0,4.9783333,184.875,648.875)"
   id="g1112"><path
     d="M 3,6 H 0 V 0 H 3 C 4.7,0 6,1.3 6,3 V 3 C 6,4.7 4.7,6 3,6 Z"
     id="path1110" /></g>
<g
   transform="matrix(4.9783333,0,0,4.9783333,300.875,648.875)"
   id="g1116"><path
     d="M 6,6 H 3 C 1.3,6 0,4.7 0,3 V 0 h 6 z"
     id="path1114" /></g>
<g
   transform="matrix(4.9783333,0,0,4.9783333,329.875,648.875)"
   id="g1120"><path
     d="M 3,6 H 0 V 0 H 3 C 4.7,0 6,1.3 6,3 V 3 C 6,4.7 4.7,6 3,6 Z"
     id="path1118" /></g>
<g
   transform="matrix(4.9783333,0,0,4.9783333,387.875,648.875)"
   id="g1124"><circle
     cx="3"
     cy="3"
     r="3"
     id="circle1122" /></g>
<g
   transform="matrix(4.9783333,0,0,4.9783333,445.875,648.875)"
   id="g1128"><path
     d="M 3,6 V 6 C 1.3,6 0,4.7 0,3 V 0 H 6 V 3 C 6,4.7 4.7,6 3,6 Z"
     id="path1126" /></g>
<g
   transform="matrix(4.9783333,0,0,4.9783333,532.875,648.875)"
   id="g1132"><circle
     cx="3"
     cy="3"
     r="3"
     id="circle1130" /></g>
<g
   transform="matrix(4.9783333,0,0,4.9783333,648.875,648.875)"
   id="g1136"><path
     d="M 6,6 H 0 V 3 C 0,1.3 1.3,0 3,0 v 0 c 1.7,0 3,1.3 3,3 z"
     id="path1134" /></g>
<g
   transform="matrix(4.9783333,0,0,4.9783333,764.875,648.875)"
   id="g1140"><circle
     cx="3"
     cy="3"
     r="3"
     id="circle1138" /></g>
<g
   transform="matrix(4.9783333,0,0,4.9783333,880.875,648.875)"
   id="g1144"><path
     d="M 6,6 H 3 C 1.3,6 0,4.7 0,3 V 0 h 6 z"
     id="path1142" /></g>
<g
   transform="matrix(4.9783333,0,0,4.9783333,909.875,648.875)"
   id="g1148"><path
     d="M 6,6 H 0 V 0 h 3 c 1.7,0 3,1.3 3,3 z"
     id="path1146" /></g>
<g
   transform="matrix(4.9783333,0,0,4.9783333,967.875,648.875)"
   id="g1152"><circle
     cx="3"
     cy="3"
     r="3"
     id="circle1150" /></g>
<g
   transform="matrix(4.9783333,0,0,4.9783333,39.875,677.875)"
   id="g1156"><rect
     width="6"
     height="6"
     id="rect1154"
     x="0"
     y="0" /></g>
<g
   transform="matrix(4.9783333,0,0,4.9783333,97.875,677.875)"
   id="g1160"><rect
     width="6"
     height="6"
     id="rect1158"
     x="0"
     y="0" /></g>
<g
   transform="matrix(4.9783333,0,0,4.9783333,126.875,677.875)"
   id="g1164"><rect
     width="6"
     height="6"
     id="rect1162"
     x="0"
     y="0" /></g>
<g
   transform="matrix(4.9783333,0,0,4.9783333,213.875,677.875)"
   id="g1168"><path
     d="M 6,6 H 3 C 1.3,6 0,4.7 0,3 V 3 C 0,1.3 1.3,0 3,0 h 3 c 0,0 0,6 0,6 z"
     id="path1166" /></g>
<g
   transform="matrix(4.9783333,0,0,4.9783333,242.875,677.875)"
   id="g1172"><rect
     width="6"
     height="6"
     id="rect1170"
     x="0"
     y="0" /></g>
<g
   transform="matrix(4.9783333,0,0,4.9783333,271.875,677.875)"
   id="g1176"><path
     d="M 6,6 H 0 V 0 h 3 c 1.7,0 3,1.3 3,3 z"
     id="path1174" /></g>
<g
   transform="matrix(4.9783333,0,0,4.9783333,561.875,677.875)"
   id="g1180"><path
     d="M 6,6 H 0 V 3 C 0,1.3 1.3,0 3,0 v 0 c 1.7,0 3,1.3 3,3 z"
     id="path1178" /></g>
<g
   transform="matrix(4.9783333,0,0,4.9783333,648.875,677.875)"
   id="g1184"><rect
     width="6"
     height="6"
     id="rect1182"
     x="0"
     y="0" /></g>
<g
   transform="matrix(4.9783333,0,0,4.9783333,677.875,677.875)"
   id="g1188"><rect
     width="6"
     height="6"
     id="rect1186"
     x="0"
     y="0" /></g>
<g
   transform="matrix(4.9783333,0,0,4.9783333,706.875,677.875)"
   id="g1192"><rect
     width="6"
     height="6"
     id="rect1190"
     x="0"
     y="0" /></g>
<g
   transform="matrix(4.9783333,0,0,4.9783333,735.875,677.875)"
   id="g1196"><path
     d="M 3,6 H 0 V 0 H 3 C 4.7,0 6,1.3 6,3 V 3 C 6,4.7 4.7,6 3,6 Z"
     id="path1194" /></g>
<g
   transform="matrix(4.9783333,0,0,4.9783333,909.875,677.875)"
   id="g1200"><rect
     width="6"
     height="6"
     id="rect1198"
     x="0"
     y="0" /></g>
<g
   transform="matrix(4.9783333,0,0,4.9783333,938.875,677.875)"
   id="g1204"><path
     d="M 3,6 H 0 V 0 H 3 C 4.7,0 6,1.3 6,3 V 3 C 6,4.7 4.7,6 3,6 Z"
     id="path1202" /></g>
<g
   transform="matrix(4.9783333,0,0,4.9783333,39.875,706.875)"
   id="g1208"><rect
     width="6"
     height="6"
     id="rect1206"
     x="0"
     y="0" /></g>
<g
   transform="matrix(4.9783333,0,0,4.9783333,97.875,706.875)"
   id="g1212"><path
     d="M 6,6 H 3 C 1.3,6 0,4.7 0,3 V 0 h 6 z"
     id="path1210" /></g>
<g
   transform="matrix(4.9783333,0,0,4.9783333,126.875,706.875)"
   id="g1216"><rect
     width="6"
     height="6"
     id="rect1214"
     x="0"
     y="0" /></g>
<g
   transform="matrix(4.9783333,0,0,4.9783333,271.875,706.875)"
   id="g1220"><path
     d="M 3,6 V 6 C 1.3,6 0,4.7 0,3 V 0 H 6 V 3 C 6,4.7 4.7,6 3,6 Z"
     id="path1218" /></g>
<g
   transform="matrix(4.9783333,0,0,4.9783333,358.875,706.875)"
   id="g1224"><circle
     cx="3"
     cy="3"
     r="3"
     id="circle1222" /></g>
<g
   transform="matrix(4.9783333,0,0,4.9783333,416.875,706.875)"
   id="g1228"><path
     d="M 6,6 H 0 V 3 C 0,1.3 1.3,0 3,0 v 0 c 1.7,0 3,1.3 3,3 z"
     id="path1226" /></g>
<g
   transform="matrix(4.9783333,0,0,4.9783333,503.875,706.875)"
   id="g1232"><path
     d="M 6,6 H 0 V 3 C 0,1.3 1.3,0 3,0 v 0 c 1.7,0 3,1.3 3,3 z"
     id="path1230" /></g>
<g
   transform="matrix(4.9783333,0,0,4.9783333,561.875,706.875)"
   id="g1236"><rect
     width="6"
     height="6"
     id="rect1234"
     x="0"
     y="0" /></g>
<g
   transform="matrix(4.9783333,0,0,4.9783333,590.875,706.875)"
   id="g1240"><path
     d="M 6,6 H 0 V 0 h 3 c 1.7,0 3,1.3 3,3 z"
     id="path1238" /></g>
<g
   transform="matrix(4.9783333,0,0,4.9783333,648.875,706.875)"
   id="g1244"><path
     d="M 3,6 V 6 C 1.3,6 0,4.7 0,3 V 0 H 6 V 3 C 6,4.7 4.7,6 3,6 Z"
     id="path1242" /></g>
<g
   transform="matrix(4.9783333,0,0,4.9783333,706.875,706.875)"
   id="g1248"><rect
     width="6"
     height="6"
     id="rect1246"
     x="0"
     y="0" /></g>
<g
   transform="matrix(4.9783333,0,0,4.9783333,822.875,706.875)"
   id="g1252"><path
     d="M 6,6 H 0 V 3 C 0,1.3 1.3,0 3,0 h 3 z"
     id="path1250" /></g>
<g
   transform="matrix(4.9783333,0,0,4.9783333,851.875,706.875)"
   id="g1256"><rect
     width="6"
     height="6"
     id="rect1254"
     x="0"
     y="0" /></g>
<g
   transform="matrix(4.9783333,0,0,4.9783333,880.875,706.875)"
   id="g1260"><rect
     width="6"
     height="6"
     id="rect1258"
     x="0"
     y="0" /></g>
<g
   transform="matrix(4.9783333,0,0,4.9783333,909.875,706.875)"
   id="g1264"><path
     d="M 3,6 H 0 V 0 H 6 V 3 C 6,4.7 4.7,6 3,6 Z"
     id="path1262" /></g>
<g
   transform="matrix(4.9783333,0,0,4.9783333,967.875,706.875)"
   id="g1268"><path
     d="M 6,6 H 0 V 3 C 0,1.3 1.3,0 3,0 v 0 c 1.7,0 3,1.3 3,3 z"
     id="path1266" /></g>
<g
   transform="matrix(4.9783333,0,0,4.9783333,39.875,735.875)"
   id="g1272"><path
     d="M 3,6 V 6 C 1.3,6 0,4.7 0,3 V 0 H 6 V 3 C 6,4.7 4.7,6 3,6 Z"
     id="path1270" /></g>
<g
   transform="matrix(4.9783333,0,0,4.9783333,126.875,735.875)"
   id="g1276"><path
     d="M 3,6 V 6 C 1.3,6 0,4.7 0,3 V 0 H 6 V 3 C 6,4.7 4.7,6 3,6 Z"
     id="path1274" /></g>
<g
   transform="matrix(4.9783333,0,0,4.9783333,213.875,735.875)"
   id="g1280"><path
     d="M 6,6 H 3 C 1.3,6 0,4.7 0,3 V 3 C 0,1.3 1.3,0 3,0 h 3 c 0,0 0,6 0,6 z"
     id="path1278" /></g>
<g
   transform="matrix(4.9783333,0,0,4.9783333,242.875,735.875)"
   id="g1284"><path
     d="M 3,6 H 0 V 0 H 3 C 4.7,0 6,1.3 6,3 V 3 C 6,4.7 4.7,6 3,6 Z"
     id="path1282" /></g>
<g
   transform="matrix(4.9783333,0,0,4.9783333,387.875,735.875)"
   id="g1288"><path
     d="M 6,6 H 3 C 1.3,6 0,4.7 0,3 V 3 C 0,1.3 1.3,0 3,0 h 3 c 0,0 0,6 0,6 z"
     id="path1286" /></g>
<g
   transform="matrix(4.9783333,0,0,4.9783333,416.875,735.875)"
   id="g1292"><path
     d="M 3,6 H 0 V 0 H 6 V 3 C 6,4.7 4.7,6 3,6 Z"
     id="path1290" /></g>
<g
   transform="matrix(4.9783333,0,0,4.9783333,474.875,735.875)"
   id="g1296"><path
     d="M 6,6 H 0 V 3 C 0,1.3 1.3,0 3,0 h 3 z"
     id="path1294" /></g>
<g
   transform="matrix(4.9783333,0,0,4.9783333,503.875,735.875)"
   id="g1300"><path
     d="M 3,6 H 0 V 0 H 6 V 3 C 6,4.7 4.7,6 3,6 Z"
     id="path1298" /></g>
<g
   transform="matrix(4.9783333,0,0,4.9783333,561.875,735.875)"
   id="g1304"><path
     d="M 6,6 H 3 C 1.3,6 0,4.7 0,3 V 0 h 6 z"
     id="path1302" /></g>
<g
   transform="matrix(4.9783333,0,0,4.9783333,590.875,735.875)"
   id="g1308"><rect
     width="6"
     height="6"
     id="rect1306"
     x="0"
     y="0" /></g>
<g
   transform="matrix(4.9783333,0,0,4.9783333,619.875,735.875)"
   id="g1312"><path
     d="M 3,6 H 0 V 0 H 3 C 4.7,0 6,1.3 6,3 V 3 C 6,4.7 4.7,6 3,6 Z"
     id="path1310" /></g>
<g
   transform="matrix(4.9783333,0,0,4.9783333,677.875,735.875)"
   id="g1316"><path
     d="M 6,6 H 3 C 1.3,6 0,4.7 0,3 V 3 C 0,1.3 1.3,0 3,0 h 3 c 0,0 0,6 0,6 z"
     id="path1314" /></g>
<g
   transform="matrix(4.9783333,0,0,4.9783333,706.875,735.875)"
   id="g1320"><rect
     width="6"
     height="6"
     id="rect1318"
     x="0"
     y="0" /></g>
<g
   transform="matrix(4.9783333,0,0,4.9783333,735.875,735.875)"
   id="g1324"><rect
     width="6"
     height="6"
     id="rect1322"
     x="0"
     y="0" /></g>
<g
   transform="matrix(4.9783333,0,0,4.9783333,764.875,735.875)"
   id="g1328"><rect
     width="6"
     height="6"
     id="rect1326"
     x="0"
     y="0" /></g>
<g
   transform="matrix(4.9783333,0,0,4.9783333,793.875,735.875)"
   id="g1332"><rect
     width="6"
     height="6"
     id="rect1330"
     x="0"
     y="0" /></g>
<g
   transform="matrix(4.9783333,0,0,4.9783333,822.875,735.875)"
   id="g1336"><rect
     width="6"
     height="6"
     id="rect1334"
     x="0"
     y="0" /></g>
<g
   transform="matrix(4.9783333,0,0,4.9783333,851.875,735.875)"
   id="g1340"><rect
     width="6"
     height="6"
     id="rect1338"
     x="0"
     y="0" /></g>
<g
   transform="matrix(4.9783333,0,0,4.9783333,938.875,735.875)"
   id="g1344"><path
     d="M 6,6 H 3 C 1.3,6 0,4.7 0,3 V 3 C 0,1.3 1.3,0 3,0 h 3 c 0,0 0,6 0,6 z"
     id="path1342" /></g>
<g
   transform="matrix(4.9783333,0,0,4.9783333,967.875,735.875)"
   id="g1348"><rect
     width="6"
     height="6"
     id="rect1346"
     x="0"
     y="0" /></g>
<g
   transform="matrix(4.9783333,0,0,4.9783333,271.875,764.875)"
   id="g1352"><circle
     cx="3"
     cy="3"
     r="3"
     id="circle1350" /></g>
<g
   transform="matrix(4.9783333,0,0,4.9783333,474.875,764.875)"
   id="g1356"><path
     d="M 3,6 V 6 C 1.3,6 0,4.7 0,3 V 0 H 6 V 3 C 6,4.7 4.7,6 3,6 Z"
     id="path1354" /></g>
<g
   transform="matrix(4.9783333,0,0,4.9783333,590.875,764.875)"
   id="g1360"><path
     d="M 3,6 V 6 C 1.3,6 0,4.7 0,3 V 0 H 6 V 3 C 6,4.7 4.7,6 3,6 Z"
     id="path1358" /></g>
<g
   transform="matrix(4.9783333,0,0,4.9783333,648.875,764.875)"
   id="g1364"><path
     d="M 6,6 H 0 V 3 C 0,1.3 1.3,0 3,0 v 0 c 1.7,0 3,1.3 3,3 z"
     id="path1362" /></g>
<g
   transform="matrix(4.9783333,0,0,4.9783333,735.875,764.875)"
   id="g1368"><rect
     width="6"
     height="6"
     id="rect1366"
     x="0"
     y="0" /></g>
<g
   transform="matrix(4.9783333,0,0,4.9783333,851.875,764.875)"
   id="g1372"><rect
     width="6"
     height="6"
     id="rect1370"
     x="0"
     y="0" /></g>
<g
   transform="matrix(4.9783333,0,0,4.9783333,880.875,764.875)"
   id="g1376"><rect
     width="6"
     height="6"
     id="rect1374"
     x="0"
     y="0" /></g>
<g
   transform="matrix(4.9783333,0,0,4.9783333,909.875,764.875)"
   id="g1380"><path
     d="M 6,6 H 0 V 0 h 3 c 1.7,0 3,1.3 3,3 z"
     id="path1378" /></g>
<g
   transform="matrix(4.9783333,0,0,4.9783333,967.875,764.875)"
   id="g1384"><path
     d="M 3,6 V 6 C 1.3,6 0,4.7 0,3 V 0 H 6 V 3 C 6,4.7 4.7,6 3,6 Z"
     id="path1382" /></g>
<g
   transform="matrix(4.9783333,0,0,4.9783333,329.875,793.875)"
   id="g1388"><path
     d="M 6,6 H 0 V 3 C 0,1.3 1.3,0 3,0 h 3 z"
     id="path1386" /></g>
<g
   transform="matrix(4.9783333,0,0,4.9783333,358.875,793.875)"
   id="g1392"><path
     d="M 6,6 H 0 V 0 h 3 c 1.7,0 3,1.3 3,3 z"
     id="path1390" /></g>
<g
   transform="matrix(4.9783333,0,0,4.9783333,416.875,793.875)"
   id="g1396"><path
     d="M 6,6 H 3 C 1.3,6 0,4.7 0,3 V 3 C 0,1.3 1.3,0 3,0 h 3 c 0,0 0,6 0,6 z"
     id="path1394" /></g>
<g
   transform="matrix(4.9783333,0,0,4.9783333,445.875,793.875)"
   id="g1400"><path
     d="M 3,6 H 0 V 0 H 3 C 4.7,0 6,1.3 6,3 V 3 C 6,4.7 4.7,6 3,6 Z"
     id="path1398" /></g>
<g
   transform="matrix(4.9783333,0,0,4.9783333,532.875,793.875)"
   id="g1404"><path
     d="M 6,6 H 0 V 3 C 0,1.3 1.3,0 3,0 v 0 c 1.7,0 3,1.3 3,3 z"
     id="path1402" /></g>
<g
   transform="matrix(4.9783333,0,0,4.9783333,648.875,793.875)"
   id="g1408"><rect
     width="6"
     height="6"
     id="rect1406"
     x="0"
     y="0" /></g>
<g
   transform="matrix(4.9783333,0,0,4.9783333,706.875,793.875)"
   id="g1412"><path
     d="M 6,6 H 0 V 3 C 0,1.3 1.3,0 3,0 h 3 z"
     id="path1410" /></g>
<g
   transform="matrix(4.9783333,0,0,4.9783333,735.875,793.875)"
   id="g1416"><rect
     width="6"
     height="6"
     id="rect1414"
     x="0"
     y="0" /></g>
<g
   transform="matrix(4.9783333,0,0,4.9783333,793.875,793.875)"
   id="g1420"><circle
     cx="3"
     cy="3"
     r="3"
     id="circle1418" /></g>
<g
   transform="matrix(4.9783333,0,0,4.9783333,851.875,793.875)"
   id="g1424"><rect
     width="6"
     height="6"
     id="rect1422"
     x="0"
     y="0" /></g>
<g
   transform="matrix(4.9783333,0,0,4.9783333,880.875,793.875)"
   id="g1428"><rect
     width="6"
     height="6"
     id="rect1426"
     x="0"
     y="0" /></g>
<g
   transform="matrix(4.9783333,0,0,4.9783333,909.875,793.875)"
   id="g1432"><rect
     width="6"
     height="6"
     id="rect1430"
     x="0"
     y="0" /></g>
<g
   transform="matrix(4.9783333,0,0,4.9783333,938.875,793.875)"
   id="g1436"><path
     d="M 6,6 H 0 V 0 h 3 c 1.7,0 3,1.3 3,3 z"
     id="path1434" /></g>
<g
   transform="matrix(4.9783333,0,0,4.9783333,329.875,822.875)"
   id="g1440"><rect
     width="6"
     height="6"
     id="rect1438"
     x="0"
     y="0" /></g>
<g
   transform="matrix(4.9783333,0,0,4.9783333,358.875,822.875)"
   id="g1444"><rect
     width="6"
     height="6"
     id="rect1442"
     x="0"
     y="0" /></g>
<g
   transform="matrix(4.9783333,0,0,4.9783333,474.875,822.875)"
   id="g1448"><path
     d="M 6,6 H 3 C 1.3,6 0,4.7 0,3 V 3 C 0,1.3 1.3,0 3,0 h 3 c 0,0 0,6 0,6 z"
     id="path1446" /></g>
<g
   transform="matrix(4.9783333,0,0,4.9783333,503.875,822.875)"
   id="g1452"><rect
     width="6"
     height="6"
     id="rect1450"
     x="0"
     y="0" /></g>
<g
   transform="matrix(4.9783333,0,0,4.9783333,532.875,822.875)"
   id="g1456"><rect
     width="6"
     height="6"
     id="rect1454"
     x="0"
     y="0" /></g>
<g
   transform="matrix(4.9783333,0,0,4.9783333,561.875,822.875)"
   id="g1460"><path
     d="M 6,6 H 0 V 0 h 3 c 1.7,0 3,1.3 3,3 z"
     id="path1458" /></g>
<g
   transform="matrix(4.9783333,0,0,4.9783333,619.875,822.875)"
   id="g1464"><path
     d="M 6,6 H 0 V 3 C 0,1.3 1.3,0 3,0 h 3 z"
     id="path1462" /></g>
<g
   transform="matrix(4.9783333,0,0,4.9783333,648.875,822.875)"
   id="g1468"><rect
     width="6"
     height="6"
     id="rect1466"
     x="0"
     y="0" /></g>
<g
   transform="matrix(4.9783333,0,0,4.9783333,677.875,822.875)"
   id="g1472"><rect
     width="6"
     height="6"
     id="rect1470"
     x="0"
     y="0" /></g>
<g
   transform="matrix(4.9783333,0,0,4.9783333,706.875,822.875)"
   id="g1476"><rect
     width="6"
     height="6"
     id="rect1474"
     x="0"
     y="0" /></g>
<g
   transform="matrix(4.9783333,0,0,4.9783333,735.875,822.875)"
   id="g1480"><rect
     width="6"
     height="6"
     id="rect1478"
     x="0"
     y="0" /></g>
<g
   transform="matrix(4.9783333,0,0,4.9783333,851.875,822.875)"
   id="g1484"><rect
     width="6"
     height="6"
     id="rect1482"
     x="0"
     y="0" /></g>
<g
   transform="matrix(4.9783333,0,0,4.9783333,880.875,822.875)"
   id="g1488"><rect
     width="6"
     height="6"
     id="rect1486"
     x="0"
     y="0" /></g>
<g
   transform="matrix(4.9783333,0,0,4.9783333,909.875,822.875)"
   id="g1492"><rect
     width="6"
     height="6"
     id="rect1490"
     x="0"
     y="0" /></g>
<g
   transform="matrix(4.9783333,0,0,4.9783333,938.875,822.875)"
   id="g1496"><rect
     width="6"
     height="6"
     id="rect1494"
     x="0"
     y="0" /></g>
<g
   transform="matrix(4.9783333,0,0,4.9783333,967.875,822.875)"
   id="g1500"><path
     d="M 6,6 H 0 V 0 h 3 c 1.7,0 3,1.3 3,3 z"
     id="path1498" /></g>
<g
   transform="matrix(4.9783333,0,0,4.9783333,271.875,851.875)"
   id="g1504"><path
     d="M 6,6 H 0 V 3 C 0,1.3 1.3,0 3,0 h 3 z"
     id="path1502" /></g>
<g
   transform="matrix(4.9783333,0,0,4.9783333,300.875,851.875)"
   id="g1508"><rect
     width="6"
     height="6"
     id="rect1506"
     x="0"
     y="0" /></g>
<g
   transform="matrix(4.9783333,0,0,4.9783333,329.875,851.875)"
   id="g1512"><rect
     width="6"
     height="6"
     id="rect1510"
     x="0"
     y="0" /></g>
<g
   transform="matrix(4.9783333,0,0,4.9783333,358.875,851.875)"
   id="g1516"><path
     d="M 3,6 H 0 V 0 H 6 V 3 C 6,4.7 4.7,6 3,6 Z"
     id="path1514" /></g>
<g
   transform="matrix(4.9783333,0,0,4.9783333,416.875,851.875)"
   id="g1520"><path
     d="M 6,6 H 0 V 3 C 0,1.3 1.3,0 3,0 h 3 z"
     id="path1518" /></g>
<g
   transform="matrix(4.9783333,0,0,4.9783333,445.875,851.875)"
   id="g1524"><path
     d="M 6,6 H 0 V 0 h 3 c 1.7,0 3,1.3 3,3 z"
     id="path1522" /></g>
<g
   transform="matrix(4.9783333,0,0,4.9783333,561.875,851.875)"
   id="g1528"><path
     d="M 3,6 V 6 C 1.3,6 0,4.7 0,3 V 0 H 6 V 3 C 6,4.7 4.7,6 3,6 Z"
     id="path1526" /></g>
<g
   transform="matrix(4.9783333,0,0,4.9783333,619.875,851.875)"
   id="g1532"><path
     d="M 6,6 H 3 C 1.3,6 0,4.7 0,3 V 0 h 6 z"
     id="path1530" /></g>
<g
   transform="matrix(4.9783333,0,0,4.9783333,648.875,851.875)"
   id="g1536"><path
     d="M 3,6 H 0 V 0 H 6 V 3 C 6,4.7 4.7,6 3,6 Z"
     id="path1534" /></g>
<g
   transform="matrix(4.9783333,0,0,4.9783333,735.875,851.875)"
   id="g1540"><path
     d="M 6,6 H 3 C 1.3,6 0,4.7 0,3 V 0 h 6 z"
     id="path1538" /></g>
<g
   transform="matrix(4.9783333,0,0,4.9783333,764.875,851.875)"
   id="g1544"><rect
     width="6"
     height="6"
     id="rect1542"
     x="0"
     y="0" /></g>
<g
   transform="matrix(4.9783333,0,0,4.9783333,793.875,851.875)"
   id="g1548"><rect
     width="6"
     height="6"
     id="rect1546"
     x="0"
     y="0" /></g>
<g
   transform="matrix(4.9783333,0,0,4.9783333,822.875,851.875)"
   id="g1552"><rect
     width="6"
     height="6"
     id="rect1550"
     x="0"
     y="0" /></g>
<g
   transform="matrix(4.9783333,0,0,4.9783333,851.875,851.875)"
   id="g1556"><rect
     width="6"
     height="6"
     id="rect1554"
     x="0"
     y="0" /></g>
<g
   transform="matrix(4.9783333,0,0,4.9783333,880.875,851.875)"
   id="g1560"><rect
     width="6"
     height="6"
     id="rect1558"
     x="0"
     y="0" /></g>
<g
   transform="matrix(4.9783333,0,0,4.9783333,938.875,851.875)"
   id="g1564"><rect
     width="6"
     height="6"
     id="rect1562"
     x="0"
     y="0" /></g>
<g
   transform="matrix(4.9783333,0,0,4.9783333,967.875,851.875)"
   id="g1568"><path
     d="M 3,6 H 0 V 0 H 6 V 3 C 6,4.7 4.7,6 3,6 Z"
     id="path1566" /></g>
<g
   transform="matrix(4.9783333,0,0,4.9783333,271.875,880.875)"
   id="g1572"><rect
     width="6"
     height="6"
     id="rect1570"
     x="0"
     y="0" /></g>
<g
   transform="matrix(4.9783333,0,0,4.9783333,300.875,880.875)"
   id="g1576"><rect
     width="6"
     height="6"
     id="rect1574"
     x="0"
     y="0" /></g>
<g
   transform="matrix(4.9783333,0,0,4.9783333,329.875,880.875)"
   id="g1580"><rect
     width="6"
     height="6"
     id="rect1578"
     x="0"
     y="0" /></g>
<g
   transform="matrix(4.9783333,0,0,4.9783333,416.875,880.875)"
   id="g1584"><path
     d="M 6,6 H 3 C 1.3,6 0,4.7 0,3 V 0 h 6 z"
     id="path1582" /></g>
<g
   transform="matrix(4.9783333,0,0,4.9783333,445.875,880.875)"
   id="g1588"><path
     d="M 3,6 H 0 V 0 H 6 V 3 C 6,4.7 4.7,6 3,6 Z"
     id="path1586" /></g>
<g
   transform="matrix(4.9783333,0,0,4.9783333,590.875,880.875)"
   id="g1592"><circle
     cx="3"
     cy="3"
     r="3"
     id="circle1590" /></g>
<g
   transform="matrix(4.9783333,0,0,4.9783333,677.875,880.875)"
   id="g1596"><path
     d="M 6,6 H 3 C 1.3,6 0,4.7 0,3 V 3 C 0,1.3 1.3,0 3,0 h 3 c 0,0 0,6 0,6 z"
     id="path1594" /></g>
<g
   transform="matrix(4.9783333,0,0,4.9783333,706.875,880.875)"
   id="g1600"><path
     d="M 3,6 H 0 V 0 H 3 C 4.7,0 6,1.3 6,3 V 3 C 6,4.7 4.7,6 3,6 Z"
     id="path1598" /></g>
<g
   transform="matrix(4.9783333,0,0,4.9783333,764.875,880.875)"
   id="g1604"><rect
     width="6"
     height="6"
     id="rect1602"
     x="0"
     y="0" /></g>
<g
   transform="matrix(4.9783333,0,0,4.9783333,851.875,880.875)"
   id="g1608"><path
     d="M 6,6 H 3 C 1.3,6 0,4.7 0,3 V 0 h 6 z"
     id="path1606" /></g>
<g
   transform="matrix(4.9783333,0,0,4.9783333,880.875,880.875)"
   id="g1612"><rect
     width="6"
     height="6"
     id="rect1610"
     x="0"
     y="0" /></g>
<g
   transform="matrix(4.9783333,0,0,4.9783333,909.875,880.875)"
   id="g1616"><rect
     width="6"
     height="6"
     id="rect1614"
     x="0"
     y="0" /></g>
<g
   transform="matrix(4.9783333,0,0,4.9783333,938.875,880.875)"
   id="g1620"><path
     d="M 3,6 H 0 V 0 H 6 V 3 C 6,4.7 4.7,6 3,6 Z"
     id="path1618" /></g>
<g
   transform="matrix(4.9783333,0,0,4.9783333,271.875,909.875)"
   id="g1624"><path
     d="M 6,6 H 3 C 1.3,6 0,4.7 0,3 V 0 h 6 z"
     id="path1622" /></g>
<g
   transform="matrix(4.9783333,0,0,4.9783333,300.875,909.875)"
   id="g1628"><rect
     width="6"
     height="6"
     id="rect1626"
     x="0"
     y="0" /></g>
<g
   transform="matrix(4.9783333,0,0,4.9783333,329.875,909.875)"
   id="g1632"><rect
     width="6"
     height="6"
     id="rect1630"
     x="0"
     y="0" /></g>
<g
   transform="matrix(4.9783333,0,0,4.9783333,358.875,909.875)"
   id="g1636"><rect
     width="6"
     height="6"
     id="rect1634"
     x="0"
     y="0" /></g>
<g
   transform="matrix(4.9783333,0,0,4.9783333,387.875,909.875)"
   id="g1640"><path
     d="M 3,6 H 0 V 0 H 3 C 4.7,0 6,1.3 6,3 V 3 C 6,4.7 4.7,6 3,6 Z"
     id="path1638" /></g>
<g
   transform="matrix(4.9783333,0,0,4.9783333,474.875,909.875)"
   id="g1644"><path
     d="M 6,6 H 0 V 3 C 0,1.3 1.3,0 3,0 h 3 z"
     id="path1642" /></g>
<g
   transform="matrix(4.9783333,0,0,4.9783333,503.875,909.875)"
   id="g1648"><path
     d="M 3,6 H 0 V 0 H 3 C 4.7,0 6,1.3 6,3 V 3 C 6,4.7 4.7,6 3,6 Z"
     id="path1646" /></g>
<g
   transform="matrix(4.9783333,0,0,4.9783333,619.875,909.875)"
   id="g1652"><circle
     cx="3"
     cy="3"
     r="3"
     id="circle1650" /></g>
<g
   transform="matrix(4.9783333,0,0,4.9783333,735.875,909.875)"
   id="g1656"><path
     d="M 6,6 H 3 C 1.3,6 0,4.7 0,3 V 3 C 0,1.3 1.3,0 3,0 h 3 c 0,0 0,6 0,6 z"
     id="path1654" /></g>
<g
   transform="matrix(4.9783333,0,0,4.9783333,764.875,909.875)"
   id="g1660"><rect
     width="6"
     height="6"
     id="rect1658"
     x="0"
     y="0" /></g>
<g
   transform="matrix(4.9783333,0,0,4.9783333,793.875,909.875)"
   id="g1664"><path
     d="M 3,6 H 0 V 0 H 3 C 4.7,0 6,1.3 6,3 V 3 C 6,4.7 4.7,6 3,6 Z"
     id="path1662" /></g>
<g
   transform="matrix(4.9783333,0,0,4.9783333,909.875,909.875)"
   id="g1668"><rect
     width="6"
     height="6"
     id="rect1666"
     x="0"
     y="0" /></g>
<g
   transform="matrix(4.9783333,0,0,4.9783333,329.875,938.875)"
   id="g1672"><rect
     width="6"
     height="6"
     id="rect1670"
     x="0"
     y="0" /></g>
<g
   transform="matrix(4.9783333,0,0,4.9783333,358.875,938.875)"
   id="g1676"><rect
     width="6"
     height="6"
     id="rect1674"
     x="0"
     y="0" /></g>
<g
   transform="matrix(4.9783333,0,0,4.9783333,416.875,938.875)"
   id="g1680"><path
     d="M 6,6 H 0 V 3 C 0,1.3 1.3,0 3,0 h 3 z"
     id="path1678" /></g>
<g
   transform="matrix(4.9783333,0,0,4.9783333,445.875,938.875)"
   id="g1684"><rect
     width="6"
     height="6"
     id="rect1682"
     x="0"
     y="0" /></g>
<g
   transform="matrix(4.9783333,0,0,4.9783333,474.875,938.875)"
   id="g1688"><rect
     width="6"
     height="6"
     id="rect1686"
     x="0"
     y="0" /></g>
<g
   transform="matrix(4.9783333,0,0,4.9783333,561.875,938.875)"
   id="g1692"><path
     d="M 6,6 H 0 V 3 C 0,1.3 1.3,0 3,0 v 0 c 1.7,0 3,1.3 3,3 z"
     id="path1690" /></g>
<g
   transform="matrix(4.9783333,0,0,4.9783333,648.875,938.875)"
   id="g1696"><path
     d="M 6,6 H 3 C 1.3,6 0,4.7 0,3 V 3 C 0,1.3 1.3,0 3,0 h 3 c 0,0 0,6 0,6 z"
     id="path1694" /></g>
<g
   transform="matrix(4.9783333,0,0,4.9783333,677.875,938.875)"
   id="g1700"><rect
     width="6"
     height="6"
     id="rect1698"
     x="0"
     y="0" /></g>
<g
   transform="matrix(4.9783333,0,0,4.9783333,706.875,938.875)"
   id="g1704"><path
     d="M 6,6 H 0 V 0 h 3 c 1.7,0 3,1.3 3,3 z"
     id="path1702" /></g>
<g
   transform="matrix(4.9783333,0,0,4.9783333,822.875,938.875)"
   id="g1708"><circle
     cx="3"
     cy="3"
     r="3"
     id="circle1706" /></g>
<g
   transform="matrix(4.9783333,0,0,4.9783333,909.875,938.875)"
   id="g1712"><rect
     width="6"
     height="6"
     id="rect1710"
     x="0"
     y="0" /></g>
<g
   transform="matrix(4.9783333,0,0,4.9783333,300.875,967.875)"
   id="g1716"><path
     d="M 6,6 H 3 C 1.3,6 0,4.7 0,3 V 3 C 0,1.3 1.3,0 3,0 h 3 c 0,0 0,6 0,6 z"
     id="path1714" /></g>
<g
   transform="matrix(4.9783333,0,0,4.9783333,329.875,967.875)"
   id="g1720"><rect
     width="6"
     height="6"
     id="rect1718"
     x="0"
     y="0" /></g>
<g
   transform="matrix(4.9783333,0,0,4.9783333,358.875,967.875)"
   id="g1724"><rect
     width="6"
     height="6"
     id="rect1722"
     x="0"
     y="0" /></g>
<g
   transform="matrix(4.9783333,0,0,4.9783333,387.875,967.875)"
   id="g1728"><rect
     width="6"
     height="6"
     id="rect1726"
     x="0"
     y="0" /></g>
<g
   transform="matrix(4.9783333,0,0,4.9783333,416.875,967.875)"
   id="g1732"><rect
     width="6"
     height="6"
     id="rect1730"
     x="0"
     y="0" /></g>
<g
   transform="matrix(4.9783333,0,0,4.9783333,445.875,967.875)"
   id="g1736"><rect
     width="6"
     height="6"
     id="rect1734"
     x="0"
     y="0" /></g>
<g
   transform="matrix(4.9783333,0,0,4.9783333,474.875,967.875)"
   id="g1740"><path
     d="M 3,6 H 0 V 0 H 6 V 3 C 6,4.7 4.7,6 3,6 Z"
     id="path1738" /></g>
<g
   transform="matrix(4.9783333,0,0,4.9783333,561.875,967.875)"
   id="g1744"><path
     d="M 3,6 V 6 C 1.3,6 0,4.7 0,3 V 0 H 6 V 3 C 6,4.7 4.7,6 3,6 Z"
     id="path1742" /></g>
<g
   transform="matrix(4.9783333,0,0,4.9783333,677.875,967.875)"
   id="g1748"><path
     d="M 6,6 H 3 C 1.3,6 0,4.7 0,3 V 0 h 6 z"
     id="path1746" /></g>
<g
   transform="matrix(4.9783333,0,0,4.9783333,706.875,967.875)"
   id="g1752"><rect
     width="6"
     height="6"
     id="rect1750"
     x="0"
     y="0" /></g>
<g
   transform="matrix(4.9783333,0,0,4.9783333,735.875,967.875)"
   id="g1756"><rect
     width="6"
     height="6"
     id="rect1754"
     x="0"
     y="0" /></g>
<g
   transform="matrix(4.9783333,0,0,4.9783333,764.875,967.875)"
   id="g1760"><path
     d="M 3,6 H 0 V 0 H 3 C 4.7,0 6,1.3 6,3 V 3 C 6,4.7 4.7,6 3,6 Z"
     id="path1758" /></g>
<g
   transform="matrix(4.9783333,0,0,4.9783333,909.875,967.875)"
   id="g1764"><path
     d="M 6,6 H 3 C 1.3,6 0,4.7 0,3 V 0 h 6 z"
     id="path1762" /></g>
<g
   transform="matrix(4.9783333,0,0,4.9783333,938.875,967.875)"
   id="g1768"><path
     d="M 3,6 H 0 V 0 H 3 C 4.7,0 6,1.3 6,3 V 3 C 6,4.7 4.7,6 3,6 Z"
     id="path1766" /></g>
</g></g></mask></defs>
<g
   fill="#000000"
   transform="matrix(43.197917,0,0,43.197917,-39.875,-39.875)"
   id="g1777"
   style="fill:#43d0ff;fill-opacity:1" />
<rect
   x="0"
   y="0"
   width="1036.75"
   height="1079.9479"
   mask="url(#qrmask)"
   fill="#000000"
   id="rect1779"
   style="fill:#43d0ff;fill-opacity:1"
   transform="translate(-39.875,-39.875)" />
<g
   id="g1817"
   style="fill:#43d0ff;fill-opacity:1"
   transform="translate(-39.875,-39.875)"><g
   transform="translate(39.875,39.875)"
   fill="#000000"
   id="g1785"
   style="fill:#43d0ff;fill-opacity:1"><g
     transform="scale(14.5)"
     id="g1783"
     style="fill:#43d0ff;fill-opacity:1"><path
       d="M 4.5,14 H 9.6 C 12,14 14,12 14,9.6 V 4.5 C 14,2 12,0 9.5,0 H 4.4 C 2,0 0,2 0,4.4 V 9.5 C 0,12 2,14 4.5,14 Z M 12,4.8 V 9.2 C 12,10.7 10.7,12 9.2,12 H 4.8 C 3.2,12 2,10.8 2,9.2 V 4.8 C 2,3.3 3.3,2 4.8,2 H 9.2 C 10.8,2 12,3.2 12,4.8 Z"
       id="path1781"
       style="fill:#43d0ff;fill-opacity:1" /></g></g>
<g
   transform="translate(97.875,97.875)"
   fill="#000000"
   id="g1791"
   style="fill:#43d0ff;fill-opacity:1"><g
     transform="scale(14.5)"
     id="g1789"
     style="fill:#43d0ff;fill-opacity:1"><path
       d="M 6,1.7 V 4.4 C 6,5.2 5.2,6 4.3,6 H 1.7 C 0.7,6 0,5.3 0,4.3 V 1.7 C 0,0.8 0.8,0 1.7,0 H 4.4 C 5.3,0 6,0.7 6,1.7 Z"
       id="path1787"
       style="fill:#43d0ff;fill-opacity:1" /></g></g>
<g
   transform="translate(793.875,39.875)"
   fill="#000000"
   id="g1797"
   style="fill:#43d0ff;fill-opacity:1"><g
     transform="scale(14.5)"
     id="g1795"
     style="fill:#43d0ff;fill-opacity:1"><path
       d="M 4.5,14 H 9.6 C 12,14 14,12 14,9.6 V 4.5 C 14,2 12,0 9.5,0 H 4.4 C 2,0 0,2 0,4.4 V 9.5 C 0,12 2,14 4.5,14 Z M 12,4.8 V 9.2 C 12,10.7 10.7,12 9.2,12 H 4.8 C 3.2,12 2,10.8 2,9.2 V 4.8 C 2,3.3 3.3,2 4.8,2 H 9.2 C 10.8,2 12,3.2 12,4.8 Z"
       id="path1793"
       style="fill:#43d0ff;fill-opacity:1" /></g></g>
<g
   transform="translate(851.875,97.875)"
   fill="#000000"
   id="g1803"
   style="fill:#43d0ff;fill-opacity:1"><g
     transform="scale(14.5)"
     id="g1801"
     style="fill:#43d0ff;fill-opacity:1"><path
       d="M 6,1.7 V 4.4 C 6,5.2 5.2,6 4.3,6 H 1.7 C 0.7,6 0,5.3 0,4.3 V 1.7 C 0,0.8 0.8,0 1.7,0 H 4.4 C 5.3,0 6,0.7 6,1.7 Z"
       id="path1799"
       style="fill:#43d0ff;fill-opacity:1" /></g></g>
<g
   transform="translate(39.875,793.875)"
   fill="#000000"
   id="g1809"
   style="fill:#43d0ff;fill-opacity:1"><g
     transform="scale(14.5)"
     id="g1807"
     style="fill:#43d0ff;fill-opacity:1"><path
       d="M 4.5,14 H 9.6 C 12,14 14,12 14,9.6 V 4.5 C 14,2 12,0 9.5,0 H 4.4 C 2,0 0,2 0,4.4 V 9.5 C 0,12 2,14 4.5,14 Z M 12,4.8 V 9.2 C 12,10.7 10.7,12 9.2,12 H 4.8 C 3.2,12 2,10.8 2,9.2 V 4.8 C 2,3.3 3.3,2 4.8,2 H 9.2 C 10.8,2 12,3.2 12,4.8 Z"
       id="path1805"
       style="fill:#43d0ff;fill-opacity:1" /></g></g>
<g
   transform="translate(97.875,851.875)"
   fill="#000000"
   id="g1815"
   style="fill:#43d0ff;fill-opacity:1"><g
     transform="scale(14.5)"
     id="g1813"
     style="fill:#43d0ff;fill-opacity:1"><path
       d="M 6,1.7 V 4.4 C 6,5.2 5.2,6 4.3,6 H 1.7 C 0.7,6 0,5.3 0,4.3 V 1.7 C 0,0.8 0.8,0 1.7,0 H 4.4 C 5.3,0 6,0.7 6,1.7 Z"
       id="path1811"
       style="fill:#43d0ff;fill-opacity:1" /></g></g></g>
</svg>
