<svg xmlns="http://www.w3.org/2000/svg" xmlns:svg="http://www.w3.org/2000/svg" id="svg1819" width="957.87" height="957.87" version="1.1" viewBox="0 0 957.87 957.87" xml:space="preserve"><defs id="defs1775"><mask id="qrmask"><g id="g1772" fill="#fff"><g id="g1770"><g id="g4" transform="matrix(4.9783333,0,0,4.9783333,271.875,39.875)"><path id="path2" d="M 6,6 H 0 V 3 C 0,1.3 1.3,0 3,0 v 0 c 1.7,0 3,1.3 3,3 z"/></g><g id="g8" transform="matrix(4.9783333,0,0,4.9783333,329.875,39.875)"><circle id="circle6" cx="3" cy="3" r="3"/></g><g id="g12" transform="matrix(4.9783333,0,0,4.9783333,387.875,39.875)"><path id="path10" d="M 6,6 H 0 V 3 C 0,1.3 1.3,0 3,0 h 3 z"/></g><g id="g16" transform="matrix(4.9783333,0,0,4.9783333,416.875,39.875)"><path id="path14" d="M 6,6 H 0 V 0 h 3 c 1.7,0 3,1.3 3,3 z"/></g><g id="g20" transform="matrix(4.9783333,0,0,4.9783333,561.875,39.875)"><circle id="circle18" cx="3" cy="3" r="3"/></g><g id="g24" transform="matrix(4.9783333,0,0,4.9783333,648.875,39.875)"><path id="path22" d="M 6,6 H 0 V 3 C 0,1.3 1.3,0 3,0 v 0 c 1.7,0 3,1.3 3,3 z"/></g><g id="g28" transform="matrix(4.9783333,0,0,4.9783333,706.875,39.875)"><path id="path26" d="M 6,6 H 3 C 1.3,6 0,4.7 0,3 V 3 C 0,1.3 1.3,0 3,0 h 3 c 0,0 0,6 0,6 z"/></g><g id="g32" transform="matrix(4.9783333,0,0,4.9783333,735.875,39.875)"><path id="path30" d="M 6,6 H 0 V 0 h 3 c 1.7,0 3,1.3 3,3 z"/></g><g id="g36" transform="matrix(4.9783333,0,0,4.9783333,271.875,68.875)"><rect id="rect34" width="6" height="6" x="0" y="0"/></g><g id="g40" transform="matrix(4.9783333,0,0,4.9783333,358.875,68.875)"><path id="path38" d="M 6,6 H 0 V 3 C 0,1.3 1.3,0 3,0 h 3 z"/></g><g id="g44" transform="matrix(4.9783333,0,0,4.9783333,387.875,68.875)"><rect id="rect42" width="6" height="6" x="0" y="0"/></g><g id="g48" transform="matrix(4.9783333,0,0,4.9783333,416.875,68.875)"><rect id="rect46" width="6" height="6" x="0" y="0"/></g><g id="g52" transform="matrix(4.9783333,0,0,4.9783333,474.875,68.875)"><path id="path50" d="M 6,6 H 0 V 3 C 0,1.3 1.3,0 3,0 v 0 c 1.7,0 3,1.3 3,3 z"/></g><g id="g56" transform="matrix(4.9783333,0,0,4.9783333,532.875,68.875)"><circle id="circle54" cx="3" cy="3" r="3"/></g><g id="g60" transform="matrix(4.9783333,0,0,4.9783333,590.875,68.875)"><circle id="circle58" cx="3" cy="3" r="3"/></g><g id="g64" transform="matrix(4.9783333,0,0,4.9783333,648.875,68.875)"><rect id="rect62" width="6" height="6" x="0" y="0"/></g><g id="g68" transform="matrix(4.9783333,0,0,4.9783333,677.875,68.875)"><path id="path66" d="M 3,6 H 0 V 0 H 3 C 4.7,0 6,1.3 6,3 V 3 C 6,4.7 4.7,6 3,6 Z"/></g><g id="g72" transform="matrix(4.9783333,0,0,4.9783333,735.875,68.875)"><rect id="rect70" width="6" height="6" x="0" y="0"/></g><g id="g76" transform="matrix(4.9783333,0,0,4.9783333,271.875,97.875)"><path id="path74" d="M 6,6 H 3 C 1.3,6 0,4.7 0,3 V 0 h 6 z"/></g><g id="g80" transform="matrix(4.9783333,0,0,4.9783333,300.875,97.875)"><path id="path78" d="M 6,6 H 0 V 0 h 3 c 1.7,0 3,1.3 3,3 z"/></g><g id="g84" transform="matrix(4.9783333,0,0,4.9783333,358.875,97.875)"><path id="path82" d="M 3,6 V 6 C 1.3,6 0,4.7 0,3 V 0 H 6 V 3 C 6,4.7 4.7,6 3,6 Z"/></g><g id="g88" transform="matrix(4.9783333,0,0,4.9783333,416.875,97.875)"><rect id="rect86" width="6" height="6" x="0" y="0"/></g><g id="g92" transform="matrix(4.9783333,0,0,4.9783333,474.875,97.875)"><path id="path90" d="M 3,6 V 6 C 1.3,6 0,4.7 0,3 V 0 H 6 V 3 C 6,4.7 4.7,6 3,6 Z"/></g><g id="g96" transform="matrix(4.9783333,0,0,4.9783333,561.875,97.875)"><circle id="circle94" cx="3" cy="3" r="3"/></g><g id="g100" transform="matrix(4.9783333,0,0,4.9783333,619.875,97.875)"><path id="path98" d="M 6,6 H 3 C 1.3,6 0,4.7 0,3 V 3 C 0,1.3 1.3,0 3,0 h 3 c 0,0 0,6 0,6 z"/></g><g id="g104" transform="matrix(4.9783333,0,0,4.9783333,648.875,97.875)"><path id="path102" d="M 3,6 H 0 V 0 H 6 V 3 C 6,4.7 4.7,6 3,6 Z"/></g><g id="g108" transform="matrix(4.9783333,0,0,4.9783333,706.875,97.875)"><path id="path106" d="M 6,6 H 0 V 3 C 0,1.3 1.3,0 3,0 h 3 z"/></g><g id="g112" transform="matrix(4.9783333,0,0,4.9783333,735.875,97.875)"><path id="path110" d="M 3,6 H 0 V 0 H 6 V 3 C 6,4.7 4.7,6 3,6 Z"/></g><g id="g116" transform="matrix(4.9783333,0,0,4.9783333,300.875,126.875)"><path id="path114" d="M 3,6 V 6 C 1.3,6 0,4.7 0,3 V 0 H 6 V 3 C 6,4.7 4.7,6 3,6 Z"/></g><g id="g120" transform="matrix(4.9783333,0,0,4.9783333,387.875,126.875)"><path id="path118" d="M 6,6 H 3 C 1.3,6 0,4.7 0,3 V 3 C 0,1.3 1.3,0 3,0 h 3 c 0,0 0,6 0,6 z"/></g><g id="g124" transform="matrix(4.9783333,0,0,4.9783333,416.875,126.875)"><rect id="rect122" width="6" height="6" x="0" y="0"/></g><g id="g128" transform="matrix(4.9783333,0,0,4.9783333,445.875,126.875)"><path id="path126" d="M 6,6 H 0 V 0 h 3 c 1.7,0 3,1.3 3,3 z"/></g><g id="g132" transform="matrix(4.9783333,0,0,4.9783333,590.875,126.875)"><circle id="circle130" cx="3" cy="3" r="3"/></g><g id="g136" transform="matrix(4.9783333,0,0,4.9783333,677.875,126.875)"><path id="path134" d="M 6,6 H 3 C 1.3,6 0,4.7 0,3 V 3 C 0,1.3 1.3,0 3,0 h 3 c 0,0 0,6 0,6 z"/></g><g id="g140" transform="matrix(4.9783333,0,0,4.9783333,706.875,126.875)"><path id="path138" d="M 3,6 H 0 V 0 H 6 V 3 C 6,4.7 4.7,6 3,6 Z"/></g><g id="g144" transform="matrix(4.9783333,0,0,4.9783333,358.875,155.875)"><path id="path142" d="M 6,6 H 0 V 3 C 0,1.3 1.3,0 3,0 v 0 c 1.7,0 3,1.3 3,3 z"/></g><g id="g148" transform="matrix(4.9783333,0,0,4.9783333,445.875,155.875)"><path id="path146" d="M 6,6 H 3 C 1.3,6 0,4.7 0,3 V 0 h 6 z"/></g><g id="g152" transform="matrix(4.9783333,0,0,4.9783333,474.875,155.875)"><path id="path150" d="M 6,6 H 0 V 0 h 3 c 1.7,0 3,1.3 3,3 z"/></g><g id="g156" transform="matrix(4.9783333,0,0,4.9783333,561.875,155.875)"><path id="path154" d="M 6,6 H 0 V 3 C 0,1.3 1.3,0 3,0 v 0 c 1.7,0 3,1.3 3,3 z"/></g><g id="g160" transform="matrix(4.9783333,0,0,4.9783333,735.875,155.875)"><circle id="circle158" cx="3" cy="3" r="3"/></g><g id="g164" transform="matrix(4.9783333,0,0,4.9783333,271.875,184.875)"><path id="path162" d="M 6,6 H 0 V 3 C 0,1.3 1.3,0 3,0 v 0 c 1.7,0 3,1.3 3,3 z"/></g><g id="g168" transform="matrix(4.9783333,0,0,4.9783333,329.875,184.875)"><path id="path166" d="M 6,6 H 0 V 3 C 0,1.3 1.3,0 3,0 h 3 z"/></g><g id="g172" transform="matrix(4.9783333,0,0,4.9783333,358.875,184.875)"><path id="path170" d="M 3,6 H 0 V 0 H 6 V 3 C 6,4.7 4.7,6 3,6 Z"/></g><g id="g176" transform="matrix(4.9783333,0,0,4.9783333,416.875,184.875)"><circle id="circle174" cx="3" cy="3" r="3"/></g><g id="g180" transform="matrix(4.9783333,0,0,4.9783333,474.875,184.875)"><path id="path178" d="M 6,6 H 3 C 1.3,6 0,4.7 0,3 V 0 h 6 z"/></g><g id="g184" transform="matrix(4.9783333,0,0,4.9783333,503.875,184.875)"><rect id="rect182" width="6" height="6" x="0" y="0"/></g><g id="g188" transform="matrix(4.9783333,0,0,4.9783333,532.875,184.875)"><rect id="rect186" width="6" height="6" x="0" y="0"/></g><g id="g192" transform="matrix(4.9783333,0,0,4.9783333,561.875,184.875)"><rect id="rect190" width="6" height="6" x="0" y="0"/></g><g id="g196" transform="matrix(4.9783333,0,0,4.9783333,590.875,184.875)"><path id="path194" d="M 3,6 H 0 V 0 H 3 C 4.7,0 6,1.3 6,3 V 3 C 6,4.7 4.7,6 3,6 Z"/></g><g id="g200" transform="matrix(4.9783333,0,0,4.9783333,677.875,184.875)"><path id="path198" d="M 6,6 H 0 V 3 C 0,1.3 1.3,0 3,0 v 0 c 1.7,0 3,1.3 3,3 z"/></g><g id="g204" transform="matrix(4.9783333,0,0,4.9783333,271.875,213.875)"><rect id="rect202" width="6" height="6" x="0" y="0"/></g><g id="g208" transform="matrix(4.9783333,0,0,4.9783333,329.875,213.875)"><rect id="rect206" width="6" height="6" x="0" y="0"/></g><g id="g212" transform="matrix(4.9783333,0,0,4.9783333,387.875,213.875)"><path id="path210" d="M 6,6 H 0 V 3 C 0,1.3 1.3,0 3,0 v 0 c 1.7,0 3,1.3 3,3 z"/></g><g id="g216" transform="matrix(4.9783333,0,0,4.9783333,445.875,213.875)"><circle id="circle214" cx="3" cy="3" r="3"/></g><g id="g220" transform="matrix(4.9783333,0,0,4.9783333,503.875,213.875)"><path id="path218" d="M 3,6 V 6 C 1.3,6 0,4.7 0,3 V 0 H 6 V 3 C 6,4.7 4.7,6 3,6 Z"/></g><g id="g224" transform="matrix(4.9783333,0,0,4.9783333,561.875,213.875)"><rect id="rect222" width="6" height="6" x="0" y="0"/></g><g id="g228" transform="matrix(4.9783333,0,0,4.9783333,619.875,213.875)"><circle id="circle226" cx="3" cy="3" r="3"/></g><g id="g232" transform="matrix(4.9783333,0,0,4.9783333,677.875,213.875)"><path id="path230" d="M 3,6 V 6 C 1.3,6 0,4.7 0,3 V 0 H 6 V 3 C 6,4.7 4.7,6 3,6 Z"/></g><g id="g236" transform="matrix(4.9783333,0,0,4.9783333,735.875,213.875)"><path id="path234" d="M 6,6 H 0 V 3 C 0,1.3 1.3,0 3,0 v 0 c 1.7,0 3,1.3 3,3 z"/></g><g id="g240" transform="matrix(4.9783333,0,0,4.9783333,271.875,242.875)"><rect id="rect238" width="6" height="6" x="0" y="0"/></g><g id="g244" transform="matrix(4.9783333,0,0,4.9783333,329.875,242.875)"><path id="path242" d="M 6,6 H 3 C 1.3,6 0,4.7 0,3 V 0 h 6 z"/></g><g id="g248" transform="matrix(4.9783333,0,0,4.9783333,358.875,242.875)"><rect id="rect246" width="6" height="6" x="0" y="0"/></g><g id="g252" transform="matrix(4.9783333,0,0,4.9783333,387.875,242.875)"><rect id="rect250" width="6" height="6" x="0" y="0"/></g><g id="g256" transform="matrix(4.9783333,0,0,4.9783333,416.875,242.875)"><path id="path254" d="M 3,6 H 0 V 0 H 3 C 4.7,0 6,1.3 6,3 V 3 C 6,4.7 4.7,6 3,6 Z"/></g><g id="g260" transform="matrix(4.9783333,0,0,4.9783333,561.875,242.875)"><rect id="rect258" width="6" height="6" x="0" y="0"/></g><g id="g264" transform="matrix(4.9783333,0,0,4.9783333,648.875,242.875)"><circle id="circle262" cx="3" cy="3" r="3"/></g><g id="g268" transform="matrix(4.9783333,0,0,4.9783333,735.875,242.875)"><rect id="rect266" width="6" height="6" x="0" y="0"/></g><g id="g272" transform="matrix(4.9783333,0,0,4.9783333,97.875,271.875)"><path id="path270" d="M 6,6 H 0 V 3 C 0,1.3 1.3,0 3,0 h 3 z"/></g><g id="g276" transform="matrix(4.9783333,0,0,4.9783333,126.875,271.875)"><rect id="rect274" width="6" height="6" x="0" y="0"/></g><g id="g280" transform="matrix(4.9783333,0,0,4.9783333,155.875,271.875)"><path id="path278" d="M 6,6 H 0 V 0 h 3 c 1.7,0 3,1.3 3,3 z"/></g><g id="g284" transform="matrix(4.9783333,0,0,4.9783333,213.875,271.875)"><circle id="circle282" cx="3" cy="3" r="3"/></g><g id="g288" transform="matrix(4.9783333,0,0,4.9783333,271.875,271.875)"><path id="path286" d="M 3,6 V 6 C 1.3,6 0,4.7 0,3 V 0 H 6 V 3 C 6,4.7 4.7,6 3,6 Z"/></g><g id="g292" transform="matrix(4.9783333,0,0,4.9783333,358.875,271.875)"><path id="path290" d="M 3,6 V 6 C 1.3,6 0,4.7 0,3 V 0 H 6 V 3 C 6,4.7 4.7,6 3,6 Z"/></g><g id="g296" transform="matrix(4.9783333,0,0,4.9783333,532.875,271.875)"><path id="path294" d="M 6,6 H 0 V 3 C 0,1.3 1.3,0 3,0 h 3 z"/></g><g id="g300" transform="matrix(4.9783333,0,0,4.9783333,561.875,271.875)"><path id="path298" d="M 3,6 H 0 V 0 H 6 V 3 C 6,4.7 4.7,6 3,6 Z"/></g><g id="g304" transform="matrix(4.9783333,0,0,4.9783333,677.875,271.875)"><path id="path302" d="M 6,6 H 0 V 3 C 0,1.3 1.3,0 3,0 v 0 c 1.7,0 3,1.3 3,3 z"/></g><g id="g308" transform="matrix(4.9783333,0,0,4.9783333,735.875,271.875)"><path id="path306" d="M 6,6 H 3 C 1.3,6 0,4.7 0,3 V 0 h 6 z"/></g><g id="g312" transform="matrix(4.9783333,0,0,4.9783333,764.875,271.875)"><rect id="rect310" width="6" height="6" x="0" y="0"/></g><g id="g316" transform="matrix(4.9783333,0,0,4.9783333,793.875,271.875)"><rect id="rect314" width="6" height="6" x="0" y="0"/></g><g id="g320" transform="matrix(4.9783333,0,0,4.9783333,822.875,271.875)"><path id="path318" d="M 3,6 H 0 V 0 H 3 C 4.7,0 6,1.3 6,3 V 3 C 6,4.7 4.7,6 3,6 Z"/></g><g id="g324" transform="matrix(4.9783333,0,0,4.9783333,909.875,271.875)"><path id="path322" d="M 6,6 H 0 V 3 C 0,1.3 1.3,0 3,0 h 3 z"/></g><g id="g328" transform="matrix(4.9783333,0,0,4.9783333,938.875,271.875)"><rect id="rect326" width="6" height="6" x="0" y="0"/></g><g id="g332" transform="matrix(4.9783333,0,0,4.9783333,967.875,271.875)"><path id="path330" d="M 6,6 H 0 V 0 h 3 c 1.7,0 3,1.3 3,3 z"/></g><g id="g336" transform="matrix(4.9783333,0,0,4.9783333,97.875,300.875)"><path id="path334" d="M 3,6 V 6 C 1.3,6 0,4.7 0,3 V 0 H 6 V 3 C 6,4.7 4.7,6 3,6 Z"/></g><g id="g340" transform="matrix(4.9783333,0,0,4.9783333,155.875,300.875)"><path id="path338" d="M 6,6 H 3 C 1.3,6 0,4.7 0,3 V 0 h 6 z"/></g><g id="g344" transform="matrix(4.9783333,0,0,4.9783333,184.875,300.875)"><path id="path342" d="M 3,6 H 0 V 0 H 3 C 4.7,0 6,1.3 6,3 V 3 C 6,4.7 4.7,6 3,6 Z"/></g><g id="g348" transform="matrix(4.9783333,0,0,4.9783333,300.875,300.875)"><path id="path346" d="M 6,6 H 0 V 3 C 0,1.3 1.3,0 3,0 v 0 c 1.7,0 3,1.3 3,3 z"/></g><g id="g352" transform="matrix(4.9783333,0,0,4.9783333,445.875,300.875)"><path id="path350" d="M 6,6 H 0 V 3 C 0,1.3 1.3,0 3,0 h 3 z"/></g><g id="g356" transform="matrix(4.9783333,0,0,4.9783333,474.875,300.875)"><path id="path354" d="M 6,6 H 0 V 0 h 3 c 1.7,0 3,1.3 3,3 z"/></g><g id="g360" transform="matrix(4.9783333,0,0,4.9783333,532.875,300.875)"><path id="path358" d="M 3,6 V 6 C 1.3,6 0,4.7 0,3 V 0 H 6 V 3 C 6,4.7 4.7,6 3,6 Z"/></g><g id="g364" transform="matrix(4.9783333,0,0,4.9783333,619.875,300.875)"><path id="path362" d="M 6,6 H 0 V 3 C 0,1.3 1.3,0 3,0 v 0 c 1.7,0 3,1.3 3,3 z"/></g><g id="g368" transform="matrix(4.9783333,0,0,4.9783333,677.875,300.875)"><rect id="rect366" width="6" height="6" x="0" y="0"/></g><g id="g372" transform="matrix(4.9783333,0,0,4.9783333,706.875,300.875)"><path id="path370" d="M 3,6 H 0 V 0 H 3 C 4.7,0 6,1.3 6,3 V 3 C 6,4.7 4.7,6 3,6 Z"/></g><g id="g376" transform="matrix(4.9783333,0,0,4.9783333,764.875,300.875)"><rect id="rect374" width="6" height="6" x="0" y="0"/></g><g id="g380" transform="matrix(4.9783333,0,0,4.9783333,793.875,300.875)"><rect id="rect378" width="6" height="6" x="0" y="0"/></g><g id="g384" transform="matrix(4.9783333,0,0,4.9783333,880.875,300.875)"><path id="path382" d="M 6,6 H 3 C 1.3,6 0,4.7 0,3 V 3 C 0,1.3 1.3,0 3,0 h 3 c 0,0 0,6 0,6 z"/></g><g id="g388" transform="matrix(4.9783333,0,0,4.9783333,909.875,300.875)"><rect id="rect386" width="6" height="6" x="0" y="0"/></g><g id="g392" transform="matrix(4.9783333,0,0,4.9783333,938.875,300.875)"><rect id="rect390" width="6" height="6" x="0" y="0"/></g><g id="g396" transform="matrix(4.9783333,0,0,4.9783333,967.875,300.875)"><path id="path394" d="M 3,6 H 0 V 0 H 6 V 3 C 6,4.7 4.7,6 3,6 Z"/></g><g id="g400" transform="matrix(4.9783333,0,0,4.9783333,39.875,329.875)"><path id="path398" d="M 6,6 H 0 V 3 C 0,1.3 1.3,0 3,0 v 0 c 1.7,0 3,1.3 3,3 z"/></g><g id="g404" transform="matrix(4.9783333,0,0,4.9783333,213.875,329.875)"><path id="path402" d="M 6,6 H 3 C 1.3,6 0,4.7 0,3 V 3 C 0,1.3 1.3,0 3,0 h 3 c 0,0 0,6 0,6 z"/></g><g id="g408" transform="matrix(4.9783333,0,0,4.9783333,242.875,329.875)"><path id="path406" d="M 6,6 H 0 V 0 h 3 c 1.7,0 3,1.3 3,3 z"/></g><g id="g412" transform="matrix(4.9783333,0,0,4.9783333,300.875,329.875)"><rect id="rect410" width="6" height="6" x="0" y="0"/></g><g id="g416" transform="matrix(4.9783333,0,0,4.9783333,329.875,329.875)"><rect id="rect414" width="6" height="6" x="0" y="0"/></g><g id="g420" transform="matrix(4.9783333,0,0,4.9783333,358.875,329.875)"><rect id="rect418" width="6" height="6" x="0" y="0"/></g><g id="g424" transform="matrix(4.9783333,0,0,4.9783333,387.875,329.875)"><rect id="rect422" width="6" height="6" x="0" y="0"/></g><g id="g428" transform="matrix(4.9783333,0,0,4.9783333,416.875,329.875)"><rect id="rect426" width="6" height="6" x="0" y="0"/></g><g id="g432" transform="matrix(4.9783333,0,0,4.9783333,445.875,329.875)"><rect id="rect430" width="6" height="6" x="0" y="0"/></g><g id="g436" transform="matrix(4.9783333,0,0,4.9783333,474.875,329.875)"><rect id="rect434" width="6" height="6" x="0" y="0"/></g><g id="g440" transform="matrix(4.9783333,0,0,4.9783333,503.875,329.875)"><path id="path438" d="M 3,6 H 0 V 0 H 3 C 4.7,0 6,1.3 6,3 V 3 C 6,4.7 4.7,6 3,6 Z"/></g><g id="g444" transform="matrix(4.9783333,0,0,4.9783333,590.875,329.875)"><path id="path442" d="M 6,6 H 0 V 3 C 0,1.3 1.3,0 3,0 h 3 z"/></g><g id="g448" transform="matrix(4.9783333,0,0,4.9783333,619.875,329.875)"><rect id="rect446" width="6" height="6" x="0" y="0"/></g><g id="g452" transform="matrix(4.9783333,0,0,4.9783333,677.875,329.875)"><path id="path450" d="M 3,6 V 6 C 1.3,6 0,4.7 0,3 V 0 H 6 V 3 C 6,4.7 4.7,6 3,6 Z"/></g><g id="g456" transform="matrix(4.9783333,0,0,4.9783333,764.875,329.875)"><path id="path454" d="M 6,6 H 3 C 1.3,6 0,4.7 0,3 V 0 h 6 z"/></g><g id="g460" transform="matrix(4.9783333,0,0,4.9783333,793.875,329.875)"><rect id="rect458" width="6" height="6" x="0" y="0"/></g><g id="g464" transform="matrix(4.9783333,0,0,4.9783333,822.875,329.875)"><path id="path462" d="M 3,6 H 0 V 0 H 3 C 4.7,0 6,1.3 6,3 V 3 C 6,4.7 4.7,6 3,6 Z"/></g><g id="g468" transform="matrix(4.9783333,0,0,4.9783333,909.875,329.875)"><rect id="rect466" width="6" height="6" x="0" y="0"/></g><g id="g472" transform="matrix(4.9783333,0,0,4.9783333,938.875,329.875)"><rect id="rect470" width="6" height="6" x="0" y="0"/></g><g id="g476" transform="matrix(4.9783333,0,0,4.9783333,39.875,358.875)"><path id="path474" d="M 6,6 H 3 C 1.3,6 0,4.7 0,3 V 0 h 6 z"/></g><g id="g480" transform="matrix(4.9783333,0,0,4.9783333,68.875,358.875)"><path id="path478" d="M 6,6 H 0 V 0 h 3 c 1.7,0 3,1.3 3,3 z"/></g><g id="g484" transform="matrix(4.9783333,0,0,4.9783333,155.875,358.875)"><path id="path482" d="M 6,6 H 0 V 3 C 0,1.3 1.3,0 3,0 h 3 z"/></g><g id="g488" transform="matrix(4.9783333,0,0,4.9783333,184.875,358.875)"><path id="path486" d="M 6,6 H 0 V 0 h 3 c 1.7,0 3,1.3 3,3 z"/></g><g id="g492" transform="matrix(4.9783333,0,0,4.9783333,242.875,358.875)"><path id="path490" d="M 3,6 V 6 C 1.3,6 0,4.7 0,3 V 0 H 6 V 3 C 6,4.7 4.7,6 3,6 Z"/></g><g id="g496" transform="matrix(4.9783333,0,0,4.9783333,300.875,358.875)"><path id="path494" d="M 6,6 H 3 C 1.3,6 0,4.7 0,3 V 0 h 6 z"/></g><g id="g500" transform="matrix(4.9783333,0,0,4.9783333,329.875,358.875)"><rect id="rect498" width="6" height="6" x="0" y="0"/></g><g id="g504" transform="matrix(4.9783333,0,0,4.9783333,358.875,358.875)"><path id="path502" d="M 3,6 H 0 V 0 H 6 V 3 C 6,4.7 4.7,6 3,6 Z"/></g><g id="g508" transform="matrix(4.9783333,0,0,4.9783333,416.875,358.875)"><rect id="rect506" width="6" height="6" x="0" y="0"/></g><g id="g512" transform="matrix(4.9783333,0,0,4.9783333,561.875,358.875)"><path id="path510" d="M 6,6 H 3 C 1.3,6 0,4.7 0,3 V 3 C 0,1.3 1.3,0 3,0 h 3 c 0,0 0,6 0,6 z"/></g><g id="g516" transform="matrix(4.9783333,0,0,4.9783333,590.875,358.875)"><rect id="rect514" width="6" height="6" x="0" y="0"/></g><g id="g520" transform="matrix(4.9783333,0,0,4.9783333,619.875,358.875)"><rect id="rect518" width="6" height="6" x="0" y="0"/></g><g id="g524" transform="matrix(4.9783333,0,0,4.9783333,706.875,358.875)"><path id="path522" d="M 6,6 H 0 V 3 C 0,1.3 1.3,0 3,0 v 0 c 1.7,0 3,1.3 3,3 z"/></g><g id="g528" transform="matrix(4.9783333,0,0,4.9783333,793.875,358.875)"><path id="path526" d="M 3,6 V 6 C 1.3,6 0,4.7 0,3 V 0 H 6 V 3 C 6,4.7 4.7,6 3,6 Z"/></g><g id="g532" transform="matrix(4.9783333,0,0,4.9783333,880.875,358.875)"><path id="path530" d="M 6,6 H 3 C 1.3,6 0,4.7 0,3 V 3 C 0,1.3 1.3,0 3,0 h 3 c 0,0 0,6 0,6 z"/></g><g id="g536" transform="matrix(4.9783333,0,0,4.9783333,909.875,358.875)"><rect id="rect534" width="6" height="6" x="0" y="0"/></g><g id="g540" transform="matrix(4.9783333,0,0,4.9783333,938.875,358.875)"><rect id="rect538" width="6" height="6" x="0" y="0"/></g><g id="g544" transform="matrix(4.9783333,0,0,4.9783333,68.875,387.875)"><rect id="rect542" width="6" height="6" x="0" y="0"/></g><g id="g548" transform="matrix(4.9783333,0,0,4.9783333,126.875,387.875)"><path id="path546" d="M 6,6 H 0 V 3 C 0,1.3 1.3,0 3,0 h 3 z"/></g><g id="g552" transform="matrix(4.9783333,0,0,4.9783333,155.875,387.875)"><rect id="rect550" width="6" height="6" x="0" y="0"/></g><g id="g556" transform="matrix(4.9783333,0,0,4.9783333,184.875,387.875)"><rect id="rect554" width="6" height="6" x="0" y="0"/></g><g id="g560" transform="matrix(4.9783333,0,0,4.9783333,213.875,387.875)"><path id="path558" d="M 3,6 H 0 V 0 H 3 C 4.7,0 6,1.3 6,3 V 3 C 6,4.7 4.7,6 3,6 Z"/></g><g id="g564" transform="matrix(4.9783333,0,0,4.9783333,271.875,387.875)"><path id="path562" d="M 6,6 H 0 V 3 C 0,1.3 1.3,0 3,0 v 0 c 1.7,0 3,1.3 3,3 z"/></g><g id="g568" transform="matrix(4.9783333,0,0,4.9783333,329.875,387.875)"><rect id="rect566" width="6" height="6" x="0" y="0"/></g><g id="g572" transform="matrix(4.9783333,0,0,4.9783333,416.875,387.875)"><rect id="rect570" width="6" height="6" x="0" y="0"/></g><g id="g576" transform="matrix(4.9783333,0,0,4.9783333,445.875,387.875)"><path id="path574" d="M 6,6 H 0 V 0 h 3 c 1.7,0 3,1.3 3,3 z"/></g><g id="g580" transform="matrix(4.9783333,0,0,4.9783333,503.875,387.875)"><circle id="circle578" cx="3" cy="3" r="3"/></g><g id="g584" transform="matrix(4.9783333,0,0,4.9783333,619.875,387.875)"><path id="path582" d="M 6,6 H 3 C 1.3,6 0,4.7 0,3 V 0 h 6 z"/></g><g id="g588" transform="matrix(4.9783333,0,0,4.9783333,648.875,387.875)"><rect id="rect586" width="6" height="6" x="0" y="0"/></g><g id="g592" transform="matrix(4.9783333,0,0,4.9783333,677.875,387.875)"><rect id="rect590" width="6" height="6" x="0" y="0"/></g><g id="g596" transform="matrix(4.9783333,0,0,4.9783333,706.875,387.875)"><rect id="rect594" width="6" height="6" x="0" y="0"/></g><g id="g600" transform="matrix(4.9783333,0,0,4.9783333,735.875,387.875)"><rect id="rect598" width="6" height="6" x="0" y="0"/></g><g id="g604" transform="matrix(4.9783333,0,0,4.9783333,764.875,387.875)"><path id="path602" d="M 3,6 H 0 V 0 H 3 C 4.7,0 6,1.3 6,3 V 3 C 6,4.7 4.7,6 3,6 Z"/></g><g id="g608" transform="matrix(4.9783333,0,0,4.9783333,822.875,387.875)"><circle id="circle606" cx="3" cy="3" r="3"/></g><g id="g612" transform="matrix(4.9783333,0,0,4.9783333,938.875,387.875)"><path id="path610" d="M 3,6 V 6 C 1.3,6 0,4.7 0,3 V 0 H 6 V 3 C 6,4.7 4.7,6 3,6 Z"/></g><g id="g616" transform="matrix(4.9783333,0,0,4.9783333,68.875,416.875)"><path id="path614" d="M 6,6 H 3 C 1.3,6 0,4.7 0,3 V 0 h 6 z"/></g><g id="g620" transform="matrix(4.9783333,0,0,4.9783333,97.875,416.875)"><rect id="rect618" width="6" height="6" x="0" y="0"/></g><g id="g624" transform="matrix(4.9783333,0,0,4.9783333,126.875,416.875)"><path id="path622" d="M 3,6 H 0 V 0 H 6 V 3 C 6,4.7 4.7,6 3,6 Z"/></g><g id="g628" transform="matrix(4.9783333,0,0,4.9783333,242.875,416.875)"><path id="path626" d="M 6,6 H 3 C 1.3,6 0,4.7 0,3 V 3 C 0,1.3 1.3,0 3,0 h 3 c 0,0 0,6 0,6 z"/></g><g id="g632" transform="matrix(4.9783333,0,0,4.9783333,271.875,416.875)"><rect id="rect630" width="6" height="6" x="0" y="0"/></g><g id="g636" transform="matrix(4.9783333,0,0,4.9783333,329.875,416.875)"><rect id="rect634" width="6" height="6" x="0" y="0"/></g><g id="g640" transform="matrix(4.9783333,0,0,4.9783333,358.875,416.875)"><path id="path638" d="M 3,6 H 0 V 0 H 3 C 4.7,0 6,1.3 6,3 V 3 C 6,4.7 4.7,6 3,6 Z"/></g><g id="g644" transform="matrix(4.9783333,0,0,4.9783333,416.875,416.875)"><path id="path642" d="M 6,6 H 3 C 1.3,6 0,4.7 0,3 V 0 h 6 z"/></g><g id="g648" transform="matrix(4.9783333,0,0,4.9783333,445.875,416.875)"><path id="path646" d="M 3,6 H 0 V 0 H 6 V 3 C 6,4.7 4.7,6 3,6 Z"/></g><g id="g652" transform="matrix(4.9783333,0,0,4.9783333,706.875,416.875)"><path id="path650" d="M 3,6 V 6 C 1.3,6 0,4.7 0,3 V 0 H 6 V 3 C 6,4.7 4.7,6 3,6 Z"/></g><g id="g656" transform="matrix(4.9783333,0,0,4.9783333,793.875,416.875)"><path id="path654" d="M 6,6 H 0 V 3 C 0,1.3 1.3,0 3,0 v 0 c 1.7,0 3,1.3 3,3 z"/></g><g id="g660" transform="matrix(4.9783333,0,0,4.9783333,851.875,416.875)"><path id="path658" d="M 6,6 H 0 V 3 C 0,1.3 1.3,0 3,0 v 0 c 1.7,0 3,1.3 3,3 z"/></g><g id="g664" transform="matrix(4.9783333,0,0,4.9783333,909.875,416.875)"><circle id="circle662" cx="3" cy="3" r="3"/></g><g id="g668" transform="matrix(4.9783333,0,0,4.9783333,967.875,416.875)"><circle id="circle666" cx="3" cy="3" r="3"/></g><g id="g672" transform="matrix(4.9783333,0,0,4.9783333,39.875,445.875)"><path id="path670" d="M 6,6 H 0 V 3 C 0,1.3 1.3,0 3,0 v 0 c 1.7,0 3,1.3 3,3 z"/></g><g id="g676" transform="matrix(4.9783333,0,0,4.9783333,184.875,445.875)"><path id="path674" d="M 6,6 H 0 V 3 C 0,1.3 1.3,0 3,0 h 3 z"/></g><g id="g680" transform="matrix(4.9783333,0,0,4.9783333,213.875,445.875)"><path id="path678" d="M 3,6 H 0 V 0 H 3 C 4.7,0 6,1.3 6,3 V 3 C 6,4.7 4.7,6 3,6 Z"/></g><g id="g684" transform="matrix(4.9783333,0,0,4.9783333,271.875,445.875)"><rect id="rect682" width="6" height="6" x="0" y="0"/></g><g id="g688" transform="matrix(4.9783333,0,0,4.9783333,300.875,445.875)"><rect id="rect686" width="6" height="6" x="0" y="0"/></g><g id="g692" transform="matrix(4.9783333,0,0,4.9783333,329.875,445.875)"><rect id="rect690" width="6" height="6" x="0" y="0"/></g><g id="g696" transform="matrix(4.9783333,0,0,4.9783333,387.875,445.875)"><circle id="circle694" cx="3" cy="3" r="3"/></g><g id="g700" transform="matrix(4.9783333,0,0,4.9783333,474.875,445.875)"><circle id="circle698" cx="3" cy="3" r="3"/></g><g id="g704" transform="matrix(4.9783333,0,0,4.9783333,619.875,445.875)"><circle id="circle702" cx="3" cy="3" r="3"/></g><g id="g708" transform="matrix(4.9783333,0,0,4.9783333,677.875,445.875)"><path id="path706" d="M 6,6 H 0 V 3 C 0,1.3 1.3,0 3,0 v 0 c 1.7,0 3,1.3 3,3 z"/></g><g id="g712" transform="matrix(4.9783333,0,0,4.9783333,764.875,445.875)"><path id="path710" d="M 6,6 H 0 V 3 C 0,1.3 1.3,0 3,0 h 3 z"/></g><g id="g716" transform="matrix(4.9783333,0,0,4.9783333,793.875,445.875)"><rect id="rect714" width="6" height="6" x="0" y="0"/></g><g id="g720" transform="matrix(4.9783333,0,0,4.9783333,822.875,445.875)"><rect id="rect718" width="6" height="6" x="0" y="0"/></g><g id="g724" transform="matrix(4.9783333,0,0,4.9783333,851.875,445.875)"><rect id="rect722" width="6" height="6" x="0" y="0"/></g><g id="g728" transform="matrix(4.9783333,0,0,4.9783333,880.875,445.875)"><path id="path726" d="M 6,6 H 0 V 0 h 3 c 1.7,0 3,1.3 3,3 z"/></g><g id="g732" transform="matrix(4.9783333,0,0,4.9783333,938.875,445.875)"><circle id="circle730" cx="3" cy="3" r="3"/></g><g id="g736" transform="matrix(4.9783333,0,0,4.9783333,39.875,474.875)"><rect id="rect734" width="6" height="6" x="0" y="0"/></g><g id="g740" transform="matrix(4.9783333,0,0,4.9783333,68.875,474.875)"><rect id="rect738" width="6" height="6" x="0" y="0"/></g><g id="g744" transform="matrix(4.9783333,0,0,4.9783333,97.875,474.875)"><path id="path742" d="M 3,6 H 0 V 0 H 3 C 4.7,0 6,1.3 6,3 V 3 C 6,4.7 4.7,6 3,6 Z"/></g><g id="g748" transform="matrix(4.9783333,0,0,4.9783333,155.875,474.875)"><path id="path746" d="M 6,6 H 0 V 3 C 0,1.3 1.3,0 3,0 h 3 z"/></g><g id="g752" transform="matrix(4.9783333,0,0,4.9783333,184.875,474.875)"><path id="path750" d="M 3,6 H 0 V 0 H 6 V 3 C 6,4.7 4.7,6 3,6 Z"/></g><g id="g756" transform="matrix(4.9783333,0,0,4.9783333,271.875,474.875)"><path id="path754" d="M 3,6 V 6 C 1.3,6 0,4.7 0,3 V 0 H 6 V 3 C 6,4.7 4.7,6 3,6 Z"/></g><g id="g760" transform="matrix(4.9783333,0,0,4.9783333,329.875,474.875)"><path id="path758" d="M 3,6 V 6 C 1.3,6 0,4.7 0,3 V 0 H 6 V 3 C 6,4.7 4.7,6 3,6 Z"/></g><g id="g764" transform="matrix(4.9783333,0,0,4.9783333,590.875,474.875)"><path id="path762" d="M 6,6 H 0 V 3 C 0,1.3 1.3,0 3,0 v 0 c 1.7,0 3,1.3 3,3 z"/></g><g id="g768" transform="matrix(4.9783333,0,0,4.9783333,648.875,474.875)"><path id="path766" d="M 6,6 H 3 C 1.3,6 0,4.7 0,3 V 3 C 0,1.3 1.3,0 3,0 h 3 c 0,0 0,6 0,6 z"/></g><g id="g772" transform="matrix(4.9783333,0,0,4.9783333,677.875,474.875)"><path id="path770" d="M 3,6 H 0 V 0 H 6 V 3 C 6,4.7 4.7,6 3,6 Z"/></g><g id="g776" transform="matrix(4.9783333,0,0,4.9783333,764.875,474.875)"><rect id="rect774" width="6" height="6" x="0" y="0"/></g><g id="g780" transform="matrix(4.9783333,0,0,4.9783333,793.875,474.875)"><path id="path778" d="M 3,6 H 0 V 0 H 6 V 3 C 6,4.7 4.7,6 3,6 Z"/></g><g id="g784" transform="matrix(4.9783333,0,0,4.9783333,851.875,474.875)"><rect id="rect782" width="6" height="6" x="0" y="0"/></g><g id="g788" transform="matrix(4.9783333,0,0,4.9783333,880.875,474.875)"><rect id="rect786" width="6" height="6" x="0" y="0"/></g><g id="g792" transform="matrix(4.9783333,0,0,4.9783333,909.875,474.875)"><path id="path790" d="M 3,6 H 0 V 0 H 3 C 4.7,0 6,1.3 6,3 V 3 C 6,4.7 4.7,6 3,6 Z"/></g><g id="g796" transform="matrix(4.9783333,0,0,4.9783333,39.875,503.875)"><rect id="rect794" width="6" height="6" x="0" y="0"/></g><g id="g800" transform="matrix(4.9783333,0,0,4.9783333,126.875,503.875)"><path id="path798" d="M 6,6 H 3 C 1.3,6 0,4.7 0,3 V 3 C 0,1.3 1.3,0 3,0 h 3 c 0,0 0,6 0,6 z"/></g><g id="g804" transform="matrix(4.9783333,0,0,4.9783333,155.875,503.875)"><path id="path802" d="M 3,6 H 0 V 0 H 6 V 3 C 6,4.7 4.7,6 3,6 Z"/></g><g id="g808" transform="matrix(4.9783333,0,0,4.9783333,213.875,503.875)"><circle id="circle806" cx="3" cy="3" r="3"/></g><g id="g812" transform="matrix(4.9783333,0,0,4.9783333,300.875,503.875)"><circle id="circle810" cx="3" cy="3" r="3"/></g><g id="g816" transform="matrix(4.9783333,0,0,4.9783333,445.875,503.875)"><path id="path814" d="M 6,6 H 3 C 1.3,6 0,4.7 0,3 V 3 C 0,1.3 1.3,0 3,0 h 3 c 0,0 0,6 0,6 z"/></g><g id="g820" transform="matrix(4.9783333,0,0,4.9783333,474.875,503.875)"><path id="path818" d="M 3,6 H 0 V 0 H 3 C 4.7,0 6,1.3 6,3 V 3 C 6,4.7 4.7,6 3,6 Z"/></g><g id="g824" transform="matrix(4.9783333,0,0,4.9783333,532.875,503.875)"><circle id="circle822" cx="3" cy="3" r="3"/></g><g id="g828" transform="matrix(4.9783333,0,0,4.9783333,590.875,503.875)"><rect id="rect826" width="6" height="6" x="0" y="0"/></g><g id="g832" transform="matrix(4.9783333,0,0,4.9783333,764.875,503.875)"><path id="path830" d="M 3,6 V 6 C 1.3,6 0,4.7 0,3 V 0 H 6 V 3 C 6,4.7 4.7,6 3,6 Z"/></g><g id="g836" transform="matrix(4.9783333,0,0,4.9783333,822.875,503.875)"><path id="path834" d="M 6,6 H 0 V 3 C 0,1.3 1.3,0 3,0 h 3 z"/></g><g id="g840" transform="matrix(4.9783333,0,0,4.9783333,851.875,503.875)"><rect id="rect838" width="6" height="6" x="0" y="0"/></g><g id="g844" transform="matrix(4.9783333,0,0,4.9783333,880.875,503.875)"><path id="path842" d="M 3,6 H 0 V 0 H 6 V 3 C 6,4.7 4.7,6 3,6 Z"/></g><g id="g848" transform="matrix(4.9783333,0,0,4.9783333,938.875,503.875)"><path id="path846" d="M 6,6 H 3 C 1.3,6 0,4.7 0,3 V 3 C 0,1.3 1.3,0 3,0 h 3 c 0,0 0,6 0,6 z"/></g><g id="g852" transform="matrix(4.9783333,0,0,4.9783333,967.875,503.875)"><path id="path850" d="M 6,6 H 0 V 0 h 3 c 1.7,0 3,1.3 3,3 z"/></g><g id="g856" transform="matrix(4.9783333,0,0,4.9783333,39.875,532.875)"><path id="path854" d="M 3,6 V 6 C 1.3,6 0,4.7 0,3 V 0 H 6 V 3 C 6,4.7 4.7,6 3,6 Z"/></g><g id="g860" transform="matrix(4.9783333,0,0,4.9783333,97.875,532.875)"><circle id="circle858" cx="3" cy="3" r="3"/></g><g id="g864" transform="matrix(4.9783333,0,0,4.9783333,358.875,532.875)"><path id="path862" d="M 6,6 H 3 C 1.3,6 0,4.7 0,3 V 3 C 0,1.3 1.3,0 3,0 h 3 c 0,0 0,6 0,6 z"/></g><g id="g868" transform="matrix(4.9783333,0,0,4.9783333,387.875,532.875)"><rect id="rect866" width="6" height="6" x="0" y="0"/></g><g id="g872" transform="matrix(4.9783333,0,0,4.9783333,416.875,532.875)"><path id="path870" d="M 6,6 H 0 V 0 h 3 c 1.7,0 3,1.3 3,3 z"/></g><g id="g876" transform="matrix(4.9783333,0,0,4.9783333,590.875,532.875)"><rect id="rect874" width="6" height="6" x="0" y="0"/></g><g id="g880" transform="matrix(4.9783333,0,0,4.9783333,619.875,532.875)"><rect id="rect878" width="6" height="6" x="0" y="0"/></g><g id="g884" transform="matrix(4.9783333,0,0,4.9783333,648.875,532.875)"><path id="path882" d="M 6,6 H 0 V 0 h 3 c 1.7,0 3,1.3 3,3 z"/></g><g id="g888" transform="matrix(4.9783333,0,0,4.9783333,706.875,532.875)"><path id="path886" d="M 6,6 H 3 C 1.3,6 0,4.7 0,3 V 3 C 0,1.3 1.3,0 3,0 h 3 c 0,0 0,6 0,6 z"/></g><g id="g892" transform="matrix(4.9783333,0,0,4.9783333,735.875,532.875)"><path id="path890" d="M 3,6 H 0 V 0 H 3 C 4.7,0 6,1.3 6,3 V 3 C 6,4.7 4.7,6 3,6 Z"/></g><g id="g896" transform="matrix(4.9783333,0,0,4.9783333,793.875,532.875)"><path id="path894" d="M 6,6 H 3 C 1.3,6 0,4.7 0,3 V 3 C 0,1.3 1.3,0 3,0 h 3 c 0,0 0,6 0,6 z"/></g><g id="g900" transform="matrix(4.9783333,0,0,4.9783333,822.875,532.875)"><rect id="rect898" width="6" height="6" x="0" y="0"/></g><g id="g904" transform="matrix(4.9783333,0,0,4.9783333,967.875,532.875)"><path id="path902" d="M 3,6 V 6 C 1.3,6 0,4.7 0,3 V 0 H 6 V 3 C 6,4.7 4.7,6 3,6 Z"/></g><g id="g908" transform="matrix(4.9783333,0,0,4.9783333,68.875,561.875)"><circle id="circle906" cx="3" cy="3" r="3"/></g><g id="g912" transform="matrix(4.9783333,0,0,4.9783333,155.875,561.875)"><path id="path910" d="M 6,6 H 3 C 1.3,6 0,4.7 0,3 V 3 C 0,1.3 1.3,0 3,0 h 3 c 0,0 0,6 0,6 z"/></g><g id="g916" transform="matrix(4.9783333,0,0,4.9783333,184.875,561.875)"><rect id="rect914" width="6" height="6" x="0" y="0"/></g><g id="g920" transform="matrix(4.9783333,0,0,4.9783333,213.875,561.875)"><rect id="rect918" width="6" height="6" x="0" y="0"/></g><g id="g924" transform="matrix(4.9783333,0,0,4.9783333,242.875,561.875)"><rect id="rect922" width="6" height="6" x="0" y="0"/></g><g id="g928" transform="matrix(4.9783333,0,0,4.9783333,271.875,561.875)"><rect id="rect926" width="6" height="6" x="0" y="0"/></g><g id="g932" transform="matrix(4.9783333,0,0,4.9783333,300.875,561.875)"><rect id="rect930" width="6" height="6" x="0" y="0"/></g><g id="g936" transform="matrix(4.9783333,0,0,4.9783333,329.875,561.875)"><path id="path934" d="M 6,6 H 0 V 0 h 3 c 1.7,0 3,1.3 3,3 z"/></g><g id="g940" transform="matrix(4.9783333,0,0,4.9783333,416.875,561.875)"><rect id="rect938" width="6" height="6" x="0" y="0"/></g><g id="g944" transform="matrix(4.9783333,0,0,4.9783333,445.875,561.875)"><path id="path942" d="M 3,6 H 0 V 0 H 3 C 4.7,0 6,1.3 6,3 V 3 C 6,4.7 4.7,6 3,6 Z"/></g><g id="g948" transform="matrix(4.9783333,0,0,4.9783333,590.875,561.875)"><path id="path946" d="M 6,6 H 3 C 1.3,6 0,4.7 0,3 V 0 h 6 z"/></g><g id="g952" transform="matrix(4.9783333,0,0,4.9783333,619.875,561.875)"><rect id="rect950" width="6" height="6" x="0" y="0"/></g><g id="g956" transform="matrix(4.9783333,0,0,4.9783333,648.875,561.875)"><rect id="rect954" width="6" height="6" x="0" y="0"/></g><g id="g960" transform="matrix(4.9783333,0,0,4.9783333,677.875,561.875)"><path id="path958" d="M 6,6 H 0 V 0 h 3 c 1.7,0 3,1.3 3,3 z"/></g><g id="g964" transform="matrix(4.9783333,0,0,4.9783333,822.875,561.875)"><path id="path962" d="M 6,6 H 3 C 1.3,6 0,4.7 0,3 V 0 h 6 z"/></g><g id="g968" transform="matrix(4.9783333,0,0,4.9783333,851.875,561.875)"><path id="path966" d="M 3,6 H 0 V 0 H 3 C 4.7,0 6,1.3 6,3 V 3 C 6,4.7 4.7,6 3,6 Z"/></g><g id="g972" transform="matrix(4.9783333,0,0,4.9783333,909.875,561.875)"><path id="path970" d="M 6,6 H 0 V 3 C 0,1.3 1.3,0 3,0 h 3 z"/></g><g id="g976" transform="matrix(4.9783333,0,0,4.9783333,938.875,561.875)"><path id="path974" d="M 6,6 H 0 V 0 h 3 c 1.7,0 3,1.3 3,3 z"/></g><g id="g980" transform="matrix(4.9783333,0,0,4.9783333,126.875,590.875)"><path id="path978" d="M 6,6 H 0 V 3 C 0,1.3 1.3,0 3,0 v 0 c 1.7,0 3,1.3 3,3 z"/></g><g id="g984" transform="matrix(4.9783333,0,0,4.9783333,271.875,590.875)"><path id="path982" d="M 3,6 V 6 C 1.3,6 0,4.7 0,3 V 0 H 6 V 3 C 6,4.7 4.7,6 3,6 Z"/></g><g id="g988" transform="matrix(4.9783333,0,0,4.9783333,329.875,590.875)"><path id="path986" d="M 6,6 H 3 C 1.3,6 0,4.7 0,3 V 0 h 6 z"/></g><g id="g992" transform="matrix(4.9783333,0,0,4.9783333,358.875,590.875)"><rect id="rect990" width="6" height="6" x="0" y="0"/></g><g id="g996" transform="matrix(4.9783333,0,0,4.9783333,387.875,590.875)"><rect id="rect994" width="6" height="6" x="0" y="0"/></g><g id="g1000" transform="matrix(4.9783333,0,0,4.9783333,416.875,590.875)"><rect id="rect998" width="6" height="6" x="0" y="0"/></g><g id="g1004" transform="matrix(4.9783333,0,0,4.9783333,532.875,590.875)"><circle id="circle1002" cx="3" cy="3" r="3"/></g><g id="g1008" transform="matrix(4.9783333,0,0,4.9783333,648.875,590.875)"><path id="path1006" d="M 6,6 H 3 C 1.3,6 0,4.7 0,3 V 0 h 6 z"/></g><g id="g1012" transform="matrix(4.9783333,0,0,4.9783333,677.875,590.875)"><rect id="rect1010" width="6" height="6" x="0" y="0"/></g><g id="g1016" transform="matrix(4.9783333,0,0,4.9783333,706.875,590.875)"><rect id="rect1014" width="6" height="6" x="0" y="0"/></g><g id="g1020" transform="matrix(4.9783333,0,0,4.9783333,735.875,590.875)"><rect id="rect1018" width="6" height="6" x="0" y="0"/></g><g id="g1024" transform="matrix(4.9783333,0,0,4.9783333,764.875,590.875)"><path id="path1022" d="M 3,6 H 0 V 0 H 3 C 4.7,0 6,1.3 6,3 V 3 C 6,4.7 4.7,6 3,6 Z"/></g><g id="g1028" transform="matrix(4.9783333,0,0,4.9783333,880.875,590.875)"><path id="path1026" d="M 6,6 H 0 V 3 C 0,1.3 1.3,0 3,0 h 3 z"/></g><g id="g1032" transform="matrix(4.9783333,0,0,4.9783333,909.875,590.875)"><rect id="rect1030" width="6" height="6" x="0" y="0"/></g><g id="g1036" transform="matrix(4.9783333,0,0,4.9783333,938.875,590.875)"><path id="path1034" d="M 3,6 H 0 V 0 H 6 V 3 C 6,4.7 4.7,6 3,6 Z"/></g><g id="g1040" transform="matrix(4.9783333,0,0,4.9783333,97.875,619.875)"><path id="path1038" d="M 6,6 H 0 V 3 C 0,1.3 1.3,0 3,0 h 3 z"/></g><g id="g1044" transform="matrix(4.9783333,0,0,4.9783333,126.875,619.875)"><rect id="rect1042" width="6" height="6" x="0" y="0"/></g><g id="g1048" transform="matrix(4.9783333,0,0,4.9783333,213.875,619.875)"><path id="path1046" d="M 6,6 H 3 C 1.3,6 0,4.7 0,3 V 3 C 0,1.3 1.3,0 3,0 h 3 c 0,0 0,6 0,6 z"/></g><g id="g1052" transform="matrix(4.9783333,0,0,4.9783333,242.875,619.875)"><path id="path1050" d="M 3,6 H 0 V 0 H 3 C 4.7,0 6,1.3 6,3 V 3 C 6,4.7 4.7,6 3,6 Z"/></g><g id="g1056" transform="matrix(4.9783333,0,0,4.9783333,300.875,619.875)"><path id="path1054" d="M 6,6 H 0 V 3 C 0,1.3 1.3,0 3,0 v 0 c 1.7,0 3,1.3 3,3 z"/></g><g id="g1060" transform="matrix(4.9783333,0,0,4.9783333,358.875,619.875)"><path id="path1058" d="M 3,6 V 6 C 1.3,6 0,4.7 0,3 V 0 H 6 V 3 C 6,4.7 4.7,6 3,6 Z"/></g><g id="g1064" transform="matrix(4.9783333,0,0,4.9783333,416.875,619.875)"><path id="path1062" d="M 6,6 H 3 C 1.3,6 0,4.7 0,3 V 0 h 6 z"/></g><g id="g1068" transform="matrix(4.9783333,0,0,4.9783333,445.875,619.875)"><path id="path1066" d="M 6,6 H 0 V 0 h 3 c 1.7,0 3,1.3 3,3 z"/></g><g id="g1072" transform="matrix(4.9783333,0,0,4.9783333,503.875,619.875)"><circle id="circle1070" cx="3" cy="3" r="3"/></g><g id="g1076" transform="matrix(4.9783333,0,0,4.9783333,590.875,619.875)"><circle id="circle1074" cx="3" cy="3" r="3"/></g><g id="g1080" transform="matrix(4.9783333,0,0,4.9783333,735.875,619.875)"><path id="path1078" d="M 3,6 V 6 C 1.3,6 0,4.7 0,3 V 0 H 6 V 3 C 6,4.7 4.7,6 3,6 Z"/></g><g id="g1084" transform="matrix(4.9783333,0,0,4.9783333,822.875,619.875)"><path id="path1082" d="M 6,6 H 3 C 1.3,6 0,4.7 0,3 V 3 C 0,1.3 1.3,0 3,0 h 3 c 0,0 0,6 0,6 z"/></g><g id="g1088" transform="matrix(4.9783333,0,0,4.9783333,851.875,619.875)"><rect id="rect1086" width="6" height="6" x="0" y="0"/></g><g id="g1092" transform="matrix(4.9783333,0,0,4.9783333,880.875,619.875)"><rect id="rect1090" width="6" height="6" x="0" y="0"/></g><g id="g1096" transform="matrix(4.9783333,0,0,4.9783333,39.875,648.875)"><path id="path1094" d="M 6,6 H 0 V 3 C 0,1.3 1.3,0 3,0 v 0 c 1.7,0 3,1.3 3,3 z"/></g><g id="g1100" transform="matrix(4.9783333,0,0,4.9783333,97.875,648.875)"><rect id="rect1098" width="6" height="6" x="0" y="0"/></g><g id="g1104" transform="matrix(4.9783333,0,0,4.9783333,126.875,648.875)"><rect id="rect1102" width="6" height="6" x="0" y="0"/></g><g id="g1108" transform="matrix(4.9783333,0,0,4.9783333,155.875,648.875)"><rect id="rect1106" width="6" height="6" x="0" y="0"/></g><g id="g1112" transform="matrix(4.9783333,0,0,4.9783333,184.875,648.875)"><path id="path1110" d="M 3,6 H 0 V 0 H 3 C 4.7,0 6,1.3 6,3 V 3 C 6,4.7 4.7,6 3,6 Z"/></g><g id="g1116" transform="matrix(4.9783333,0,0,4.9783333,300.875,648.875)"><path id="path1114" d="M 6,6 H 3 C 1.3,6 0,4.7 0,3 V 0 h 6 z"/></g><g id="g1120" transform="matrix(4.9783333,0,0,4.9783333,329.875,648.875)"><path id="path1118" d="M 3,6 H 0 V 0 H 3 C 4.7,0 6,1.3 6,3 V 3 C 6,4.7 4.7,6 3,6 Z"/></g><g id="g1124" transform="matrix(4.9783333,0,0,4.9783333,387.875,648.875)"><circle id="circle1122" cx="3" cy="3" r="3"/></g><g id="g1128" transform="matrix(4.9783333,0,0,4.9783333,445.875,648.875)"><path id="path1126" d="M 3,6 V 6 C 1.3,6 0,4.7 0,3 V 0 H 6 V 3 C 6,4.7 4.7,6 3,6 Z"/></g><g id="g1132" transform="matrix(4.9783333,0,0,4.9783333,532.875,648.875)"><circle id="circle1130" cx="3" cy="3" r="3"/></g><g id="g1136" transform="matrix(4.9783333,0,0,4.9783333,648.875,648.875)"><path id="path1134" d="M 6,6 H 0 V 3 C 0,1.3 1.3,0 3,0 v 0 c 1.7,0 3,1.3 3,3 z"/></g><g id="g1140" transform="matrix(4.9783333,0,0,4.9783333,764.875,648.875)"><circle id="circle1138" cx="3" cy="3" r="3"/></g><g id="g1144" transform="matrix(4.9783333,0,0,4.9783333,880.875,648.875)"><path id="path1142" d="M 6,6 H 3 C 1.3,6 0,4.7 0,3 V 0 h 6 z"/></g><g id="g1148" transform="matrix(4.9783333,0,0,4.9783333,909.875,648.875)"><path id="path1146" d="M 6,6 H 0 V 0 h 3 c 1.7,0 3,1.3 3,3 z"/></g><g id="g1152" transform="matrix(4.9783333,0,0,4.9783333,967.875,648.875)"><circle id="circle1150" cx="3" cy="3" r="3"/></g><g id="g1156" transform="matrix(4.9783333,0,0,4.9783333,39.875,677.875)"><rect id="rect1154" width="6" height="6" x="0" y="0"/></g><g id="g1160" transform="matrix(4.9783333,0,0,4.9783333,97.875,677.875)"><rect id="rect1158" width="6" height="6" x="0" y="0"/></g><g id="g1164" transform="matrix(4.9783333,0,0,4.9783333,126.875,677.875)"><rect id="rect1162" width="6" height="6" x="0" y="0"/></g><g id="g1168" transform="matrix(4.9783333,0,0,4.9783333,213.875,677.875)"><path id="path1166" d="M 6,6 H 3 C 1.3,6 0,4.7 0,3 V 3 C 0,1.3 1.3,0 3,0 h 3 c 0,0 0,6 0,6 z"/></g><g id="g1172" transform="matrix(4.9783333,0,0,4.9783333,242.875,677.875)"><rect id="rect1170" width="6" height="6" x="0" y="0"/></g><g id="g1176" transform="matrix(4.9783333,0,0,4.9783333,271.875,677.875)"><path id="path1174" d="M 6,6 H 0 V 0 h 3 c 1.7,0 3,1.3 3,3 z"/></g><g id="g1180" transform="matrix(4.9783333,0,0,4.9783333,561.875,677.875)"><path id="path1178" d="M 6,6 H 0 V 3 C 0,1.3 1.3,0 3,0 v 0 c 1.7,0 3,1.3 3,3 z"/></g><g id="g1184" transform="matrix(4.9783333,0,0,4.9783333,648.875,677.875)"><rect id="rect1182" width="6" height="6" x="0" y="0"/></g><g id="g1188" transform="matrix(4.9783333,0,0,4.9783333,677.875,677.875)"><rect id="rect1186" width="6" height="6" x="0" y="0"/></g><g id="g1192" transform="matrix(4.9783333,0,0,4.9783333,706.875,677.875)"><rect id="rect1190" width="6" height="6" x="0" y="0"/></g><g id="g1196" transform="matrix(4.9783333,0,0,4.9783333,735.875,677.875)"><path id="path1194" d="M 3,6 H 0 V 0 H 3 C 4.7,0 6,1.3 6,3 V 3 C 6,4.7 4.7,6 3,6 Z"/></g><g id="g1200" transform="matrix(4.9783333,0,0,4.9783333,909.875,677.875)"><rect id="rect1198" width="6" height="6" x="0" y="0"/></g><g id="g1204" transform="matrix(4.9783333,0,0,4.9783333,938.875,677.875)"><path id="path1202" d="M 3,6 H 0 V 0 H 3 C 4.7,0 6,1.3 6,3 V 3 C 6,4.7 4.7,6 3,6 Z"/></g><g id="g1208" transform="matrix(4.9783333,0,0,4.9783333,39.875,706.875)"><rect id="rect1206" width="6" height="6" x="0" y="0"/></g><g id="g1212" transform="matrix(4.9783333,0,0,4.9783333,97.875,706.875)"><path id="path1210" d="M 6,6 H 3 C 1.3,6 0,4.7 0,3 V 0 h 6 z"/></g><g id="g1216" transform="matrix(4.9783333,0,0,4.9783333,126.875,706.875)"><rect id="rect1214" width="6" height="6" x="0" y="0"/></g><g id="g1220" transform="matrix(4.9783333,0,0,4.9783333,271.875,706.875)"><path id="path1218" d="M 3,6 V 6 C 1.3,6 0,4.7 0,3 V 0 H 6 V 3 C 6,4.7 4.7,6 3,6 Z"/></g><g id="g1224" transform="matrix(4.9783333,0,0,4.9783333,358.875,706.875)"><circle id="circle1222" cx="3" cy="3" r="3"/></g><g id="g1228" transform="matrix(4.9783333,0,0,4.9783333,416.875,706.875)"><path id="path1226" d="M 6,6 H 0 V 3 C 0,1.3 1.3,0 3,0 v 0 c 1.7,0 3,1.3 3,3 z"/></g><g id="g1232" transform="matrix(4.9783333,0,0,4.9783333,503.875,706.875)"><path id="path1230" d="M 6,6 H 0 V 3 C 0,1.3 1.3,0 3,0 v 0 c 1.7,0 3,1.3 3,3 z"/></g><g id="g1236" transform="matrix(4.9783333,0,0,4.9783333,561.875,706.875)"><rect id="rect1234" width="6" height="6" x="0" y="0"/></g><g id="g1240" transform="matrix(4.9783333,0,0,4.9783333,590.875,706.875)"><path id="path1238" d="M 6,6 H 0 V 0 h 3 c 1.7,0 3,1.3 3,3 z"/></g><g id="g1244" transform="matrix(4.9783333,0,0,4.9783333,648.875,706.875)"><path id="path1242" d="M 3,6 V 6 C 1.3,6 0,4.7 0,3 V 0 H 6 V 3 C 6,4.7 4.7,6 3,6 Z"/></g><g id="g1248" transform="matrix(4.9783333,0,0,4.9783333,706.875,706.875)"><rect id="rect1246" width="6" height="6" x="0" y="0"/></g><g id="g1252" transform="matrix(4.9783333,0,0,4.9783333,822.875,706.875)"><path id="path1250" d="M 6,6 H 0 V 3 C 0,1.3 1.3,0 3,0 h 3 z"/></g><g id="g1256" transform="matrix(4.9783333,0,0,4.9783333,851.875,706.875)"><rect id="rect1254" width="6" height="6" x="0" y="0"/></g><g id="g1260" transform="matrix(4.9783333,0,0,4.9783333,880.875,706.875)"><rect id="rect1258" width="6" height="6" x="0" y="0"/></g><g id="g1264" transform="matrix(4.9783333,0,0,4.9783333,909.875,706.875)"><path id="path1262" d="M 3,6 H 0 V 0 H 6 V 3 C 6,4.7 4.7,6 3,6 Z"/></g><g id="g1268" transform="matrix(4.9783333,0,0,4.9783333,967.875,706.875)"><path id="path1266" d="M 6,6 H 0 V 3 C 0,1.3 1.3,0 3,0 v 0 c 1.7,0 3,1.3 3,3 z"/></g><g id="g1272" transform="matrix(4.9783333,0,0,4.9783333,39.875,735.875)"><path id="path1270" d="M 3,6 V 6 C 1.3,6 0,4.7 0,3 V 0 H 6 V 3 C 6,4.7 4.7,6 3,6 Z"/></g><g id="g1276" transform="matrix(4.9783333,0,0,4.9783333,126.875,735.875)"><path id="path1274" d="M 3,6 V 6 C 1.3,6 0,4.7 0,3 V 0 H 6 V 3 C 6,4.7 4.7,6 3,6 Z"/></g><g id="g1280" transform="matrix(4.9783333,0,0,4.9783333,213.875,735.875)"><path id="path1278" d="M 6,6 H 3 C 1.3,6 0,4.7 0,3 V 3 C 0,1.3 1.3,0 3,0 h 3 c 0,0 0,6 0,6 z"/></g><g id="g1284" transform="matrix(4.9783333,0,0,4.9783333,242.875,735.875)"><path id="path1282" d="M 3,6 H 0 V 0 H 3 C 4.7,0 6,1.3 6,3 V 3 C 6,4.7 4.7,6 3,6 Z"/></g><g id="g1288" transform="matrix(4.9783333,0,0,4.9783333,387.875,735.875)"><path id="path1286" d="M 6,6 H 3 C 1.3,6 0,4.7 0,3 V 3 C 0,1.3 1.3,0 3,0 h 3 c 0,0 0,6 0,6 z"/></g><g id="g1292" transform="matrix(4.9783333,0,0,4.9783333,416.875,735.875)"><path id="path1290" d="M 3,6 H 0 V 0 H 6 V 3 C 6,4.7 4.7,6 3,6 Z"/></g><g id="g1296" transform="matrix(4.9783333,0,0,4.9783333,474.875,735.875)"><path id="path1294" d="M 6,6 H 0 V 3 C 0,1.3 1.3,0 3,0 h 3 z"/></g><g id="g1300" transform="matrix(4.9783333,0,0,4.9783333,503.875,735.875)"><path id="path1298" d="M 3,6 H 0 V 0 H 6 V 3 C 6,4.7 4.7,6 3,6 Z"/></g><g id="g1304" transform="matrix(4.9783333,0,0,4.9783333,561.875,735.875)"><path id="path1302" d="M 6,6 H 3 C 1.3,6 0,4.7 0,3 V 0 h 6 z"/></g><g id="g1308" transform="matrix(4.9783333,0,0,4.9783333,590.875,735.875)"><rect id="rect1306" width="6" height="6" x="0" y="0"/></g><g id="g1312" transform="matrix(4.9783333,0,0,4.9783333,619.875,735.875)"><path id="path1310" d="M 3,6 H 0 V 0 H 3 C 4.7,0 6,1.3 6,3 V 3 C 6,4.7 4.7,6 3,6 Z"/></g><g id="g1316" transform="matrix(4.9783333,0,0,4.9783333,677.875,735.875)"><path id="path1314" d="M 6,6 H 3 C 1.3,6 0,4.7 0,3 V 3 C 0,1.3 1.3,0 3,0 h 3 c 0,0 0,6 0,6 z"/></g><g id="g1320" transform="matrix(4.9783333,0,0,4.9783333,706.875,735.875)"><rect id="rect1318" width="6" height="6" x="0" y="0"/></g><g id="g1324" transform="matrix(4.9783333,0,0,4.9783333,735.875,735.875)"><rect id="rect1322" width="6" height="6" x="0" y="0"/></g><g id="g1328" transform="matrix(4.9783333,0,0,4.9783333,764.875,735.875)"><rect id="rect1326" width="6" height="6" x="0" y="0"/></g><g id="g1332" transform="matrix(4.9783333,0,0,4.9783333,793.875,735.875)"><rect id="rect1330" width="6" height="6" x="0" y="0"/></g><g id="g1336" transform="matrix(4.9783333,0,0,4.9783333,822.875,735.875)"><rect id="rect1334" width="6" height="6" x="0" y="0"/></g><g id="g1340" transform="matrix(4.9783333,0,0,4.9783333,851.875,735.875)"><rect id="rect1338" width="6" height="6" x="0" y="0"/></g><g id="g1344" transform="matrix(4.9783333,0,0,4.9783333,938.875,735.875)"><path id="path1342" d="M 6,6 H 3 C 1.3,6 0,4.7 0,3 V 3 C 0,1.3 1.3,0 3,0 h 3 c 0,0 0,6 0,6 z"/></g><g id="g1348" transform="matrix(4.9783333,0,0,4.9783333,967.875,735.875)"><rect id="rect1346" width="6" height="6" x="0" y="0"/></g><g id="g1352" transform="matrix(4.9783333,0,0,4.9783333,271.875,764.875)"><circle id="circle1350" cx="3" cy="3" r="3"/></g><g id="g1356" transform="matrix(4.9783333,0,0,4.9783333,474.875,764.875)"><path id="path1354" d="M 3,6 V 6 C 1.3,6 0,4.7 0,3 V 0 H 6 V 3 C 6,4.7 4.7,6 3,6 Z"/></g><g id="g1360" transform="matrix(4.9783333,0,0,4.9783333,590.875,764.875)"><path id="path1358" d="M 3,6 V 6 C 1.3,6 0,4.7 0,3 V 0 H 6 V 3 C 6,4.7 4.7,6 3,6 Z"/></g><g id="g1364" transform="matrix(4.9783333,0,0,4.9783333,648.875,764.875)"><path id="path1362" d="M 6,6 H 0 V 3 C 0,1.3 1.3,0 3,0 v 0 c 1.7,0 3,1.3 3,3 z"/></g><g id="g1368" transform="matrix(4.9783333,0,0,4.9783333,735.875,764.875)"><rect id="rect1366" width="6" height="6" x="0" y="0"/></g><g id="g1372" transform="matrix(4.9783333,0,0,4.9783333,851.875,764.875)"><rect id="rect1370" width="6" height="6" x="0" y="0"/></g><g id="g1376" transform="matrix(4.9783333,0,0,4.9783333,880.875,764.875)"><rect id="rect1374" width="6" height="6" x="0" y="0"/></g><g id="g1380" transform="matrix(4.9783333,0,0,4.9783333,909.875,764.875)"><path id="path1378" d="M 6,6 H 0 V 0 h 3 c 1.7,0 3,1.3 3,3 z"/></g><g id="g1384" transform="matrix(4.9783333,0,0,4.9783333,967.875,764.875)"><path id="path1382" d="M 3,6 V 6 C 1.3,6 0,4.7 0,3 V 0 H 6 V 3 C 6,4.7 4.7,6 3,6 Z"/></g><g id="g1388" transform="matrix(4.9783333,0,0,4.9783333,329.875,793.875)"><path id="path1386" d="M 6,6 H 0 V 3 C 0,1.3 1.3,0 3,0 h 3 z"/></g><g id="g1392" transform="matrix(4.9783333,0,0,4.9783333,358.875,793.875)"><path id="path1390" d="M 6,6 H 0 V 0 h 3 c 1.7,0 3,1.3 3,3 z"/></g><g id="g1396" transform="matrix(4.9783333,0,0,4.9783333,416.875,793.875)"><path id="path1394" d="M 6,6 H 3 C 1.3,6 0,4.7 0,3 V 3 C 0,1.3 1.3,0 3,0 h 3 c 0,0 0,6 0,6 z"/></g><g id="g1400" transform="matrix(4.9783333,0,0,4.9783333,445.875,793.875)"><path id="path1398" d="M 3,6 H 0 V 0 H 3 C 4.7,0 6,1.3 6,3 V 3 C 6,4.7 4.7,6 3,6 Z"/></g><g id="g1404" transform="matrix(4.9783333,0,0,4.9783333,532.875,793.875)"><path id="path1402" d="M 6,6 H 0 V 3 C 0,1.3 1.3,0 3,0 v 0 c 1.7,0 3,1.3 3,3 z"/></g><g id="g1408" transform="matrix(4.9783333,0,0,4.9783333,648.875,793.875)"><rect id="rect1406" width="6" height="6" x="0" y="0"/></g><g id="g1412" transform="matrix(4.9783333,0,0,4.9783333,706.875,793.875)"><path id="path1410" d="M 6,6 H 0 V 3 C 0,1.3 1.3,0 3,0 h 3 z"/></g><g id="g1416" transform="matrix(4.9783333,0,0,4.9783333,735.875,793.875)"><rect id="rect1414" width="6" height="6" x="0" y="0"/></g><g id="g1420" transform="matrix(4.9783333,0,0,4.9783333,793.875,793.875)"><circle id="circle1418" cx="3" cy="3" r="3"/></g><g id="g1424" transform="matrix(4.9783333,0,0,4.9783333,851.875,793.875)"><rect id="rect1422" width="6" height="6" x="0" y="0"/></g><g id="g1428" transform="matrix(4.9783333,0,0,4.9783333,880.875,793.875)"><rect id="rect1426" width="6" height="6" x="0" y="0"/></g><g id="g1432" transform="matrix(4.9783333,0,0,4.9783333,909.875,793.875)"><rect id="rect1430" width="6" height="6" x="0" y="0"/></g><g id="g1436" transform="matrix(4.9783333,0,0,4.9783333,938.875,793.875)"><path id="path1434" d="M 6,6 H 0 V 0 h 3 c 1.7,0 3,1.3 3,3 z"/></g><g id="g1440" transform="matrix(4.9783333,0,0,4.9783333,329.875,822.875)"><rect id="rect1438" width="6" height="6" x="0" y="0"/></g><g id="g1444" transform="matrix(4.9783333,0,0,4.9783333,358.875,822.875)"><rect id="rect1442" width="6" height="6" x="0" y="0"/></g><g id="g1448" transform="matrix(4.9783333,0,0,4.9783333,474.875,822.875)"><path id="path1446" d="M 6,6 H 3 C 1.3,6 0,4.7 0,3 V 3 C 0,1.3 1.3,0 3,0 h 3 c 0,0 0,6 0,6 z"/></g><g id="g1452" transform="matrix(4.9783333,0,0,4.9783333,503.875,822.875)"><rect id="rect1450" width="6" height="6" x="0" y="0"/></g><g id="g1456" transform="matrix(4.9783333,0,0,4.9783333,532.875,822.875)"><rect id="rect1454" width="6" height="6" x="0" y="0"/></g><g id="g1460" transform="matrix(4.9783333,0,0,4.9783333,561.875,822.875)"><path id="path1458" d="M 6,6 H 0 V 0 h 3 c 1.7,0 3,1.3 3,3 z"/></g><g id="g1464" transform="matrix(4.9783333,0,0,4.9783333,619.875,822.875)"><path id="path1462" d="M 6,6 H 0 V 3 C 0,1.3 1.3,0 3,0 h 3 z"/></g><g id="g1468" transform="matrix(4.9783333,0,0,4.9783333,648.875,822.875)"><rect id="rect1466" width="6" height="6" x="0" y="0"/></g><g id="g1472" transform="matrix(4.9783333,0,0,4.9783333,677.875,822.875)"><rect id="rect1470" width="6" height="6" x="0" y="0"/></g><g id="g1476" transform="matrix(4.9783333,0,0,4.9783333,706.875,822.875)"><rect id="rect1474" width="6" height="6" x="0" y="0"/></g><g id="g1480" transform="matrix(4.9783333,0,0,4.9783333,735.875,822.875)"><rect id="rect1478" width="6" height="6" x="0" y="0"/></g><g id="g1484" transform="matrix(4.9783333,0,0,4.9783333,851.875,822.875)"><rect id="rect1482" width="6" height="6" x="0" y="0"/></g><g id="g1488" transform="matrix(4.9783333,0,0,4.9783333,880.875,822.875)"><rect id="rect1486" width="6" height="6" x="0" y="0"/></g><g id="g1492" transform="matrix(4.9783333,0,0,4.9783333,909.875,822.875)"><rect id="rect1490" width="6" height="6" x="0" y="0"/></g><g id="g1496" transform="matrix(4.9783333,0,0,4.9783333,938.875,822.875)"><rect id="rect1494" width="6" height="6" x="0" y="0"/></g><g id="g1500" transform="matrix(4.9783333,0,0,4.9783333,967.875,822.875)"><path id="path1498" d="M 6,6 H 0 V 0 h 3 c 1.7,0 3,1.3 3,3 z"/></g><g id="g1504" transform="matrix(4.9783333,0,0,4.9783333,271.875,851.875)"><path id="path1502" d="M 6,6 H 0 V 3 C 0,1.3 1.3,0 3,0 h 3 z"/></g><g id="g1508" transform="matrix(4.9783333,0,0,4.9783333,300.875,851.875)"><rect id="rect1506" width="6" height="6" x="0" y="0"/></g><g id="g1512" transform="matrix(4.9783333,0,0,4.9783333,329.875,851.875)"><rect id="rect1510" width="6" height="6" x="0" y="0"/></g><g id="g1516" transform="matrix(4.9783333,0,0,4.9783333,358.875,851.875)"><path id="path1514" d="M 3,6 H 0 V 0 H 6 V 3 C 6,4.7 4.7,6 3,6 Z"/></g><g id="g1520" transform="matrix(4.9783333,0,0,4.9783333,416.875,851.875)"><path id="path1518" d="M 6,6 H 0 V 3 C 0,1.3 1.3,0 3,0 h 3 z"/></g><g id="g1524" transform="matrix(4.9783333,0,0,4.9783333,445.875,851.875)"><path id="path1522" d="M 6,6 H 0 V 0 h 3 c 1.7,0 3,1.3 3,3 z"/></g><g id="g1528" transform="matrix(4.9783333,0,0,4.9783333,561.875,851.875)"><path id="path1526" d="M 3,6 V 6 C 1.3,6 0,4.7 0,3 V 0 H 6 V 3 C 6,4.7 4.7,6 3,6 Z"/></g><g id="g1532" transform="matrix(4.9783333,0,0,4.9783333,619.875,851.875)"><path id="path1530" d="M 6,6 H 3 C 1.3,6 0,4.7 0,3 V 0 h 6 z"/></g><g id="g1536" transform="matrix(4.9783333,0,0,4.9783333,648.875,851.875)"><path id="path1534" d="M 3,6 H 0 V 0 H 6 V 3 C 6,4.7 4.7,6 3,6 Z"/></g><g id="g1540" transform="matrix(4.9783333,0,0,4.9783333,735.875,851.875)"><path id="path1538" d="M 6,6 H 3 C 1.3,6 0,4.7 0,3 V 0 h 6 z"/></g><g id="g1544" transform="matrix(4.9783333,0,0,4.9783333,764.875,851.875)"><rect id="rect1542" width="6" height="6" x="0" y="0"/></g><g id="g1548" transform="matrix(4.9783333,0,0,4.9783333,793.875,851.875)"><rect id="rect1546" width="6" height="6" x="0" y="0"/></g><g id="g1552" transform="matrix(4.9783333,0,0,4.9783333,822.875,851.875)"><rect id="rect1550" width="6" height="6" x="0" y="0"/></g><g id="g1556" transform="matrix(4.9783333,0,0,4.9783333,851.875,851.875)"><rect id="rect1554" width="6" height="6" x="0" y="0"/></g><g id="g1560" transform="matrix(4.9783333,0,0,4.9783333,880.875,851.875)"><rect id="rect1558" width="6" height="6" x="0" y="0"/></g><g id="g1564" transform="matrix(4.9783333,0,0,4.9783333,938.875,851.875)"><rect id="rect1562" width="6" height="6" x="0" y="0"/></g><g id="g1568" transform="matrix(4.9783333,0,0,4.9783333,967.875,851.875)"><path id="path1566" d="M 3,6 H 0 V 0 H 6 V 3 C 6,4.7 4.7,6 3,6 Z"/></g><g id="g1572" transform="matrix(4.9783333,0,0,4.9783333,271.875,880.875)"><rect id="rect1570" width="6" height="6" x="0" y="0"/></g><g id="g1576" transform="matrix(4.9783333,0,0,4.9783333,300.875,880.875)"><rect id="rect1574" width="6" height="6" x="0" y="0"/></g><g id="g1580" transform="matrix(4.9783333,0,0,4.9783333,329.875,880.875)"><rect id="rect1578" width="6" height="6" x="0" y="0"/></g><g id="g1584" transform="matrix(4.9783333,0,0,4.9783333,416.875,880.875)"><path id="path1582" d="M 6,6 H 3 C 1.3,6 0,4.7 0,3 V 0 h 6 z"/></g><g id="g1588" transform="matrix(4.9783333,0,0,4.9783333,445.875,880.875)"><path id="path1586" d="M 3,6 H 0 V 0 H 6 V 3 C 6,4.7 4.7,6 3,6 Z"/></g><g id="g1592" transform="matrix(4.9783333,0,0,4.9783333,590.875,880.875)"><circle id="circle1590" cx="3" cy="3" r="3"/></g><g id="g1596" transform="matrix(4.9783333,0,0,4.9783333,677.875,880.875)"><path id="path1594" d="M 6,6 H 3 C 1.3,6 0,4.7 0,3 V 3 C 0,1.3 1.3,0 3,0 h 3 c 0,0 0,6 0,6 z"/></g><g id="g1600" transform="matrix(4.9783333,0,0,4.9783333,706.875,880.875)"><path id="path1598" d="M 3,6 H 0 V 0 H 3 C 4.7,0 6,1.3 6,3 V 3 C 6,4.7 4.7,6 3,6 Z"/></g><g id="g1604" transform="matrix(4.9783333,0,0,4.9783333,764.875,880.875)"><rect id="rect1602" width="6" height="6" x="0" y="0"/></g><g id="g1608" transform="matrix(4.9783333,0,0,4.9783333,851.875,880.875)"><path id="path1606" d="M 6,6 H 3 C 1.3,6 0,4.7 0,3 V 0 h 6 z"/></g><g id="g1612" transform="matrix(4.9783333,0,0,4.9783333,880.875,880.875)"><rect id="rect1610" width="6" height="6" x="0" y="0"/></g><g id="g1616" transform="matrix(4.9783333,0,0,4.9783333,909.875,880.875)"><rect id="rect1614" width="6" height="6" x="0" y="0"/></g><g id="g1620" transform="matrix(4.9783333,0,0,4.9783333,938.875,880.875)"><path id="path1618" d="M 3,6 H 0 V 0 H 6 V 3 C 6,4.7 4.7,6 3,6 Z"/></g><g id="g1624" transform="matrix(4.9783333,0,0,4.9783333,271.875,909.875)"><path id="path1622" d="M 6,6 H 3 C 1.3,6 0,4.7 0,3 V 0 h 6 z"/></g><g id="g1628" transform="matrix(4.9783333,0,0,4.9783333,300.875,909.875)"><rect id="rect1626" width="6" height="6" x="0" y="0"/></g><g id="g1632" transform="matrix(4.9783333,0,0,4.9783333,329.875,909.875)"><rect id="rect1630" width="6" height="6" x="0" y="0"/></g><g id="g1636" transform="matrix(4.9783333,0,0,4.9783333,358.875,909.875)"><rect id="rect1634" width="6" height="6" x="0" y="0"/></g><g id="g1640" transform="matrix(4.9783333,0,0,4.9783333,387.875,909.875)"><path id="path1638" d="M 3,6 H 0 V 0 H 3 C 4.7,0 6,1.3 6,3 V 3 C 6,4.7 4.7,6 3,6 Z"/></g><g id="g1644" transform="matrix(4.9783333,0,0,4.9783333,474.875,909.875)"><path id="path1642" d="M 6,6 H 0 V 3 C 0,1.3 1.3,0 3,0 h 3 z"/></g><g id="g1648" transform="matrix(4.9783333,0,0,4.9783333,503.875,909.875)"><path id="path1646" d="M 3,6 H 0 V 0 H 3 C 4.7,0 6,1.3 6,3 V 3 C 6,4.7 4.7,6 3,6 Z"/></g><g id="g1652" transform="matrix(4.9783333,0,0,4.9783333,619.875,909.875)"><circle id="circle1650" cx="3" cy="3" r="3"/></g><g id="g1656" transform="matrix(4.9783333,0,0,4.9783333,735.875,909.875)"><path id="path1654" d="M 6,6 H 3 C 1.3,6 0,4.7 0,3 V 3 C 0,1.3 1.3,0 3,0 h 3 c 0,0 0,6 0,6 z"/></g><g id="g1660" transform="matrix(4.9783333,0,0,4.9783333,764.875,909.875)"><rect id="rect1658" width="6" height="6" x="0" y="0"/></g><g id="g1664" transform="matrix(4.9783333,0,0,4.9783333,793.875,909.875)"><path id="path1662" d="M 3,6 H 0 V 0 H 3 C 4.7,0 6,1.3 6,3 V 3 C 6,4.7 4.7,6 3,6 Z"/></g><g id="g1668" transform="matrix(4.9783333,0,0,4.9783333,909.875,909.875)"><rect id="rect1666" width="6" height="6" x="0" y="0"/></g><g id="g1672" transform="matrix(4.9783333,0,0,4.9783333,329.875,938.875)"><rect id="rect1670" width="6" height="6" x="0" y="0"/></g><g id="g1676" transform="matrix(4.9783333,0,0,4.9783333,358.875,938.875)"><rect id="rect1674" width="6" height="6" x="0" y="0"/></g><g id="g1680" transform="matrix(4.9783333,0,0,4.9783333,416.875,938.875)"><path id="path1678" d="M 6,6 H 0 V 3 C 0,1.3 1.3,0 3,0 h 3 z"/></g><g id="g1684" transform="matrix(4.9783333,0,0,4.9783333,445.875,938.875)"><rect id="rect1682" width="6" height="6" x="0" y="0"/></g><g id="g1688" transform="matrix(4.9783333,0,0,4.9783333,474.875,938.875)"><rect id="rect1686" width="6" height="6" x="0" y="0"/></g><g id="g1692" transform="matrix(4.9783333,0,0,4.9783333,561.875,938.875)"><path id="path1690" d="M 6,6 H 0 V 3 C 0,1.3 1.3,0 3,0 v 0 c 1.7,0 3,1.3 3,3 z"/></g><g id="g1696" transform="matrix(4.9783333,0,0,4.9783333,648.875,938.875)"><path id="path1694" d="M 6,6 H 3 C 1.3,6 0,4.7 0,3 V 3 C 0,1.3 1.3,0 3,0 h 3 c 0,0 0,6 0,6 z"/></g><g id="g1700" transform="matrix(4.9783333,0,0,4.9783333,677.875,938.875)"><rect id="rect1698" width="6" height="6" x="0" y="0"/></g><g id="g1704" transform="matrix(4.9783333,0,0,4.9783333,706.875,938.875)"><path id="path1702" d="M 6,6 H 0 V 0 h 3 c 1.7,0 3,1.3 3,3 z"/></g><g id="g1708" transform="matrix(4.9783333,0,0,4.9783333,822.875,938.875)"><circle id="circle1706" cx="3" cy="3" r="3"/></g><g id="g1712" transform="matrix(4.9783333,0,0,4.9783333,909.875,938.875)"><rect id="rect1710" width="6" height="6" x="0" y="0"/></g><g id="g1716" transform="matrix(4.9783333,0,0,4.9783333,300.875,967.875)"><path id="path1714" d="M 6,6 H 3 C 1.3,6 0,4.7 0,3 V 3 C 0,1.3 1.3,0 3,0 h 3 c 0,0 0,6 0,6 z"/></g><g id="g1720" transform="matrix(4.9783333,0,0,4.9783333,329.875,967.875)"><rect id="rect1718" width="6" height="6" x="0" y="0"/></g><g id="g1724" transform="matrix(4.9783333,0,0,4.9783333,358.875,967.875)"><rect id="rect1722" width="6" height="6" x="0" y="0"/></g><g id="g1728" transform="matrix(4.9783333,0,0,4.9783333,387.875,967.875)"><rect id="rect1726" width="6" height="6" x="0" y="0"/></g><g id="g1732" transform="matrix(4.9783333,0,0,4.9783333,416.875,967.875)"><rect id="rect1730" width="6" height="6" x="0" y="0"/></g><g id="g1736" transform="matrix(4.9783333,0,0,4.9783333,445.875,967.875)"><rect id="rect1734" width="6" height="6" x="0" y="0"/></g><g id="g1740" transform="matrix(4.9783333,0,0,4.9783333,474.875,967.875)"><path id="path1738" d="M 3,6 H 0 V 0 H 6 V 3 C 6,4.7 4.7,6 3,6 Z"/></g><g id="g1744" transform="matrix(4.9783333,0,0,4.9783333,561.875,967.875)"><path id="path1742" d="M 3,6 V 6 C 1.3,6 0,4.7 0,3 V 0 H 6 V 3 C 6,4.7 4.7,6 3,6 Z"/></g><g id="g1748" transform="matrix(4.9783333,0,0,4.9783333,677.875,967.875)"><path id="path1746" d="M 6,6 H 3 C 1.3,6 0,4.7 0,3 V 0 h 6 z"/></g><g id="g1752" transform="matrix(4.9783333,0,0,4.9783333,706.875,967.875)"><rect id="rect1750" width="6" height="6" x="0" y="0"/></g><g id="g1756" transform="matrix(4.9783333,0,0,4.9783333,735.875,967.875)"><rect id="rect1754" width="6" height="6" x="0" y="0"/></g><g id="g1760" transform="matrix(4.9783333,0,0,4.9783333,764.875,967.875)"><path id="path1758" d="M 3,6 H 0 V 0 H 3 C 4.7,0 6,1.3 6,3 V 3 C 6,4.7 4.7,6 3,6 Z"/></g><g id="g1764" transform="matrix(4.9783333,0,0,4.9783333,909.875,967.875)"><path id="path1762" d="M 6,6 H 3 C 1.3,6 0,4.7 0,3 V 0 h 6 z"/></g><g id="g1768" transform="matrix(4.9783333,0,0,4.9783333,938.875,967.875)"><path id="path1766" d="M 3,6 H 0 V 0 H 3 C 4.7,0 6,1.3 6,3 V 3 C 6,4.7 4.7,6 3,6 Z"/></g></g></g></mask></defs><rect id="rect1779" width="1036.75" height="1079.948" x="0" y="0" fill="#000" mask="url(#qrmask)" style="fill:#43d0ff;fill-opacity:1" transform="translate(-39.875,-39.875)"/><g id="g1817" style="fill:#43d0ff;fill-opacity:1" transform="translate(-39.875,-39.875)"><g id="g1785" fill="#000" transform="translate(39.875,39.875)" style="fill:#43d0ff;fill-opacity:1"><g id="g1783" transform="scale(14.5)" style="fill:#43d0ff;fill-opacity:1"><path id="path1781" d="M 4.5,14 H 9.6 C 12,14 14,12 14,9.6 V 4.5 C 14,2 12,0 9.5,0 H 4.4 C 2,0 0,2 0,4.4 V 9.5 C 0,12 2,14 4.5,14 Z M 12,4.8 V 9.2 C 12,10.7 10.7,12 9.2,12 H 4.8 C 3.2,12 2,10.8 2,9.2 V 4.8 C 2,3.3 3.3,2 4.8,2 H 9.2 C 10.8,2 12,3.2 12,4.8 Z" style="fill:#43d0ff;fill-opacity:1"/></g></g><g id="g1791" fill="#000" transform="translate(97.875,97.875)" style="fill:#43d0ff;fill-opacity:1"><g id="g1789" transform="scale(14.5)" style="fill:#43d0ff;fill-opacity:1"><path id="path1787" d="M 6,1.7 V 4.4 C 6,5.2 5.2,6 4.3,6 H 1.7 C 0.7,6 0,5.3 0,4.3 V 1.7 C 0,0.8 0.8,0 1.7,0 H 4.4 C 5.3,0 6,0.7 6,1.7 Z" style="fill:#43d0ff;fill-opacity:1"/></g></g><g id="g1797" fill="#000" transform="translate(793.875,39.875)" style="fill:#43d0ff;fill-opacity:1"><g id="g1795" transform="scale(14.5)" style="fill:#43d0ff;fill-opacity:1"><path id="path1793" d="M 4.5,14 H 9.6 C 12,14 14,12 14,9.6 V 4.5 C 14,2 12,0 9.5,0 H 4.4 C 2,0 0,2 0,4.4 V 9.5 C 0,12 2,14 4.5,14 Z M 12,4.8 V 9.2 C 12,10.7 10.7,12 9.2,12 H 4.8 C 3.2,12 2,10.8 2,9.2 V 4.8 C 2,3.3 3.3,2 4.8,2 H 9.2 C 10.8,2 12,3.2 12,4.8 Z" style="fill:#43d0ff;fill-opacity:1"/></g></g><g id="g1803" fill="#000" transform="translate(851.875,97.875)" style="fill:#43d0ff;fill-opacity:1"><g id="g1801" transform="scale(14.5)" style="fill:#43d0ff;fill-opacity:1"><path id="path1799" d="M 6,1.7 V 4.4 C 6,5.2 5.2,6 4.3,6 H 1.7 C 0.7,6 0,5.3 0,4.3 V 1.7 C 0,0.8 0.8,0 1.7,0 H 4.4 C 5.3,0 6,0.7 6,1.7 Z" style="fill:#43d0ff;fill-opacity:1"/></g></g><g id="g1809" fill="#000" transform="translate(39.875,793.875)" style="fill:#43d0ff;fill-opacity:1"><g id="g1807" transform="scale(14.5)" style="fill:#43d0ff;fill-opacity:1"><path id="path1805" d="M 4.5,14 H 9.6 C 12,14 14,12 14,9.6 V 4.5 C 14,2 12,0 9.5,0 H 4.4 C 2,0 0,2 0,4.4 V 9.5 C 0,12 2,14 4.5,14 Z M 12,4.8 V 9.2 C 12,10.7 10.7,12 9.2,12 H 4.8 C 3.2,12 2,10.8 2,9.2 V 4.8 C 2,3.3 3.3,2 4.8,2 H 9.2 C 10.8,2 12,3.2 12,4.8 Z" style="fill:#43d0ff;fill-opacity:1"/></g></g><g id="g1815" fill="#000" transform="translate(97.875,851.875)" style="fill:#43d0ff;fill-opacity:1"><g id="g1813" transform="scale(14.5)" style="fill:#43d0ff;fill-opacity:1"><path id="path1811" d="M 6,1.7 V 4.4 C 6,5.2 5.2,6 4.3,6 H 1.7 C 0.7,6 0,5.3 0,4.3 V 1.7 C 0,0.8 0.8,0 1.7,0 H 4.4 C 5.3,0 6,0.7 6,1.7 Z" style="fill:#43d0ff;fill-opacity:1"/></g></g></g></svg>