<?xml version="1.0" encoding="UTF-8" standalone="no"?>
<svg
   xmlns:dc="http://purl.org/dc/elements/1.1/"
   xmlns:cc="http://creativecommons.org/ns#"
   xmlns:rdf="http://www.w3.org/1999/02/22-rdf-syntax-ns#"
   xmlns:svg="http://www.w3.org/2000/svg"
   xmlns="http://www.w3.org/2000/svg"
   xmlns:sodipodi="http://sodipodi.sourceforge.net/DTD/sodipodi-0.dtd"
   xmlns:inkscape="http://www.inkscape.org/namespaces/inkscape"
   width="16"
   height="15.603825"
   viewBox="0 0 16 15.603824"
   role="img"
   version="1.1"
   id="svg6"
   sodipodi:docname="github-white.svg"
   inkscape:version="0.92.5 (2060ec1f9f, 2020-04-08)">
  <metadata
     id="metadata12">
    <rdf:RDF>
      <cc:Work
         rdf:about="">
        <dc:format>image/svg+xml</dc:format>
        <dc:type
           rdf:resource="http://purl.org/dc/dcmitype/StillImage" />
        <dc:title>GitHub icon</dc:title>
      </cc:Work>
    </rdf:RDF>
  </metadata>
  <defs
     id="defs10" />
  <sodipodi:namedview
     pagecolor="#ffffff"
     bordercolor="#666666"
     borderopacity="1"
     objecttolerance="10"
     gridtolerance="10"
     guidetolerance="10"
     inkscape:pageopacity="0"
     inkscape:pageshadow="2"
     inkscape:window-width="1920"
     inkscape:window-height="1051"
     id="namedview8"
     showgrid="false"
     inkscape:zoom="9.8333333"
     inkscape:cx="-6.3559323"
     inkscape:cy="11.702736"
     inkscape:window-x="0"
     inkscape:window-y="0"
     inkscape:window-maximized="1"
     inkscape:current-layer="svg6"
     fit-margin-top="0"
     fit-margin-left="0"
     fit-margin-right="0"
     fit-margin-bottom="0" />
  <title
     id="title2">GitHub icon</title>
  <path
     d="M 8,0 C 3.58,0 0,3.582 0,8 c 0,3.535334 2.292,6.533334 5.47,7.59 0.4,0.07534 0.5466667,-0.172 0.5466667,-0.384666 0,-0.19 -0.00667,-0.693334 -0.010006,-1.36 C 3.7813333,14.328 3.312,12.772 3.312,12.772 c -0.364,-0.923333 -0.89,-1.17 -0.89,-1.17 -0.7246667,-0.496 0.056,-0.486 0.056,-0.486 0.8033333,0.056 1.2253333,0.824 1.2253333,0.824 0.7133334,1.223334 1.8726667,0.87 2.33,0.665334 0.072,-0.517334 0.278,-0.87 0.5066667,-1.07 -1.7766667,-0.2 -3.644,-0.888 -3.644,-3.953334 0,-0.873333 0.31,-1.5866659 0.8233333,-2.1466659 -0.09,-0.202 -0.36,-1.0153341 0.07,-2.1173341 0,0 0.67,-0.2146659 2.2,0.82 0.64,-0.178 1.32,-0.266 2,-0.27 0.68,0.00406 1.36,0.092 2,0.27 1.5199997,-1.0346659 2.1899997,-0.82 2.1899997,-0.82 0.43,1.102 0.16,1.9153341 0.08,2.1173341 0.51,0.56 0.82,1.2733329 0.82,2.1466659 0,3.073334 -1.87,3.75 -3.6499997,3.946667 0.28,0.24 0.54,0.730667 0.54,1.48 0,1.070667 -0.00999,1.930667 -0.00999,2.190667 0,0.21 0.1399997,0.46 0.5499997,0.38 C 13.71,14.53 16,11.53 16,8 16,3.582 12.418,0 8,0"
     id="path4"
     style="fill:#ffffff;fill-opacity:1;stroke-width:0.66666669"
     inkscape:connector-curvature="0" />
</svg>
