<?xml version="1.0" encoding="UTF-8" standalone="no"?>
<svg
   xmlns:dc="http://purl.org/dc/elements/1.1/"
   xmlns:cc="http://creativecommons.org/ns#"
   xmlns:rdf="http://www.w3.org/1999/02/22-rdf-syntax-ns#"
   xmlns:svg="http://www.w3.org/2000/svg"
   xmlns="http://www.w3.org/2000/svg"
   xmlns:sodipodi="http://sodipodi.sourceforge.net/DTD/sodipodi-0.dtd"
   xmlns:inkscape="http://www.inkscape.org/namespaces/inkscape"
   id="Layer_1"
   data-name="Layer 1"
   viewBox="0 0 24 24"
   version="1.1"
   sodipodi:docname="Cloud-blue-24.svg"
   inkscape:version="0.92.5 (2060ec1f9f, 2020-04-08)">
  <metadata
     id="metadata12">
    <rdf:RDF>
      <cc:Work
         rdf:about="">
        <dc:format>image/svg+xml</dc:format>
        <dc:type
           rdf:resource="http://purl.org/dc/dcmitype/StillImage" />
      </cc:Work>
    </rdf:RDF>
  </metadata>
  <defs
     id="defs10" />
  <sodipodi:namedview
     pagecolor="#ffffff"
     bordercolor="#666666"
     borderopacity="1"
     objecttolerance="10"
     gridtolerance="10"
     guidetolerance="10"
     inkscape:pageopacity="0"
     inkscape:pageshadow="2"
     inkscape:window-width="1920"
     inkscape:window-height="1051"
     id="namedview8"
     showgrid="false"
     inkscape:zoom="9.8333333"
     inkscape:cx="12"
     inkscape:cy="12"
     inkscape:window-x="0"
     inkscape:window-y="0"
     inkscape:window-maximized="1"
     inkscape:current-layer="Layer_1" />
  <title
     id="title2">Artboard 1</title>
  <g
     id="Templates"
     style="fill:#49adff;fill-opacity:1"
     transform="matrix(1.4424606,0,0,1.4424606,-5.3220801,-5.1302798)">
    <path
       d="m 17,10.57 a 3,3 0 0 1 1.18,0.23 3.11,3.11 0 0 1 1,0.64 2.82,2.82 0 0 1 0.65,1 3,3 0 0 1 -1.6,3.95 3.08,3.08 0 0 1 -1.16,0.23 H 8 A 4,4 0 0 1 6.44,16.31 4,4 0 0 1 6.44,8.93 4,4 0 0 1 8,8.57 3.54,3.54 0 0 1 8.73,8.64 4.63,4.63 0 0 1 9.45,7.77 a 4.72,4.72 0 0 1 0.89,-0.65 4.58,4.58 0 0 1 1,-0.41 4.79,4.79 0 0 1 1.13,-0.14 4.37,4.37 0 0 1 1.64,0.3 4.55,4.55 0 0 1 1.36,0.84 4.39,4.39 0 0 1 1,1.27 4.66,4.66 0 0 1 0.53,1.59 z"
       style="fill:#49adff;fill-opacity:1"
       id="path4"
       inkscape:connector-curvature="0" />
  </g>
</svg>
