<?xml version="1.0" encoding="UTF-8" standalone="no"?>
<!-- Generator: Adobe Illustrator 19.1.0, SVG Export Plug-In . SVG Version: 6.00 Build 0)  -->

<svg
   xmlns:dc="http://purl.org/dc/elements/1.1/"
   xmlns:cc="http://creativecommons.org/ns#"
   xmlns:rdf="http://www.w3.org/1999/02/22-rdf-syntax-ns#"
   xmlns:svg="http://www.w3.org/2000/svg"
   xmlns="http://www.w3.org/2000/svg"
   xmlns:sodipodi="http://sodipodi.sourceforge.net/DTD/sodipodi-0.dtd"
   xmlns:inkscape="http://www.inkscape.org/namespaces/inkscape"
   version="1.1"
   id="Capa_1"
   x="0px"
   y="0px"
   viewBox="0 0 474 474"
   style="enable-background:new 0 0 474 474;"
   xml:space="preserve"
   sodipodi:docname="mail-svgrepo-com.svg"
   inkscape:version="0.92.5 (2060ec1f9f, 2020-04-08)"><metadata
   id="metadata41"><rdf:RDF><cc:Work
       rdf:about=""><dc:format>image/svg+xml</dc:format><dc:type
         rdf:resource="http://purl.org/dc/dcmitype/StillImage" /></cc:Work></rdf:RDF></metadata><defs
   id="defs39" /><sodipodi:namedview
   pagecolor="#ffffff"
   bordercolor="#666666"
   borderopacity="1"
   objecttolerance="10"
   gridtolerance="10"
   guidetolerance="10"
   inkscape:pageopacity="0"
   inkscape:pageshadow="2"
   inkscape:window-width="795"
   inkscape:window-height="480"
   id="namedview37"
   showgrid="false"
   inkscape:zoom="0.4978903"
   inkscape:cx="237"
   inkscape:cy="237"
   inkscape:window-x="0"
   inkscape:window-y="0"
   inkscape:window-maximized="0"
   inkscape:current-layer="Capa_1" />
<g
   id="g4"
   style="fill:#0078d7;fill-opacity:1">
	<path
   d="M437.5,59.3h-401C16.4,59.3,0,75.7,0,95.8v282.4c0,20.1,16.4,36.5,36.5,36.5h401c20.1,0,36.5-16.4,36.5-36.5V95.8   C474,75.7,457.6,59.3,437.5,59.3z M432.2,86.3L239.5,251.1L46.8,86.3H432.2z M447,378.2c0,5.2-4.3,9.5-9.5,9.5h-401   c-5.2,0-9.5-4.3-9.5-9.5V104.9l203.7,174.2c0.1,0.1,0.3,0.2,0.4,0.3c0.1,0.1,0.3,0.2,0.4,0.3c0.3,0.2,0.5,0.4,0.8,0.5   c0.1,0.1,0.2,0.1,0.3,0.2c0.4,0.2,0.8,0.4,1.2,0.6c0.1,0,0.2,0.1,0.3,0.1c0.3,0.1,0.6,0.3,1,0.4c0.1,0,0.3,0.1,0.4,0.1   c0.3,0.1,0.6,0.2,0.9,0.2c0.1,0,0.3,0.1,0.4,0.1c0.3,0.1,0.7,0.1,1,0.2c0.1,0,0.2,0,0.3,0c0.4,0,0.9,0.1,1.3,0.1l0,0l0,0   c0.4,0,0.9,0,1.3-0.1c0.1,0,0.2,0,0.3,0c0.3,0,0.7-0.1,1-0.2c0.1,0,0.3-0.1,0.4-0.1c0.3-0.1,0.6-0.2,0.9-0.2c0.1,0,0.3-0.1,0.4-0.1   c0.3-0.1,0.6-0.2,1-0.4c0.1,0,0.2-0.1,0.3-0.1c0.4-0.2,0.8-0.4,1.2-0.6c0.1-0.1,0.2-0.1,0.3-0.2c0.3-0.2,0.5-0.3,0.8-0.5   c0.1-0.1,0.3-0.2,0.4-0.3c0.1-0.1,0.3-0.2,0.4-0.3L447,109.2V378.2z"
   id="path2"
   style="fill:#0078d7;fill-opacity:1" />
</g>
<g
   id="g6"
   style="fill:#0078d7;fill-opacity:1">
</g>
<g
   id="g8"
   style="fill:#0078d7;fill-opacity:1">
</g>
<g
   id="g10"
   style="fill:#0078d7;fill-opacity:1">
</g>
<g
   id="g12"
   style="fill:#0078d7;fill-opacity:1">
</g>
<g
   id="g14"
   style="fill:#0078d7;fill-opacity:1">
</g>
<g
   id="g16"
   style="fill:#0078d7;fill-opacity:1">
</g>
<g
   id="g18"
   style="fill:#0078d7;fill-opacity:1">
</g>
<g
   id="g20"
   style="fill:#0078d7;fill-opacity:1">
</g>
<g
   id="g22"
   style="fill:#0078d7;fill-opacity:1">
</g>
<g
   id="g24"
   style="fill:#0078d7;fill-opacity:1">
</g>
<g
   id="g26"
   style="fill:#0078d7;fill-opacity:1">
</g>
<g
   id="g28"
   style="fill:#0078d7;fill-opacity:1">
</g>
<g
   id="g30"
   style="fill:#0078d7;fill-opacity:1">
</g>
<g
   id="g32"
   style="fill:#0078d7;fill-opacity:1">
</g>
<g
   id="g34"
   style="fill:#0078d7;fill-opacity:1">
</g>
</svg>