<svg xmlns="http://www.w3.org/2000/svg" xmlns:svg="http://www.w3.org/2000/svg" id="svg5" width="70mm" height="70mm" version="1.1" viewBox="0 0 70 70" xml:space="preserve"><g id="layer1" transform="translate(-76.313301,-206.31051)"><path style="fill:#000;stroke-width:.264583" id="path302" d="m 92.02519,266.12688 c -5.59947,-1.9602 -13.957038,-6.68373 -14.309321,-8.08733 -1.64515,-6.55481 1.517331,-22.47786 6.260621,-31.52209 3.55744,-6.78314 4.01468,-7.16083 11.23564,-9.281 1.58721,-0.46603 2.68612,-0.73384 6.10381,-1.48756 0.45676,-0.10074 0.69574,0.18554 1.44116,1.72641 0.8936,1.84717 0.8936,1.84717 2.62744,1.6467 2.23904,-0.25888 9.9599,-0.25888 12.19893,0 1.73384,0.20047 1.73384,0.20047 2.62744,-1.6467 0.74543,-1.54087 0.98441,-1.82715 1.44116,-1.72641 12.47258,2.75064 13.40554,3.32311 17.24387,10.58098 4.46761,8.44778 6.45473,16.70388 6.45473,26.81819 0,5.68587 0.16538,5.24143 -2.64583,7.11056 -7.45174,4.95458 -14.2898,7.44337 -15.55835,5.66266 -1.79036,-2.51319 -2.93303,-4.79871 -2.39917,-4.79871 0.46885,0 5.25752,-2.40358 5.25752,-2.63892 0,-0.93478 -1.31671,-1.05172 -3.22779,-0.28667 -9.76847,3.91054 -20.81761,3.91054 -30.58609,0 -1.91108,-0.76505 -3.22779,-0.64811 -3.22779,0.28667 0,0.23534 4.78867,2.63892 5.25753,2.63892 0.48037,0 0.37107,0.27492 -1.04633,2.6316 -2.275,3.78262 -1.77707,3.55318 -5.14918,2.3727 z m 10.68302,-16.01186 c 5.23097,-2.6067 4.58322,-11.09441 -0.96995,-12.70954 -4.1911,-1.21898 -8.03665,2.37816 -7.65293,7.15856 0.3834,4.77625 4.65689,7.52731 8.62288,5.55098 z m 22.2119,0.27902 c 4.03472,-1.68082 5.30857,-7.53452 2.40592,-11.05593 -4.15204,-5.03715 -11.92767,-0.59272 -10.55246,6.03163 0.83237,4.00952 4.76314,6.43378 8.14654,5.0243 z"/></g></svg>