<svg xmlns="http://www.w3.org/2000/svg" width="24" height="24" viewBox="0 0 24 24"><path style="fill:#000" d="M12 .3c-6.6 0-12 5.4-12 12 0 5 3 10 8 11.3.6.113.8-.258.8-.5 0-.2-.0-1.0-.0-2.04-3.3.7-4.0-1.61-4.0-1.6C4.4 18 4 18 4 17.7c-1.0-.7.0-.7.0-.7 1.2.0 2 1 2 1 1 2 3 1 3.5.9.1-.7.4-1.3.76-1.6-2.7-.3-5.5-1.3-5.5-5.9 0-1.31.5-2.4 1.2-3-.1-.3-.5-1.5.1-3.2 0 0 1-.3 3 1.2.9-.3 2-.4 3-.4 1.0.0 2.0.1 3 .4 2.3-1.6 3.3-1.2 3.3-1.2.6 1.7.2 2.9.1 3.2.8.8 1 2 1 3 0 4.6-2.8 5.6-5.5 5.9.42.36.81 1.0.8 2.2 0 1.6-.0 3-.0 3 0 0.3.2.7.8.5 C 20.5 22 24 18 24 12.3c0-7-5-12-12-12"/></svg>