<?xml version="1.0" encoding="UTF-8" standalone="no"?>
<svg
   xmlns:dc="http://purl.org/dc/elements/1.1/"
   xmlns:cc="http://creativecommons.org/ns#"
   xmlns:rdf="http://www.w3.org/1999/02/22-rdf-syntax-ns#"
   xmlns:svg="http://www.w3.org/2000/svg"
   xmlns="http://www.w3.org/2000/svg"
   xmlns:sodipodi="http://sodipodi.sourceforge.net/DTD/sodipodi-0.dtd"
   xmlns:inkscape="http://www.inkscape.org/namespaces/inkscape"
   width="73.289589mm"
   height="68.942795mm"
   viewBox="0 0 73.289589 68.942795"
   version="1.1"
   id="svg8"
   inkscape:version="1.0.1 (1.0.1+r73)"
   sodipodi:docname="easyEDA.svg">
  <defs
     id="defs2" />
  <sodipodi:namedview
     id="base"
     pagecolor="#ffffff"
     bordercolor="#666666"
     borderopacity="1.0"
     inkscape:pageopacity="0.0"
     inkscape:pageshadow="2"
     inkscape:zoom="0.35"
     inkscape:cx="147.93339"
     inkscape:cy="220.15564"
     inkscape:document-units="mm"
     inkscape:current-layer="layer1"
     inkscape:document-rotation="0"
     showgrid="false"
     fit-margin-top="0"
     fit-margin-left="0"
     fit-margin-right="0"
     fit-margin-bottom="0"
     inkscape:window-width="1437"
     inkscape:window-height="688"
     inkscape:window-x="0"
     inkscape:window-y="0"
     inkscape:window-maximized="0" />
  <metadata
     id="metadata5">
    <rdf:RDF>
      <cc:Work
         rdf:about="">
        <dc:format>image/svg+xml</dc:format>
        <dc:type
           rdf:resource="http://purl.org/dc/dcmitype/StillImage" />
        <dc:title></dc:title>
      </cc:Work>
    </rdf:RDF>
  </metadata>
  <g
     inkscape:label="Layer 1"
     inkscape:groupmode="layer"
     id="layer1"
     transform="translate(-66.692623,-89.917153)">
    <path
       style="fill:#2699fb;fill-opacity:1;stroke-width:0.264583"
       d="m 96.061375,158.57818 c 0,-0.15496 0.59378,-1.38322 1.31951,-2.72945 l 1.31952,-2.44769 -1.31655,-4.21586 c -0.7241,-2.31872 -1.31788,-4.36469 -1.31951,-4.54659 -0.002,-0.21916 0.42641,-0.33073 1.2699,-0.33073 h 1.27287 l 0.88478,2.91974 0.884775,2.91973 1.55854,-2.91973 1.55854,-2.91974 h 1.4652 1.46519 l -1.64631,3.10886 c -0.90547,1.70987 -2.65273,4.98409 -3.8828,7.27604 l -2.236495,4.16719 h -1.29858 c -0.74211,0 -1.29858,-0.12074 -1.29858,-0.28177 z m -17.607971,-3.94847 c -2.976172,-1.90741 -2.775754,-7.43921 0.349092,-9.63543 1.958565,-1.37653 5.051465,-1.17957 5.883262,0.37466 0.158147,0.2955 0.553601,0.52642 0.901488,0.52642 1.239709,0 1.323859,0.46461 0.851377,4.70095 -0.239112,2.14391 -0.433996,3.98731 -0.433081,4.09645 0.003,0.35368 -1.187019,0.20999 -1.796534,-0.21693 -0.547412,-0.38343 -0.661183,-0.37325 -1.479164,0.13229 -1.162716,0.71859 -3.173048,0.72875 -4.27644,0.0216 z m 3.671764,-2.21596 c 1.182426,-0.49405 1.857835,-1.6156 1.879701,-3.12134 0.03161,-2.17666 -1.612657,-3.21028 -3.529782,-2.2189 -0.690687,0.35717 -1.059229,0.97044 -1.480745,2.46403 -0.287787,1.01973 0.356985,2.44997 1.286899,2.85461 1.029771,0.44808 0.828851,0.44573 1.843927,0.0216 z m 6.567577,1.94662 c -0.60392,-0.43747 -1.09804,-0.93225 -1.09804,-1.0995 0,-0.16726 0.30627,-0.70563 0.68059,-1.19639 l 0.68059,-0.8923 0.79492,0.66888 c 0.89729,0.75503 2.01342,0.87847 2.25482,0.24939 0.11028,-0.28738 -0.34507,-0.89154 -1.44574,-1.91823 -1.74424,-1.62701 -2.11889,-2.47953 -1.7462,-3.97353 0.47742,-1.91382 3.13926,-2.77546 5.00739,-1.62089 1.09806,0.67864 1.27705,1.15997 0.7851,2.1113 -0.55682,1.07676 -0.88121,1.19272 -1.558,0.5569 -0.62064,-0.58306 -1.34881,-0.72625 -1.60286,-0.3152 -0.0821,0.13293 0.6252,1.00491 1.57189,1.93774 1.64339,1.61932 1.72125,1.75343 1.72125,2.96444 0,1.1206 -0.11968,1.38807 -1.0272,2.2956 -0.94272,0.94272 -1.14619,1.0272 -2.47384,1.0272 -1.18817,0 -1.64283,-0.14212 -2.54467,-0.79541 z m -22.00012,0.34505 c 0,-0.25077 1.562009,-12.15743 1.737167,-13.24183 l 0.138895,-0.85989 h 3.947452 c 3.63194,0 3.969343,0.0409 4.221344,0.51177 0.907371,1.69544 -0.07675,2.39864 -3.356854,2.39864 -2.368124,0 -2.454797,0.021 -2.458283,0.59532 -0.002,0.32742 -0.0754,0.8632 -0.16315,1.19062 -0.156411,0.58365 -0.114857,0.59531 2.120279,0.59531 1.927039,0 2.3617,0.0819 2.808984,0.52917 0.659117,0.65912 0.675758,1.37282 0.04531,1.94337 -0.375716,0.34002 -1.022686,0.43788 -2.894802,0.43788 -1.326021,0 -2.462638,0.0893 -2.525815,0.19844 -0.06318,0.10914 -0.197834,0.88304 -0.299237,1.71979 l -0.184369,1.52135 h 2.526481 c 2.40295,0 2.547672,0.0324 2.959885,0.66146 0.401483,0.61274 0.401483,0.71018 0,1.32292 -0.431397,0.65839 -0.452371,0.66146 -4.528346,0.66146 -2.252219,0 -4.094943,-0.0836 -4.094943,-0.18578 z m 39.687505,-0.27539 c 0,-0.6661 1.58667,-13.10196 1.72188,-13.4956 0.0838,-0.24398 1.11132,-0.33073 3.91735,-0.33073 3.349,0 3.85611,0.0578 4.24164,0.48385 0.58191,0.64301 0.55254,1.25357 -0.0913,1.8974 -0.45397,0.45397 -0.88194,0.52916 -3.01185,0.52916 -2.69524,0 -2.79491,0.0635 -2.80537,1.78594 -0.003,0.56755 0.0941,0.59531 2.09142,0.59531 2.48743,0 2.89219,0.12528 3.22393,0.99784 0.18551,0.48793 0.14396,0.82499 -0.15865,1.28684 -0.38515,0.5878 -0.56795,0.62574 -3.01512,0.62574 h -2.60512 l -0.164,0.99219 c -0.0902,0.5457 -0.16531,1.31961 -0.16691,1.71979 l -0.003,0.7276 h 2.36235 c 2.55434,0 3.1939,0.28459 3.1939,1.42119 0,1.11746 -0.40988,1.22465 -4.68312,1.22465 -3.67277,0 -4.04813,-0.0428 -4.04813,-0.46117 z m 10.58333,0.25752 c 0,-0.46357 1.59928,-12.94342 1.73233,-13.51809 0.14255,-0.61571 0.18417,-0.62325 2.84419,-0.51484 3.19607,0.13026 4.51287,0.67523 5.74656,2.37829 1.05287,1.45345 1.40225,2.87421 1.25693,5.11141 -0.20318,3.12827 -2.01563,5.81455 -4.36288,6.46638 -1.14761,0.3187 -7.21713,0.38332 -7.21713,0.0768 z m 6.60934,-3.0375 c 1.52654,-0.77992 2.21188,-2.08948 2.1921,-4.18877 -0.0166,-1.76527 -0.69272,-3.1345 -1.79593,-3.63715 -0.7528,-0.343 -2.77108,-0.42418 -2.77407,-0.11158 -0.001,0.10914 -0.23917,1.96756 -0.52917,4.12982 -0.29,2.16225 -0.52727,4.03749 -0.52727,4.16718 0,0.469 2.27983,0.23035 3.43434,-0.3595 z m 3.974,3.0436 c 0,-0.10864 1.57758,-3.32233 3.50573,-7.14151 l 3.50573,-6.94397 1.10664,-0.002 c 1.18436,-0.002 1.14049,-0.0558 1.6292,1.98214 0.61884,2.58055 0.6333,2.43216 -0.29276,3.00449 -0.64767,0.40029 -1.13598,0.49717 -1.95333,0.38754 -1.42857,-0.19161 -2.20955,0.51209 -2.20955,1.99092 0,2.16306 2.76323,2.8412 3.51047,0.86152 0.23995,-0.6358 1.3713,-1.61438 1.86628,-1.61438 0.15292,0 1.767,6.63849 1.767,7.26743 0,0.30942 -0.30898,0.40549 -1.30415,0.40549 h -1.30416 l -0.3021,-1.45521 -0.3021,-1.45521 h -2.49766 -2.49766 l -0.7137,1.45521 -0.7137,1.45521 h -1.40009 c -0.77005,0 -1.40009,-0.0889 -1.40009,-0.19755 z m 6.33159,-6.30692 c -0.46407,-0.55918 -0.001,-1.30074 0.81216,-1.30074 0.81321,0 1.27623,0.74156 0.81215,1.30074 -0.19128,0.23048 -0.55675,0.41905 -0.81215,0.41905 -0.25541,0 -0.62088,-0.18857 -0.81216,-0.41905 z M 89.579085,134.42738 c -2.66904,-0.88098 -4.580724,-2.31573 -5.989324,-4.49511 -0.922483,-1.42727 -1.159211,-1.61721 -2.675976,-2.14721 -2.39378,-0.83646 -4.039406,-1.87874 -6.187368,-3.91889 -3.1199,-2.96329 -4.594208,-6.37993 -4.594208,-10.64685 0,-4.17583 1.314103,-7.27655 4.373139,-10.31875 3.480829,-3.461671 6.845207,-4.909081 11.865136,-5.104581 l 3.141401,-0.12234 1.57971,-1.55537 c 4.45363,-4.38502 11.675805,-6.8251 17.944895,-6.06285 7.37227,0.89638 13.29912,4.66649 16.69456,10.619501 0.82077,1.43901 1.05772,1.64209 3.05803,2.62091 3.63037,1.77647 6.3029,4.65788 7.50608,8.09276 0.4523,1.29126 0.53328,2.05823 0.46136,4.36989 -0.0835,2.68345 -0.13518,2.90053 -1.20476,5.05903 -2.00425,4.04474 -5.92382,6.93031 -10.52793,7.75061 -2.52499,0.44987 -6.99345,0.50352 -8.44197,0.10136 -2.82195,-0.78348 -3.4303,-3.97718 -1.05576,-5.54249 0.66402,-0.43773 1.26046,-0.51173 4.13632,-0.51323 1.84823,-0.001 3.96352,-0.13108 4.70066,-0.28917 2.81371,-0.60343 4.99042,-2.85747 5.60596,-5.80511 0.25205,-1.20701 0.22938,-1.69843 -0.13617,-2.95186 -0.92996,-3.18878 -3.36168,-5.10369 -6.93435,-5.46063 l -1.79514,-0.17934 -0.30645,-1.36317 c -0.9985,-4.44165 -4.56534,-8.055421 -9.6543,-9.781311 -2.04261,-0.69274 -6.95322,-0.69274 -8.99583,0 -3.772995,1.27959 -7.021485,3.849461 -8.573355,6.782351 -0.42248,0.79844 -0.80121,1.4931 -0.84164,1.5437 -0.0404,0.0506 -0.76632,-0.17736 -1.61311,-0.50656 -1.95627,-0.76052 -5.906623,-0.83502 -7.757319,-0.14628 -3.048203,1.13438 -5.377579,3.61041 -6.233939,6.62643 -1.072464,3.77711 0.798486,8.09815 4.341287,10.02638 l 1.310687,0.71337 0.669166,-1.14184 c 2.023687,-3.45316 6.376728,-5.54524 10.597598,-5.09322 1.7447,0.18684 4.59131,1.39027 6.008015,2.53994 l 0.68552,0.55631 6.97394,-3.33279 c 5.16155,-2.46665 7.02716,-3.24546 7.17874,-2.9968 0.11263,0.18479 0.86625,1.3833 1.6747,2.66336 l 1.46992,2.32737 -5.10084,2.45073 c -2.80546,1.3479 -6.07061,2.9031 -7.25589,3.45601 l -2.15507,1.00529 -0.18108,1.69095 c -0.36738,3.43054 -2.49054,6.25209 -5.912315,7.85711 -1.53133,0.71829 -2.10295,0.83851 -4.28086,0.90035 -1.56142,0.0443 -2.91443,-0.061 -3.57187,-0.27796 z m 5.08448,-6.17178 c 1.79829,-0.85334 2.4504,-3.0621 1.40852,-4.77083 -1.35382,-2.22035 -5.27196,-2.23738 -6.61851,-0.0288 -1.89039,3.10061 1.74085,6.44582 5.20999,4.7996 z"
       id="path849" />
    <path
       style="fill:#000000;stroke-width:0.264583"
       id="path847"
       d="" />
  </g>
</svg>
