<?xml version="1.0" encoding="UTF-8" standalone="no"?>
<svg
   xmlns:dc="http://purl.org/dc/elements/1.1/"
   xmlns:cc="http://creativecommons.org/ns#"
   xmlns:rdf="http://www.w3.org/1999/02/22-rdf-syntax-ns#"
   xmlns:svg="http://www.w3.org/2000/svg"
   xmlns="http://www.w3.org/2000/svg"
   xmlns:sodipodi="http://sodipodi.sourceforge.net/DTD/sodipodi-0.dtd"
   xmlns:inkscape="http://www.inkscape.org/namespaces/inkscape"
   width="146.39891mm"
   height="189.06372mm"
   viewBox="0 0 146.39891 189.06372"
   version="1.1"
   id="svg8"
   inkscape:version="1.0.1 (1.0.1+r73)"
   sodipodi:docname="pi.svg">
  <defs
     id="defs2" />
  <sodipodi:namedview
     id="base"
     pagecolor="#ffffff"
     bordercolor="#666666"
     borderopacity="1.0"
     inkscape:pageopacity="0.0"
     inkscape:pageshadow="2"
     inkscape:zoom="0.35"
     inkscape:cx="83.41272"
     inkscape:cy="72.417409"
     inkscape:document-units="mm"
     inkscape:current-layer="layer1"
     inkscape:document-rotation="0"
     showgrid="false"
     fit-margin-top="0"
     fit-margin-left="0"
     fit-margin-right="0"
     fit-margin-bottom="0"
     inkscape:window-width="1920"
     inkscape:window-height="1054"
     inkscape:window-x="0"
     inkscape:window-y="0"
     inkscape:window-maximized="1" />
  <metadata
     id="metadata5">
    <rdf:RDF>
      <cc:Work
         rdf:about="">
        <dc:format>image/svg+xml</dc:format>
        <dc:type
           rdf:resource="http://purl.org/dc/dcmitype/StillImage" />
        <dc:title></dc:title>
      </cc:Work>
    </rdf:RDF>
  </metadata>
  <g
     inkscape:label="Layer 1"
     inkscape:groupmode="layer"
     id="layer1"
     transform="translate(-12.178714,-58.343409)">
    <path
       style="fill:#2699fb;fill-opacity:1;stroke-width:0.264583"
       d="m 93.165031,246.72795 c 5.99928,-1.59276 11.545979,-4.82843 15.279169,-8.91314 1.03471,-1.13214 1.78233,-1.647 3.39444,-2.33766 4.40666,-1.8879 8.98904,-4.46721 12.61775,-7.10224 1.03738,-0.7533 2.61384,-1.59124 3.66867,-1.95001 4.26797,-1.45163 8.79993,-4.44312 12.18921,-8.04596 5.18468,-5.51134 7.93032,-12.03808 8.51566,-20.24278 0.0958,-1.34342 0.49159,-3.47673 0.90803,-4.89478 0.40599,-1.38245 0.94972,-3.40651 1.20829,-4.49792 0.37785,-1.59482 0.74415,-2.34796 1.86595,-3.83646 2.55447,-3.38948 4.36265,-7.37231 5.30395,-11.68284 0.54799,-2.50944 0.62487,-8.47157 0.13935,-10.80674 -1.44541,-6.95183 -4.80111,-12.65739 -10.0106,-17.02061 -1.04417,-0.87454 -2.05974,-1.68892 -2.25683,-1.80974 -0.19708,-0.12081 -0.66328,-0.75543 -1.03598,-1.41028 -0.56569,-0.99391 -0.70319,-1.64963 -0.8322,-3.96875 -0.54309,-9.7622 -5.42484,-18.33856 -13.47853,-23.67935 -2.5242,-1.67392 -2.63897,-2.04583 -0.72571,-2.35178 1.57757,-0.25226 3.87612,-1.17907 4.75198,-1.91606 0.42748,-0.3597 0.92934,-1.07463 1.11525,-1.58875 0.28369,-0.78453 0.64382,-1.08387 2.24091,-1.86265 2.45366,-1.19646 3.66236,-2.40259 4.0935,-4.08481 0.22459,-0.8763 0.55337,-1.44092 1.00987,-1.73428 2.7555,-1.77072 4.23103,-3.73762 4.24293,-5.65588 0.005,-0.75711 0.23422,-1.16126 1.19508,-2.10428 1.44301,-1.41621 2.11334,-3.00895 1.90865,-4.53505 -0.13101,-0.9767 -0.0343,-1.24817 0.8725,-2.44954 0.56091,-0.74311 1.14719,-1.68628 1.30283,-2.09594 0.3255,-0.85669 0.34274,-2.45158 0.0349,-3.22392 -0.144,-0.36123 -0.0524,-0.75453 0.28875,-1.23929 1.39582,-1.98362 1.55027,-4.38441 0.39187,-6.0914 -0.59024,-0.86977 -0.59196,-0.89629 -0.12553,-1.93496 0.85288,-1.89921 0.49978,-3.9982 -0.89968,-5.34809 -1.13099,-1.09092 -2.00071,-1.39355 -4.00495,-1.39355 -1.54187,0 -1.69355,-0.0551 -2.25985,-0.82107 -0.91973,-1.244 -2.57118,-1.84628 -5.5348,-2.0185 -2.15812,-0.12542 -2.67192,-0.24454 -3.29627,-0.76422 -0.96079,-0.79971 -2.66192,-1.24673 -4.11933,-1.08246 -0.99085,0.11169 -1.3326,0.009 -2.33988,-0.70034 -1.06257,-0.74869 -1.35451,-0.82654 -2.94348,-0.78492 -0.97015,0.0254 -2.29124,0.20678 -2.93574,0.40306 -1.08553,0.33059 -1.25932,0.31258 -2.35995,-0.24463 -1.5757,-0.79772 -2.55918,-0.75901 -5.04206,0.19849 -1.69381,0.65321 -2.20518,0.75031 -2.78682,0.52917 -1.30544,-0.49633 -2.65846,-0.30727 -4.52539,0.63235 -1.42184,0.71562 -1.92658,0.85299 -2.43033,0.66146 -1.71236,-0.65104 -3.56415,0.0142 -5.94391,2.13522 -1.2765,1.13773 -1.64481,1.32722 -2.579679,1.32722 -1.71019,0 -2.63621,0.55412 -4.91173,2.93911 -3.26247,3.41941 -5.65526,7.41309 -7.17422,11.97411 l -0.71515,2.14741 -0.75301,-2.24099 c -1.52405,-4.53566 -3.95055,-8.63408 -7.11411,-12.01593 -1.82559,-1.95157 -3.3463,-2.80371 -5.00344,-2.80371 -1.01558,0 -1.31001,-0.15353 -2.55819,-1.33402 -2.13719,-2.02126 -4.33322,-2.79753 -6.0322,-2.13232 -0.3536,0.13845 -1.03611,-0.0723 -2.20204,-0.68006 -1.78797,-0.93195 -3.26306,-1.12135 -4.73554,-0.60804 -0.64805,0.22591 -1.04863,0.15476 -2.33724,-0.41512 -2.25826,-0.99871 -3.72363,-1.10926 -5.31651,-0.40107 -1.28797,0.57261 -1.32131,0.57379 -3.48426,0.1224 -2.47147,-0.51576 -3.687,-0.32359 -5.01412,0.79272 -0.62731,0.52766 -0.94564,0.60223 -2.09775,0.49142 -1.53768,-0.1479 -3.03223,0.24906 -4.19803,1.11501 -0.63267,0.46994 -1.277,0.61955 -3.175,0.73722 -2.9095,0.18037 -4.12644,0.59485 -5.38414,1.83378 -0.91071,0.89712 -1.08058,0.957 -2.97482,1.04854 -1.68449,0.0814 -2.15923,0.2117 -2.93933,0.80671 -1.75619,1.33951 -2.42484,4.08687 -1.44846,5.95144 0.42847,0.81824 0.42123,0.88758 -0.21806,2.08993 -0.91828,1.72704 -0.8849,3.33169 0.10858,5.22033 0.67614,1.28536 0.74015,1.59544 0.52608,2.54821 -0.37296,1.65992 0.1265,3.17045 1.60519,4.85458 0.68345,0.7784 0.77183,1.07197 0.75163,2.49658 -0.0261,1.83767 0.69789,3.38005 2.22415,4.73859 0.69717,0.62056 0.88,0.99609 0.92029,1.89027 0.0735,1.63203 0.9296,2.90396 3.10783,4.61762 1.71923,1.35254 1.95335,1.64484 2.11197,2.63678 0.23463,1.4673 1.84116,3.02257 4.17033,4.03727 1.42847,0.6223 1.78393,0.90572 2.04644,1.6317 0.55128,1.52452 1.70516,2.40627 4.14396,3.16665 l 2.23506,0.69685 -2.01956,1.1509 c -2.72548,1.55318 -4.45025,2.92085 -6.8466,5.42909 -2.1918,2.29413 -4.45631,5.56945 -5.53144,8.00051 -1.6914,3.82455 -2.80373,8.83025 -2.80575,12.62636 -7.9e-4,1.71395 -0.11351,2.2111 -0.77902,3.43958 -0.47514,0.87706 -1.28771,1.82468 -2.0875,2.43446 -1.88801,1.43943 -5.03002,4.81087 -6.34359,6.8068 -4.97211,7.55495 -6.14737,16.72357 -3.2516,25.36687 0.96532,2.88127 2.8169,6.33078 4.55784,8.49128 1.08238,1.34323 1.33535,1.92384 2.16868,4.97745 0.51885,1.90126 1.44193,4.74596 2.05128,6.32155 0.60935,1.5756 1.32455,3.89394 1.58934,5.15188 1.41163,6.70631 4.15218,11.98885 8.55307,16.4865 2.76167,2.8224 6.89336,5.70945 9.68002,6.76401 0.50933,0.19274 1.93808,1.08468 3.175,1.98208 4.54776,3.29945 9.47978,6.05284 14.73993,8.22884 1.91909,0.79388 2.62433,1.26052 4.03378,2.66907 4.1181,4.11547 9.87441,7.13335 16.0512,8.41525 2.70338,0.56104 10.1502,0.35335 12.82881,-0.35779 z m -10.55425,-5.34481 c -2.39518,-0.29788 -6.26055,-1.57106 -8.5059,-2.80167 -3.39513,-1.86077 -7.0671,-5.14341 -8.25209,-7.37712 -0.53937,-1.01673 -0.56656,-1.23573 -0.27445,-2.2107 0.58881,-1.96526 3.30407,-3.92373 7.31735,-5.27788 7.42441,-2.50512 19.63633,-2.71301 26.62737,-0.45329 3.726559,1.20454 4.553479,1.60423 5.958329,2.87992 1.37023,1.24425 1.41326,1.3262 1.41326,2.69171 0,1.20672 -0.1371,1.59126 -0.95742,2.68543 -2.84739,3.79796 -7.369849,7.1334 -11.815289,8.71411 -3.02447,1.07545 -8.06187,1.57848 -11.51116,1.14949 z m -31.58871,-19.15988 c -10.03453,-1.73336 -18.09358,-9.14564 -20.57932,-18.92772 -1.11566,-4.39047 -0.98596,-10.29304 0.29143,-13.26242 0.60927,-1.41628 2.17767,-2.98965 3.55306,-3.56433 1.35818,-0.56748 5.24849,-0.4831 7.2532,0.15733 7.96636,2.54494 16.8884,12.77508 19.23496,22.05508 0.81904,3.23913 0.91929,6.77852 0.24913,8.79619 -0.54368,1.63687 -2.48035,3.88461 -3.79831,4.4084 -1.50287,0.59728 -3.93441,0.72954 -6.20415,0.33747 z m 62.816079,-0.55194 c -1.41253,-0.70166 -2.60895,-2.08726 -3.36129,-3.89277 -0.1964,-0.47133 -0.43803,-2.04759 -0.53695,-3.5028 -0.33738,-4.96311 1.433,-10.61628 5.13827,-16.40747 2.61338,-4.0846 4.58944,-6.40676 7.87668,-9.25627 5.38955,-4.67185 10.47251,-6.37948 14.50184,-4.87191 2.01289,0.75312 3.3305,2.42447 4.2261,5.36068 3.71231,12.17075 -1.72998,24.94689 -13.0354,30.60149 -3.36667,1.68389 -6.28211,2.41862 -10.11109,2.54811 -3.14832,0.10647 -3.37414,0.0786 -4.69816,-0.57906 z M 83.214441,215.0362 c -2.82158,-0.55563 -3.69786,-0.79345 -5.38507,-1.46151 -7.3406,-2.90657 -12.25188,-9.36087 -12.66642,-16.64595 -0.59892,-10.52537 6.79714,-19.0495 18.26448,-21.05022 4.07406,-0.71081 9.14953,0.0375 13.20232,1.94664 2.06429,0.9724 5.283609,3.39581 6.703229,5.046 1.48323,1.72414 3.15198,4.62222 3.83839,6.66605 0.72172,2.14894 0.99173,6.65877 0.54182,9.0495 -1.56387,8.31002 -8.743409,14.91845 -17.751879,16.33975 -1.65403,0.26096 -5.64898,0.32594 -6.74687,0.10974 z m -58.01482,-30.36101 c -0.74281,-0.39755 -2.11952,-2.02725 -3.44288,-4.07559 -4.62383,-7.15691 -4.73711,-16.85393 -0.28404,-24.31468 2.03756,-3.41378 7.25476,-8.02271 9.0815,-8.02271 1.07227,0 2.10395,1.05061 2.78073,2.83174 1.20397,3.16861 1.36488,12.32387 0.31062,17.67347 -0.28679,1.45521 -0.60117,3.12208 -0.69864,3.70416 -0.21233,1.26802 -2.13838,7.08147 -2.71743,8.20209 -0.50274,0.97294 -2.33016,3.46951 -2.71258,3.70586 -0.71188,0.43996 -1.79049,0.57758 -2.31728,0.29566 z m 118.437409,-0.81208 c -3.53957,-2.40759 -7.11049,-15.65423 -7.17198,-26.60507 -0.0422,-7.5173 1.48511,-11.23348 4.07066,-9.90448 4.1723,2.14461 8.22907,6.46727 10.15371,10.81923 2.21284,5.00364 2.56252,11.44031 0.8874,16.33469 -1.15925,3.38709 -3.42515,7.1277 -5.43465,8.97167 -1.08787,0.99827 -1.50746,1.06257 -2.50514,0.38396 z m -87.145509,-4.42272 c -7.22847,-0.89358 -12.75663,-5.81018 -14.72493,-13.09598 -0.7889,-2.92016 -0.79435,-8.35424 -0.0113,-11.24945 2.65726,-9.82464 10.28117,-17.30263 19.23154,-18.86344 2.88641,-0.50335 4.30829,-0.50853 6.8359,-0.0249 6.4489,1.23387 11.09174,5.37191 13.29486,11.84933 1.76797,5.19805 1.15418,12.17562 -1.54262,17.53649 -4.74444,9.43129 -13.98214,14.97307 -23.08347,13.84797 z m 55.033339,-0.88483 c -3.16328,-0.50381 -4.26655,-0.85568 -6.84208,-2.18214 -3.15837,-1.62663 -4.61391,-2.76798 -7.294949,-5.72026 -1.87713,-2.06704 -2.54916,-3.06401 -3.90654,-5.79542 -2.202,-4.431 -2.75327,-6.67066 -2.77607,-11.27841 -0.0254,-5.12723 0.80902,-7.97608 3.49747,-11.94123 2.37333,-3.50042 6.299479,-5.75269 11.101539,-6.36853 9.91626,-1.27171 20.6623,6.57057 24.18024,17.64635 1.06838,3.36366 1.30526,5.12427 1.16341,8.64712 -0.21749,5.4012 -1.87619,9.34223 -5.38958,12.80548 -3.39663,3.34818 -8.75096,4.9806 -13.73344,4.18704 z m 22.225,-37.53161 c -6.60856,-3.49704 -15.44867,-10.67825 -22.0315,-17.89716 -2.94204,-3.22632 -3.77567,-4.41325 -4.12703,-5.87615 -0.15946,-0.66389 -0.0905,-0.73877 0.93443,-1.01476 3.0352,-0.81729 8.44772,-0.75555 11.86264,0.13532 0.94588,0.24676 2.71319,0.91271 3.92735,1.47989 8.48039,3.96152 13.77425,12.25642 13.79401,21.61372 l 0.006,2.71198 -1.12448,-0.0164 c -0.7904,-0.0115 -1.75333,-0.34915 -3.24114,-1.13645 z m -101.177099,0.64536 c -0.55164,-0.34926 -0.22348,-5.90934 0.50099,-8.48835 0.81029,-2.88452 2.65214,-6.47461 4.41627,-8.60811 3.81926,-4.61891 7.88197,-7.15208 13.6377,-8.50333 3.51949,-0.82626 10.70543,-0.48063 11.56601,0.55631 1.01977,1.22874 -4.05436,7.3716 -11.097,13.43426 -2.91688,2.511 -7.8476,6.33912 -9.59115,7.44638 -0.83674,0.53138 -2.191,1.39392 -3.00945,1.91674 -1.54685,0.98811 -4.96523,2.48951 -5.65565,2.48404 -0.21828,-0.002 -0.56376,-0.1088 -0.76772,-0.23794 z m 51.17084,-7.69598 c -4.95088,-0.3375 -10.41724,-2.21612 -13.70613,-4.71038 -1.45589,-1.10413 -3.00812,-3.51589 -3.25449,-5.0566 -0.4472,-2.79661 1.68818,-5.88231 6.06699,-8.76704 4.48605,-2.95537 8.71404,-4.11203 14.1815,-3.87966 5.11148,0.21724 9.42414,1.73108 13.307109,4.67109 3.72314,2.819 5.49773,5.44789 5.49773,8.14435 0,4.83926 -7.497329,9.18065 -16.740669,9.69382 -1.19737,0.0665 -3.60579,0.0235 -5.35204,-0.0956 z m -33.86666,-22.98659 -1.05834,-0.17673 1.09185,-0.57722 c 1.02054,-0.53951 1.61827,-1.28511 1.2919,-1.61149 -0.0782,-0.0782 -1.59063,-0.29914 -3.36086,-0.49089 -3.32677,-0.36035 -6.29893,-1.04107 -6.29893,-1.44265 0,-0.12635 0.24952,-0.22972 0.55449,-0.22972 0.68773,0 2.09135,-0.80515 2.09135,-1.19965 0,-0.16049 -1.12967,-0.6109 -2.51037,-1.0009 -2.54761,-0.71963 -6.22088,-2.22234 -6.22088,-2.54494 0,-0.0972 0.42361,-0.18873 0.94136,-0.2034 0.99206,-0.0281 2.49822,-0.54381 2.49822,-0.85535 0,-0.10109 -0.62803,-0.4441 -1.39561,-0.76225 -1.88247,-0.78024 -5.14098,-2.72594 -6.27731,-3.74825 l -0.92604,-0.83314 0.829,0.13719 c 0.90739,0.15016 2.74288,-0.2596 2.74288,-0.61233 0,-0.12159 -0.7703,-0.72294 -1.71178,-1.33634 -0.94148,-0.6134 -2.45953,-1.80726 -3.37344,-2.65302 l -1.66166,-1.53775 1.51992,0.0305 c 0.83595,0.0167 1.64336,-0.093 1.79426,-0.24389 0.18941,-0.18941 -0.55437,-1.08684 -2.40235,-2.89863 -3.61861,-3.54774 -3.60169,-3.49914 -1.16403,-3.3427 1.83009,0.11745 1.97199,0.0889 1.97199,-0.39608 0,-0.32314 -0.62129,-1.0181 -1.62772,-1.82073 -1.55815,-1.24261 -3.66394,-3.59708 -3.66394,-4.09661 0,-0.13415 0.86883,-0.16401 1.99712,-0.0686 l 1.99712,0.16882 -0.65631,-1.74365 c -0.77463,-2.058 -1.04529,-2.5937 -2.06689,-4.09084 l -0.7673,-1.12448 3.65073,-0.0313 c 2.0079,-0.0172 3.99442,-0.10652 4.41449,-0.19844 l 0.76376,-0.16713 -1.1961,-1.10165 c -1.09978,-1.01293 -1.15062,-1.11384 -0.63146,-1.25315 1.23894,-0.33246 4.37637,-0.10346 6.65004,0.48539 1.30969,0.33918 2.47055,0.56411 2.57969,0.49984 0.31425,-0.18508 0.23082,-1.2674 -0.13229,-1.71615 -0.1819,-0.22481 -0.62839,-0.61752 -0.99219,-0.8727 -0.6553,-0.45963 -0.64723,-0.46243 0.8663,-0.30022 0.84026,0.09 2.63851,0.51953 3.99611,0.95441 1.3576,0.43488 2.60488,0.79069 2.77173,0.79069 0.16685,0 0.30336,-0.31595 0.30336,-0.70211 0,-0.48456 -0.34155,-1.01742 -1.10236,-1.71979 -0.60629,-0.55973 -1.03633,-1.01769 -0.95564,-1.01769 0.7602,0 5.19954,1.55262 6.5421,2.28803 1.60526,0.87932 1.72638,0.90657 2.05176,0.46159 0.43519,-0.59516 0.2155,-1.34557 -0.6786,-2.31802 l -0.69788,-0.75902 0.66146,0.19372 c 1.26161,0.36951 3.61782,1.75121 5.17336,3.03371 0.8599,0.70896 1.64632,1.2378 1.74761,1.1752 0.1013,-0.0626 0.32265,-0.53342 0.49189,-1.04624 0.25584,-0.7752 0.23576,-1.04225 -0.11908,-1.58382 -0.23475,-0.35827 -0.32287,-0.6514 -0.19583,-0.6514 0.49763,0 2.63457,1.70407 4.08704,3.25916 l 1.52771,1.63563 0.55014,-0.65836 c 0.44261,-0.52969 0.5195,-0.88187 0.39339,-1.80191 l -0.15674,-1.14354 0.78898,0.5618 c 0.70326,0.50076 3.045,2.99174 4.83728,5.14554 l 0.64958,0.78062 0.43108,-0.83362 c 0.2371,-0.45849 0.43109,-1.10295 0.43109,-1.43213 0,-0.52803 0.15856,-0.44391 1.34663,0.71447 2.83319,2.76237 5.68625,7.80557 6.87093,12.14538 0.74917,2.74444 0.64942,6.03295 -0.23865,7.86746 -0.83136,1.71735 -2.36815,3.36904 -4.10649,4.41349 l -1.47855,0.88836 -2.32141,-1.8466 c -7.40538,-5.89069 -19.12886,-12.25497 -29.97038,-16.2699 -3.97714,-1.47285 -4.05358,-1.40413 -0.52917,0.47571 8.04711,4.29212 15.19085,8.74287 20.75209,12.9291 3.82801,2.88153 8.88125,7.67337 8.88125,8.42183 0,1.84686 -3.22046,6.20593 -5.81487,7.87076 -3.65511,2.34548 -13.069,4.40718 -17.07159,3.73878 z m 68.243819,-0.0469 c -5.35576,-0.59891 -11.31408,-2.74055 -13.91912,-5.00304 -1.52589,-1.32524 -3.19925,-3.7878 -3.79719,-5.58801 l -0.449539,-1.35344 1.419349,-1.45061 c 5.918,-6.04837 16.18271,-13.10727 27.87768,-19.17111 2.47385,-1.28269 4.40805,-2.33454 4.2982,-2.33744 -0.40062,-0.0106 -6.24537,2.21842 -9.85445,3.75816 -9.59077,4.09171 -19.57511,9.91261 -25.515319,14.87551 l -1.11438,0.93104 -1.08553,-0.55379 c -1.61628,-0.82457 -3.80938,-3.03046 -4.58113,-4.60784 -0.98438,-2.01202 -1.12993,-4.64015 -0.41129,-7.42687 1.15034,-4.46081 3.49919,-8.91611 6.34369,-12.03276 l 1.71475,-1.87881 0.50299,1.34838 c 0.27665,0.74161 0.583969,1.34469 0.682939,1.34019 0.099,-0.004 0.57271,-0.52974 1.05276,-1.1672 0.48006,-0.63747 1.78974,-2.08321 2.91042,-3.21278 l 2.0376,-2.05374 0.0705,1.03814 c 0.19479,2.86743 0.61196,2.96824 2.81969,0.68143 1.86276,-1.92949 4.17298,-3.50683 3.61835,-2.4705 -0.37876,0.70772 -0.35512,1.61936 0.0614,2.36957 0.33248,0.59878 0.3394,0.596 2.17344,-0.8726 1.56347,-1.25195 4.6626,-3.03539 5.27468,-3.03539 0.10127,0 -0.12411,0.36633 -0.50085,0.81406 -0.69726,0.82863 -0.9187,2.18526 -0.40821,2.50077 0.15222,0.0941 1.19402,-0.3048 2.3151,-0.88639 1.82439,-0.94644 3.44338,-1.52034 5.68978,-2.01688 0.69929,-0.15457 0.67321,-0.0988 -0.46302,0.98989 -1.15279,1.10456 -1.6103,2.30846 -0.87332,2.29805 0.1819,-0.003 1.42635,-0.35048 2.76543,-0.77313 1.33908,-0.42265 3.12502,-0.84895 3.96875,-0.94734 l 1.53405,-0.17888 -1.00674,0.85098 c -0.77171,0.65231 -0.98791,1.01355 -0.92604,1.54732 0.0969,0.83654 0.32462,0.84109 3.23188,0.0647 2.00967,-0.53672 5.43305,-0.75103 6.35367,-0.39776 0.33014,0.12669 0.1791,0.37578 -0.70597,1.16425 -0.61928,0.55169 -1.02696,1.10424 -0.90595,1.22789 0.121,0.12365 2.05576,0.26527 4.29947,0.31471 2.24371,0.0494 4.07947,0.14668 4.07947,0.21609 0,0.0694 -0.30778,0.52972 -0.68395,1.02291 -0.72122,0.94556 -2.48232,4.76155 -2.48781,5.39066 -0.003,0.29877 0.37943,0.33721 1.99479,0.20066 l 1.99802,-0.1689 -0.47667,0.81106 c -0.44205,0.75215 -2.6797,2.99944 -4.40456,4.42353 -0.40558,0.33485 -0.69034,0.75157 -0.63281,0.92604 0.13741,0.41677 2.93016,0.56197 3.62777,0.18862 1.23679,-0.66191 0.39513,0.45338 -2.50305,3.31684 -2.04843,2.02387 -2.93338,3.06804 -2.71475,3.20316 0.17841,0.11026 1.03999,0.18406 1.91464,0.164 l 1.59026,-0.0365 -1.45521,1.31159 c -0.80036,0.72137 -2.37392,1.93352 -3.49678,2.69366 -1.12287,0.76015 -2.0456,1.46336 -2.05052,1.56269 -0.0148,0.29808 1.1081,0.56173 2.31887,0.54448 1.00642,-0.0143 1.0977,0.032 0.79375,0.40259 -0.53306,0.65001 -3.86773,2.74276 -5.9787,3.75208 -1.04795,0.50106 -1.90537,1.00289 -1.90537,1.11517 0,0.38833 1.1069,0.79423 2.28834,0.83915 1.1426,0.0434 1.16465,0.0597 0.60092,0.44196 -0.94797,0.6429 -3.91574,1.7847 -6.2627,2.40949 -1.20054,0.31959 -2.18281,0.68386 -2.18281,0.80948 0,0.3235 1.62823,1.27678 2.18281,1.27796 0.25467,5.3e-4 0.46302,0.10436 0.46302,0.23071 0,0.40797 -3.17437,1.13521 -6.38201,1.4621 -1.71863,0.17514 -3.18567,0.37933 -3.26009,0.45375 -0.26148,0.26149 0.6896,1.30376 1.65497,1.81363 0.89141,0.47083 0.91855,0.51654 0.31422,0.52932 -0.3638,0.008 -1.25677,0.0631 -1.98438,0.12305 -0.7276,0.06 -2.28382,0.002 -3.45826,-0.12973 z"
       id="path849"
       sodipodi:nodetypes="ssssssssssssssssssssssscssssscsssssssscssssssssssscsssssssssssssssssssssssssssssscssscssssssssssssssssssssssssssssssssssssssssssssssssssssssssssssssssssssssssssssssssssssssssssssscsssssccsccsssssssscsssssssssssccsssssssssssscssssccssssssscsscsscssssssssssssssscssssssscsscsscsssssscsssssssccsscssssscsssscscsscssssssssssscsscscssssssscscssssssscsssssssscssssssscscc" />
  </g>
</svg>
