<?xml version="1.0" encoding="UTF-8" standalone="no"?>
<!-- Generator: Adobe Illustrator 19.0.0, SVG Export Plug-In . SVG Version: 6.00 Build 0)  -->

<svg
   xmlns:dc="http://purl.org/dc/elements/1.1/"
   xmlns:cc="http://creativecommons.org/ns#"
   xmlns:rdf="http://www.w3.org/1999/02/22-rdf-syntax-ns#"
   xmlns:svg="http://www.w3.org/2000/svg"
   xmlns="http://www.w3.org/2000/svg"
   xmlns:sodipodi="http://sodipodi.sourceforge.net/DTD/sodipodi-0.dtd"
   xmlns:inkscape="http://www.inkscape.org/namespaces/inkscape"
   version="1.1"
   id="Capa_1"
   x="0px"
   y="0px"
   viewBox="0 0 490.2 490.2"
   style="enable-background:new 0 0 490.2 490.2;"
   xml:space="preserve"
   sodipodi:docname="plus-svgrepo-com.svg"
   inkscape:version="0.92.5 (2060ec1f9f, 2020-04-08)"><metadata
   id="metadata45"><rdf:RDF><cc:Work
       rdf:about=""><dc:format>image/svg+xml</dc:format><dc:type
         rdf:resource="http://purl.org/dc/dcmitype/StillImage" /></cc:Work></rdf:RDF></metadata><defs
   id="defs43" /><sodipodi:namedview
   pagecolor="#ffffff"
   bordercolor="#666666"
   borderopacity="1"
   objecttolerance="10"
   gridtolerance="10"
   guidetolerance="10"
   inkscape:pageopacity="0"
   inkscape:pageshadow="2"
   inkscape:window-width="1920"
   inkscape:window-height="1051"
   id="namedview41"
   showgrid="false"
   inkscape:zoom="1.361707"
   inkscape:cx="105.57736"
   inkscape:cy="197.37735"
   inkscape:window-x="0"
   inkscape:window-y="0"
   inkscape:window-maximized="1"
   inkscape:current-layer="g8" />
<g
   id="g8"
   style="fill:#0078d7;fill-opacity:1">
	<g
   id="g6"
   style="fill:#49adff;fill-opacity:1">
		<path
   d="M418.5,418.5c95.6-95.6,95.6-251.2,0-346.8s-251.2-95.6-346.8,0s-95.6,251.2,0,346.8S322.9,514.1,418.5,418.5z M89,89    c86.1-86.1,226.1-86.1,312.2,0s86.1,226.1,0,312.2s-226.1,86.1-312.2,0S3,175.1,89,89z"
   id="path2"
   style="fill:#49adff;fill-opacity:1" />
		<path
   d="M245.1,336.9c3.4,0,6.4-1.4,8.7-3.6c2.2-2.2,3.6-5.3,3.6-8.7v-67.3h67.3c3.4,0,6.4-1.4,8.7-3.6c2.2-2.2,3.6-5.3,3.6-8.7    c0-6.8-5.5-12.3-12.2-12.2h-67.3v-67.3c0-6.8-5.5-12.3-12.2-12.2c-6.8,0-12.3,5.5-12.2,12.2v67.3h-67.3c-6.8,0-12.3,5.5-12.2,12.2    c0,6.8,5.5,12.3,12.2,12.2h67.3v67.3C232.8,331.4,238.3,336.9,245.1,336.9z"
   id="path4"
   style="fill:#49adff;fill-opacity:1" />
	</g>
</g>
<g
   id="g10"
   style="fill:#0078d7;fill-opacity:1">
</g>
<g
   id="g12"
   style="fill:#0078d7;fill-opacity:1">
</g>
<g
   id="g14"
   style="fill:#0078d7;fill-opacity:1">
</g>
<g
   id="g16"
   style="fill:#0078d7;fill-opacity:1">
</g>
<g
   id="g18"
   style="fill:#0078d7;fill-opacity:1">
</g>
<g
   id="g20"
   style="fill:#0078d7;fill-opacity:1">
</g>
<g
   id="g22"
   style="fill:#0078d7;fill-opacity:1">
</g>
<g
   id="g24"
   style="fill:#0078d7;fill-opacity:1">
</g>
<g
   id="g26"
   style="fill:#0078d7;fill-opacity:1">
</g>
<g
   id="g28"
   style="fill:#0078d7;fill-opacity:1">
</g>
<g
   id="g30"
   style="fill:#0078d7;fill-opacity:1">
</g>
<g
   id="g32"
   style="fill:#0078d7;fill-opacity:1">
</g>
<g
   id="g34"
   style="fill:#0078d7;fill-opacity:1">
</g>
<g
   id="g36"
   style="fill:#0078d7;fill-opacity:1">
</g>
<g
   id="g38"
   style="fill:#0078d7;fill-opacity:1">
</g>
</svg>