<svg xmlns="http://www.w3.org/2000/svg" xmlns:svg="http://www.w3.org/2000/svg" id="svg1" width="306.155" height="306.155" version="1.1" viewBox="0 0 81.003 81.003" xml:space="preserve"><g id="layer1" transform="translate(-64.498283,-107.99828)"><rect style="vector-effect:non-scaling-stroke;fill:#0000cd;fill-opacity:1;stroke:none;stroke-width:.264583;-inkscape-stroke:hairline" id="rect1" width="81.003" height="81.003" x="64.498" y="107.998"/><g id="g1" transform="matrix(0.45491434,0,0,0.45491434,59.508566,103.00857)" style="fill:#fff;fill-opacity:1"><path stroke-width="0" d="m 90,40 h 5 v 5 h -5 z" style="fill:#fff;fill-opacity:1" id="path1"/><path stroke-width="0" d="m 55,65 h 5 v 5 h -5 z" style="fill:#fff;fill-opacity:1" id="path2"/><path stroke-width="0" d="m 55,155 h 5 v 5 h -5 z" style="fill:#fff;fill-opacity:1" id="path3"/><path stroke-width="0" d="m 125,155 h 5 v 5 h -5 z" style="fill:#fff;fill-opacity:1" id="path4"/><path stroke-width="0" d="M 140,70 V 55 h 5 v -5 h -5 V 40 h -10 v 5 h -10 v -5 h -5 v 5 H 95 v 5 H 90 V 45 H 65 v -5 h -5 v 5 h -5 v 10 h 5 v 10 h 20 v 5 h 10 v 40 h 5 v 5 h -5 v 20 H 75 v 5 h -5 v -5 h 5 v -5 H 60 v 5 h -5 v 5 h 5 v 15 h 25 v 5 h 5 v -10 h 5 v 5 h 30 v -5 h 5 v 5 h 5 v 5 h 5 v -5 h 5 v -5 h -5 v -15 h 5 v -5 h -10 v 5 h -5 v -5 h -5 v 5 h -10 v 10 h -5 v -10 h 5 v -10 h -5 V 75 h -5 v -5 h 5 v -5 h 10 v -5 h 5 v 5 h 10 v 5 z M 85,60 h -5 v -5 h 5 z m 20,45 h -5 v -5 h 5 z" style="fill:#fff;fill-opacity:1" id="path5"/></g></g></svg>