<?xml version="1.0" encoding="UTF-8" standalone="no"?>
<!-- Created with Inkscape (http://www.inkscape.org/) -->

<svg
   width="81.003433mm"
   height="81.003433mm"
   viewBox="0 0 81.003433 81.003433"
   version="1.1"
   id="svg1"
   xml:space="preserve"
   inkscape:version="1.4.2 (2aeb623e1d, 2025-05-12)"
   sodipodi:docname="imperial.svg"
   xmlns:inkscape="http://www.inkscape.org/namespaces/inkscape"
   xmlns:sodipodi="http://sodipodi.sourceforge.net/DTD/sodipodi-0.dtd"
   xmlns="http://www.w3.org/2000/svg"
   xmlns:svg="http://www.w3.org/2000/svg"><sodipodi:namedview
     id="namedview1"
     pagecolor="#ffffff"
     bordercolor="#666666"
     borderopacity="1.0"
     inkscape:showpageshadow="2"
     inkscape:pageopacity="0.0"
     inkscape:pagecheckerboard="0"
     inkscape:deskcolor="#d1d1d1"
     inkscape:document-units="mm"
     inkscape:zoom="1.248227"
     inkscape:cx="12.818182"
     inkscape:cy="-113.36079"
     inkscape:window-width="1920"
     inkscape:window-height="1056"
     inkscape:window-x="0"
     inkscape:window-y="0"
     inkscape:window-maximized="1"
     inkscape:current-layer="layer1" /><defs
     id="defs1" /><g
     inkscape:label="Layer 1"
     inkscape:groupmode="layer"
     id="layer1"
     transform="translate(-64.498283,-107.99828)"><rect
       style="vector-effect:non-scaling-stroke;fill:#0000cd;fill-opacity:1;stroke:none;stroke-width:0.264583;-inkscape-stroke:hairline"
       id="rect1"
       width="81.003433"
       height="81.003433"
       x="64.498283"
       y="107.99828" /><g
       id="g1"
       transform="matrix(0.45491434,0,0,0.45491434,59.508566,103.00857)"
       style="fill:#ffffff;fill-opacity:1"><path
         stroke-width="0"
         d="m 90,40 h 5 v 5 h -5 z"
         style="fill:#ffffff;fill-opacity:1"
         id="path1" /><path
         stroke-width="0"
         d="m 55,65 h 5 v 5 h -5 z"
         style="fill:#ffffff;fill-opacity:1"
         id="path2" /><path
         stroke-width="0"
         d="m 55,155 h 5 v 5 h -5 z"
         style="fill:#ffffff;fill-opacity:1"
         id="path3" /><path
         stroke-width="0"
         d="m 125,155 h 5 v 5 h -5 z"
         style="fill:#ffffff;fill-opacity:1"
         id="path4" /><path
         stroke-width="0"
         d="M 140,70 V 55 h 5 v -5 h -5 V 40 h -10 v 5 h -10 v -5 h -5 v 5 H 95 v 5 H 90 V 45 H 65 v -5 h -5 v 5 h -5 v 10 h 5 v 10 h 20 v 5 h 10 v 40 h 5 v 5 h -5 v 20 H 75 v 5 h -5 v -5 h 5 v -5 H 60 v 5 h -5 v 5 h 5 v 15 h 25 v 5 h 5 v -10 h 5 v 5 h 30 v -5 h 5 v 5 h 5 v 5 h 5 v -5 h 5 v -5 h -5 v -15 h 5 v -5 h -10 v 5 h -5 v -5 h -5 v 5 h -10 v 10 h -5 v -10 h 5 v -10 h -5 V 75 h -5 v -5 h 5 v -5 h 10 v -5 h 5 v 5 h 10 v 5 z M 85,60 h -5 v -5 h 5 z m 20,45 h -5 v -5 h 5 z"
         style="fill:#ffffff;fill-opacity:1"
         id="path5" /></g></g></svg>
