<?xml version="1.0" encoding="UTF-8" standalone="no"?>
<svg
   xmlns:dc="http://purl.org/dc/elements/1.1/"
   xmlns:cc="http://creativecommons.org/ns#"
   xmlns:rdf="http://www.w3.org/1999/02/22-rdf-syntax-ns#"
   xmlns:svg="http://www.w3.org/2000/svg"
   xmlns="http://www.w3.org/2000/svg"
   xmlns:sodipodi="http://sodipodi.sourceforge.net/DTD/sodipodi-0.dtd"
   xmlns:inkscape="http://www.inkscape.org/namespaces/inkscape"
   width="59.266926mm"
   height="59.298492mm"
   viewBox="0 0 59.266926 59.298492"
   version="1.1"
   id="svg8"
   inkscape:version="1.0.1 (1.0.1+r73)"
   sodipodi:docname="insta_logo.svg">
  <defs
     id="defs2" />
  <sodipodi:namedview
     id="base"
     pagecolor="#ffffff"
     bordercolor="#666666"
     borderopacity="1.0"
     inkscape:pageopacity="0.0"
     inkscape:pageshadow="2"
     inkscape:zoom="1.4"
     inkscape:cx="67.781418"
     inkscape:cy="156.24549"
     inkscape:document-units="mm"
     inkscape:current-layer="layer1"
     inkscape:document-rotation="0"
     showgrid="false"
     fit-margin-top="0"
     fit-margin-left="0"
     fit-margin-right="0"
     fit-margin-bottom="0"
     inkscape:window-width="1486"
     inkscape:window-height="1152"
     inkscape:window-x="3093"
     inkscape:window-y="104"
     inkscape:window-maximized="0" />
  <metadata
     id="metadata5">
    <rdf:RDF>
      <cc:Work
         rdf:about="">
        <dc:format>image/svg+xml</dc:format>
        <dc:type
           rdf:resource="http://purl.org/dc/dcmitype/StillImage" />
        <dc:title></dc:title>
      </cc:Work>
    </rdf:RDF>
  </metadata>
  <g
     inkscape:label="Layer 1"
     inkscape:groupmode="layer"
     id="layer1"
     transform="translate(-180.64084,-175.37918)">
    <path
       style="fill:#ffffff;fill-opacity:1;stroke-width:0.264583"
       d="m 194.66376,234.60055 c -6.25007,-0.88181 -11.60985,-5.57818 -13.53617,-11.86069 -0.44994,-1.46746 -0.48675,-2.80796 -0.48675,-17.72709 0,-14.91912 0.0368,-16.25962 0.48675,-17.72708 1.69945,-5.54259 5.87691,-9.72005 11.4195,-11.4195 1.46746,-0.44994 2.80796,-0.48675 17.72708,-0.48675 18.04272,0 17.31731,-0.0664 21.16667,1.93782 2.45719,1.27937 5.24948,4.07166 6.52885,6.52885 2.00423,3.84936 1.93782,3.12396 1.93782,21.16666 0,14.91913 -0.0368,16.25963 -0.48675,17.72709 -1.6798,5.47852 -5.73957,9.58185 -11.28721,11.40833 -1.33163,0.43842 -2.78088,0.48272 -17.06563,0.52173 -8.58573,0.0234 -15.9676,-0.008 -16.40416,-0.0694 z M 228.206,228.5055 c 2.35447,-1.11526 4.44564,-3.20643 5.5609,-5.5609 l 0.84894,-1.79224 v -16.13959 -16.13958 l -0.84894,-1.79224 c -1.11526,-2.35447 -3.20643,-4.44564 -5.5609,-5.5609 l -1.79224,-0.84894 h -16.13959 -16.13958 l -1.79224,0.84894 c -2.35447,1.11526 -4.44564,3.20643 -5.5609,5.5609 l -0.84894,1.79224 v 16.13958 16.13959 l 0.84894,1.79224 c 0.97135,2.05065 3.07554,4.31692 4.85954,5.23386 2.52524,1.29792 2.31463,1.28432 19.03006,1.22853 l 15.74271,-0.0525 z m -21.76828,-8.69694 c -5.21444,-1.37217 -9.64103,-5.84134 -10.97547,-11.08106 -0.51419,-2.01894 -0.51419,-5.41051 0,-7.42945 1.34985,-5.30024 5.79696,-9.74734 11.0972,-11.0972 2.01894,-0.51418 5.4105,-0.51418 7.42945,0 5.30024,1.34986 9.74734,5.79696 11.0972,11.0972 0.51418,2.01894 0.51418,5.41051 0,7.42945 -1.34986,5.30024 -5.79696,9.74734 -11.0972,11.0972 -1.95969,0.49909 -5.62297,0.49126 -7.55118,-0.0161 z m 5.57703,-4.87785 c 5.35328,-1.01523 9.11991,-6.28016 8.20575,-11.46987 -0.9655,-5.48126 -6.22749,-9.32282 -11.49826,-8.39439 -6.6625,1.17357 -10.41532,8.28926 -7.53103,14.27951 1.26877,2.63504 4.31099,5.01536 7.11179,5.56446 1.64814,0.32312 2.10185,0.3256 3.71175,0.0203 z m 12.79839,-22.31636 c -2.11283,-0.95244 -2.91098,-3.38789 -1.80879,-5.5193 1.19848,-2.31761 5.03578,-2.36563 6.44795,-0.0807 1.0248,1.65816 0.4846,4.22857 -1.10768,5.27067 -0.90757,0.59397 -2.59526,0.75135 -3.53148,0.32932 z"
       id="path847" />
  </g>
</svg>
