<svg xmlns="http://www.w3.org/2000/svg" xmlns:svg="http://www.w3.org/2000/svg" id="Capa_1" x="0" y="0" version="1.1" viewBox="0 0 474 474" style="enable-background:new 0 0 474 474" xml:space="preserve"><metadata id="metadata41"/><g id="g4" style="fill:#43d0ff;fill-opacity:1"><path id="path2" d="M 437.5,59.3 H 36.5 C 16.4,59.3 0,75.7 0,95.8 v 282.4 c 0,20.1 16.4,36.5 36.5,36.5 h 401 c 20.1,0 36.5,-16.4 36.5,-36.5 V 95.8 C 474,75.7 457.6,59.3 437.5,59.3 Z m -5.3,27 L 234.89572,84.12028 46.8,86.3 Z M 447,378.2 c 0,5.2 -4.3,9.5 -9.5,9.5 h -401 c -5.2,0 -9.5,-4.3 -9.5,-9.5 V 104.9 l 203.7,174.2 c 0.1,0.1 0.3,0.2 0.4,0.3 0.1,0.1 0.3,0.2 0.4,0.3 0.3,0.2 0.5,0.4 0.8,0.5 0.1,0.1 0.2,0.1 0.3,0.2 l 1.2,0.6 c 0.1,0 0.2,0.1 0.3,0.1 0.3,0.1 0.6,0.3 1,0.4 0.1,0 0.3,0.1 0.4,0.1 0.3,0.1 0.6,0.2 0.9,0.2 0.1,0 0.3,0.1 0.4,0.1 0.3,0.1 0.7,0.1 1,0.2 h 0.3 c 0.4,0 0.9,0.1 1.3,0.1 v 0 0 c 0.4,0 0.9,0 1.3,-0.1 h 0.3 c 0.3,0 0.7,-0.1 1,-0.2 0.1,0 0.3,-0.1 0.4,-0.1 0.3,-0.1 0.6,-0.2 0.9,-0.2 0.1,0 0.3,-0.1 0.4,-0.1 0.3,-0.1 0.6,-0.2 1,-0.4 0.1,0 0.2,-0.1 0.3,-0.1 l 1.2,-0.6 c 0.1,-0.1 0.2,-0.1 0.3,-0.2 0.3,-0.2 0.5,-0.3 0.8,-0.5 0.1,-0.1 0.3,-0.2 0.4,-0.3 0.1,-0.1 0.3,-0.2 0.4,-0.3 L 447,109.2 Z" style="fill:#fff;fill-opacity:1"/></g></svg>