<?xml version="1.0" encoding="UTF-8" standalone="no"?>
<!-- Created with Inkscape (http://www.inkscape.org/) -->

<svg
   width="108.002mm"
   height="108.17387mm"
   viewBox="0 0 108.002 108.17387"
   version="1.1"
   id="svg5"
   xml:space="preserve"
   inkscape:version="1.2.2 (b0a8486541, 2022-12-01)"
   sodipodi:docname="qr.svg"
   xmlns:inkscape="http://www.inkscape.org/namespaces/inkscape"
   xmlns:sodipodi="http://sodipodi.sourceforge.net/DTD/sodipodi-0.dtd"
   xmlns="http://www.w3.org/2000/svg"
   xmlns:svg="http://www.w3.org/2000/svg"><sodipodi:namedview
     id="namedview7"
     pagecolor="#ffffff"
     bordercolor="#666666"
     borderopacity="1.0"
     inkscape:showpageshadow="2"
     inkscape:pageopacity="0.0"
     inkscape:pagecheckerboard="0"
     inkscape:deskcolor="#d1d1d1"
     inkscape:document-units="mm"
     showgrid="false"
     inkscape:zoom="1.5698787"
     inkscape:cx="275.81749"
     inkscape:cy="253.20428"
     inkscape:window-width="1920"
     inkscape:window-height="1055"
     inkscape:window-x="0"
     inkscape:window-y="0"
     inkscape:window-maximized="1"
     inkscape:current-layer="layer1" /><defs
     id="defs2" /><g
     inkscape:label="Layer 1"
     inkscape:groupmode="layer"
     id="layer1"
     transform="translate(-120.14551,-73.656934)"><path
       style="fill:#43d0ff;stroke-width:0.264583;fill-opacity:1"
       d="m 127.1363,181.55228 c -0.76744,-0.13646 -1.97448,-0.54157 -2.68231,-0.90025 -0.70782,-0.35869 -1.71607,-1.15348 -2.24055,-1.76622 -0.52448,-0.61274 -1.19829,-1.76806 -1.49736,-2.56738 l -0.54375,-1.45332 0.0786,-6.63747 0.0786,-6.63747 0.65821,-1.2888 c 0.36202,-0.70884 1.22876,-1.80177 1.92611,-2.42874 0.69951,-0.62893 1.88706,-1.35587 2.64908,-1.62162 1.18095,-0.41184 2.2634,-0.48167 7.4666,-0.48167 5.20321,0 6.28565,0.0698 7.46661,0.48167 0.76202,0.26575 1.94957,0.99269 2.64908,1.62162 0.69735,0.62697 1.542,1.68879 1.87702,2.35959 0.33502,0.67081 0.73406,2.02215 0.88676,3.00298 0.1604,1.03029 0.22347,3.90842 0.14936,6.81602 -0.0985,3.86433 -0.23486,5.32665 -0.58735,6.29887 -0.25249,0.69639 -1.03936,1.90109 -1.7486,2.67711 -0.81228,0.88875 -1.80558,1.63695 -2.68391,2.02161 l -1.39438,0.61066 -5.55625,0.0705 c -3.05594,0.0387 -6.18416,-0.0412 -6.9516,-0.17765 z m 12.4024,-4.16234 c 1.1416,-0.59638 1.5505,-1.00528 2.14688,-2.14688 l 0.73669,-1.41019 v -5.13766 c 0,-4.03867 -0.0876,-5.3473 -0.4095,-6.11773 -0.22523,-0.53905 -0.67171,-1.26531 -0.99219,-1.61391 -0.32047,-0.3486 -1.05893,-0.85363 -1.64102,-1.12228 -0.91434,-0.422 -1.76025,-0.48845 -6.2177,-0.48845 -4.46451,0 -5.30192,0.066 -6.21771,0.48999 -0.58209,0.2695 -1.37944,0.83243 -1.7719,1.25096 -0.39247,0.41853 -0.89848,1.20363 -1.12448,1.74466 -0.32086,0.7681 -0.41059,2.04378 -0.40944,5.82083 8.2e-4,2.66043 0.12761,5.29136 0.28177,5.84651 0.15415,0.55516 0.74421,1.47329 1.31123,2.04031 0.56701,0.56702 1.42249,1.14387 1.90104,1.28188 0.47856,0.13801 3.14847,0.26167 5.93313,0.27479 l 5.06301,0.0239 z m -10.58105,-3.60129 c -0.34779,-0.19276 -0.79005,-0.63502 -0.98282,-0.98281 -0.24027,-0.43351 -0.35342,-1.74293 -0.35985,-4.16452 l -0.009,-3.53219 0.89958,-0.89958 0.89958,-0.89958 h 3.71028 3.71027 l 0.8141,0.8141 0.8141,0.8141 v 3.71027 3.71028 l -0.89958,0.89958 -0.89958,0.89958 -3.53219,-0.009 c -2.42159,-0.006 -3.73101,-0.11958 -4.16452,-0.35985 z m 29.43889,7.79059 c -0.3092,-0.12983 -0.69615,-0.62035 -0.85989,-1.09006 -0.16374,-0.4697 -0.29771,-1.18346 -0.29771,-1.58612 v -0.73211 l -3.16628,-0.0883 c -2.60859,-0.0728 -3.24937,-0.17149 -3.63802,-0.56057 l -0.47174,-0.47225 -0.0744,-11.55782 c -0.0522,-8.11916 0.0142,-11.77171 0.22343,-12.27672 0.17446,-0.42118 0.63249,-0.83558 1.10602,-1.00065 0.44454,-0.15497 1.14767,-0.28176 1.56251,-0.28176 0.68368,0 0.75427,-0.0855 0.75427,-0.91359 0,-0.50248 0.13219,-1.20372 0.29376,-1.55832 0.16157,-0.3546 0.58389,-0.77693 0.93849,-0.93849 0.3546,-0.16157 1.57558,-0.29376 2.71327,-0.29376 1.69205,0 2.19542,0.0998 2.76568,0.54837 0.58014,0.45634 0.69714,0.7615 0.69714,1.81842 v 1.27005 l 1.32559,0.12737 c 0.75027,0.0721 1.5541,0.33417 1.85209,0.60384 0.28956,0.26205 0.52648,0.79244 0.52648,1.17863 0,0.3862 -0.16569,0.92877 -0.3682,1.20572 -0.25217,0.34486 -0.81497,0.5484 -1.78593,0.64588 l -1.41774,0.14234 -0.14234,1.41774 c -0.0975,0.97097 -0.30102,1.53377 -0.64589,1.78594 -0.27694,0.20251 -0.81952,0.3682 -1.20571,0.3682 -0.3862,0 -0.91658,-0.23692 -1.17864,-0.52649 -0.27093,-0.29938 -0.53187,-1.10318 -0.60492,-1.86338 l -0.12846,-1.33689 -1.75119,0.0774 -1.75119,0.0774 v 3.70417 3.70416 l 3.26334,0.1323 c 2.835,0.11492 3.31251,0.1997 3.63802,0.64588 0.30017,0.41146 0.37469,1.86726 0.37469,7.32061 v 6.80702 l 3.32917,0.0877 c 2.9312,0.0772 3.37399,0.14912 3.70416,0.60132 0.20625,0.28247 0.375,0.82526 0.375,1.2062 0,0.38093 -0.16876,0.92372 -0.37501,1.2062 l -0.37501,0.51359 -4.32135,0.0584 c -2.37673,0.0321 -4.57432,-0.0478 -4.88353,-0.17766 z m -1.1576,-12.71302 v -1.85209 h -1.85208 -1.85209 v 1.6757 c 0,0.92163 0.0794,1.75507 0.17639,1.85208 0.097,0.097 0.93045,0.17639 1.85209,0.17639 h 1.67569 z m 26.84318,12.31515 c -0.35719,-0.35719 -0.64943,-0.89838 -0.64943,-1.20265 0,-0.30427 0.29224,-0.84547 0.64943,-1.20265 0.35719,-0.35719 0.89838,-0.64944 1.20265,-0.64944 0.30427,0 0.84546,0.29225 1.20265,0.64944 0.35719,0.35718 0.64943,0.89838 0.64943,1.20265 0,0.30427 -0.29224,0.84546 -0.64943,1.20265 -0.35719,0.35718 -0.89838,0.64943 -1.20265,0.64943 -0.30427,0 -0.84546,-0.29225 -1.20265,-0.64943 z m 7.40833,0 c -0.35718,-0.35719 -0.64943,-0.89838 -0.64943,-1.20265 0,-0.30427 0.29225,-0.84547 0.64943,-1.20265 0.35719,-0.35719 0.87692,-0.64944 1.15495,-0.64944 0.27803,0 0.81922,0.24677 1.20265,0.54837 0.46228,0.36363 0.69714,0.80284 0.69714,1.30372 0,0.50087 -0.23486,0.94008 -0.69714,1.30371 -0.38343,0.3016 -0.92462,0.54837 -1.20265,0.54837 -0.27803,0 -0.79776,-0.29225 -1.15495,-0.64943 z m 7.56626,0.18449 c -0.43503,-0.35227 -0.63097,-0.78303 -0.63097,-1.38714 0,-0.59258 0.19506,-1.03416 0.60258,-1.36415 0.38105,-0.30856 1.0295,-0.48794 1.76389,-0.48794 h 1.16131 v -1.85208 -1.85208 h -1.85208 -1.85209 v 1.20265 c 0,0.93638 -0.14939,1.35205 -0.67477,1.87742 -0.52508,0.52508 -0.83323,0.63594 -1.38906,0.49973 -0.39286,-0.0963 -0.87974,-0.33691 -1.08196,-0.53475 -0.20222,-0.19784 -0.4244,-0.95009 -0.49373,-1.67167 l -0.12607,-1.31196 -1.31196,-0.12606 c -0.72502,-0.0697 -1.51026,-0.32418 -1.75522,-0.5689 -0.3347,-0.33436 -0.46518,-1.04029 -0.53273,-2.88204 -0.0798,-2.17679 -0.028,-2.51739 0.48223,-3.16598 0.48531,-0.61697 0.76866,-0.72678 1.87539,-0.72678 h 1.30372 v -1.98437 -1.98438 h -1.27235 c -0.69979,0 -1.49219,-0.16075 -1.76088,-0.35722 -0.34179,-0.24993 -0.52577,-0.80624 -0.6125,-1.85208 l -0.12397,-1.49486 h -1.17525 c -0.64639,0 -1.39186,-0.11593 -1.65659,-0.25761 -0.26474,-0.14168 -0.55476,-0.55014 -0.6445,-0.90768 -0.0897,-0.35754 -0.053,-0.93975 0.0816,-1.29381 0.13461,-0.35405 0.46222,-0.7288 0.72804,-0.83278 0.2658,-0.10397 1.82274,-0.18245 3.45985,-0.17441 l 2.97656,0.0146 v -1.97833 -1.97834 h -1.20265 c -0.93627,0 -1.35206,-0.14941 -1.87718,-0.67452 l -0.67453,-0.67453 0.0912,-2.49146 c 0.0648,-1.76937 0.20627,-2.60404 0.48812,-2.87993 0.21828,-0.21367 0.7183,-0.46726 1.11116,-0.56353 0.55583,-0.13621 0.86399,-0.0254 1.38907,0.49973 0.52537,0.52537 0.67477,0.94105 0.67477,1.87742 v 1.20265 h 3.70416 3.70417 v -3.70416 -3.70417 h -1.85208 -1.85209 v 1.27235 c 0,0.69979 -0.14882,1.47209 -0.33072,1.71623 -0.18191,0.24413 -0.69237,0.51483 -1.13437,0.60155 -0.57136,0.11211 -0.9827,0.0127 -1.42316,-0.34398 -0.46011,-0.37257 -0.65346,-0.85477 -0.75138,-1.87391 l -0.13186,-1.37225 h -1.81842 -1.81842 v 1.20265 c 0,0.92412 -0.15041,1.35307 -0.64943,1.85209 -0.35719,0.35718 -0.89838,0.64943 -1.20265,0.64943 -0.30427,0 -0.84546,-0.29225 -1.20265,-0.64943 l -0.64944,-0.64943 v -2.40531 -2.4053 l 0.64944,-0.64943 0.64943,-0.64943 h 3.05473 3.05474 v -5.55625 -5.55625 h -3.70417 -3.70417 v 1.83825 1.83826 l 1.36228,0.08 c 1.12878,0.0663 1.45501,0.20459 1.90334,0.80705 0.43354,0.58256 0.49057,0.87067 0.28698,1.44958 -0.13975,0.39738 -0.54977,0.87212 -0.91116,1.05497 -0.40295,0.20388 -1.74404,0.33396 -3.46767,0.33635 l -2.81061,0.004 -0.12901,1.34267 c -0.071,0.73847 -0.29446,1.50454 -0.49668,1.70238 -0.20222,0.19784 -0.6891,0.43848 -1.08196,0.53475 -0.55583,0.13622 -0.86399,0.0254 -1.38907,-0.49972 -0.52537,-0.52538 -0.67477,-0.94105 -0.67477,-1.87743 v -1.20265 h -3.70417 -3.70416 v 0.80225 c 0,0.44123 -0.16578,1.19902 -0.3684,1.68396 -0.24019,0.57485 -0.61042,0.94246 -1.06377,1.05624 -0.38244,0.096 -0.96081,0.0348 -1.28524,-0.13607 -0.32443,-0.17083 -0.67736,-0.4416 -0.78427,-0.60172 -0.10691,-0.16012 -0.19621,-0.85667 -0.19844,-1.54789 l -0.004,-1.25677 h -1.98437 -1.98438 v 1.27235 c 0,0.69979 -0.16464,1.49751 -0.36587,1.77271 -0.24578,0.33611 -0.6902,0.50036 -1.35392,0.50036 -0.66372,0 -1.10814,-0.16425 -1.35392,-0.50036 -0.20123,-0.2752 -0.36587,-1.07292 -0.36587,-1.77271 v -1.27235 h -1.98438 -1.98437 v 1.81932 1.81932 l 1.49486,0.12397 c 1.04584,0.0867 1.60216,0.2707 1.85208,0.6125 0.19648,0.26869 0.35723,0.8002 0.35723,1.18114 0,0.38094 -0.16884,0.92373 -0.37519,1.2062 -0.31857,0.4361 -0.76895,0.52704 -2.985,0.60273 -2.25305,0.0769 -2.69471,0.0204 -3.23079,-0.4137 -0.45809,-0.37093 -0.65479,-0.85473 -0.74988,-1.84436 l -0.1289,-1.34153 -1.31196,-0.12606 c -0.72158,-0.0693 -1.50151,-0.31561 -1.73318,-0.54728 -0.23167,-0.23167 -0.42121,-0.80263 -0.42121,-1.2688 0,-0.56278 0.20247,-1.01153 0.60257,-1.33551 0.37495,-0.30362 1.02856,-0.48794 1.73022,-0.48794 h 1.12766 l 0.13185,-1.37224 c 0.0959,-0.99802 0.29346,-1.50311 0.72444,-1.85209 l 0.59257,-0.47984 h 12.40611 12.4061 v -1.32291 c 0,-0.97014 0.14111,-1.46403 0.52917,-1.85209 0.38928,-0.38928 0.88194,-0.52916 1.86367,-0.52916 h 1.33451 l -0.0777,-1.91823 -0.0777,-1.91823 -1.41774,-0.14234 c -0.97097,-0.0975 -1.53377,-0.30102 -1.78594,-0.64588 -0.20251,-0.27695 -0.3682,-0.77845 -0.3682,-1.11443 0,-0.33599 0.23813,-0.84902 0.52917,-1.14006 0.45724,-0.45724 0.88194,-0.52917 3.12443,-0.52917 1.76126,0 2.75225,0.1148 3.0838,0.35723 0.34179,0.24992 0.52577,0.80624 0.6125,1.85208 l 0.12396,1.49486 h 3.6714 3.67141 v -1.07573 c 0,-0.59165 0.13689,-1.33579 0.30419,-1.65364 0.16731,-0.31786 0.4352,-0.6654 0.59531,-0.77231 0.16012,-0.10691 0.85667,-0.19621 1.54789,-0.19844 l 1.25677,-0.004 v -1.97054 -1.97055 l -1.36227,-0.08 c -1.12039,-0.0658 -1.45618,-0.20617 -1.89116,-0.79072 -0.46177,-0.62055 -0.48718,-0.81145 -0.20024,-1.50418 0.20449,-0.49368 0.634,-0.89988 1.13689,-1.07519 0.44454,-0.15496 1.14767,-0.28175 1.56252,-0.28175 0.68367,0 0.75426,-0.0855 0.75426,-0.9136 0,-0.50247 0.1322,-1.20372 0.29376,-1.55832 0.16157,-0.3546 0.58389,-0.77692 0.93849,-0.93849 0.35461,-0.16157 1.94882,-0.29376 3.5427,-0.29376 h 2.89797 l 0.004,-1.25677 c 0.002,-0.69122 0.0915,-1.38777 0.19844,-1.54789 0.10691,-0.16012 0.45445,-0.42801 0.7723,-0.59532 0.31786,-0.1673 1.48654,-0.30419 2.59709,-0.30419 1.11054,0 2.27922,0.13689 2.59708,0.30419 0.31785,0.16731 0.66539,0.4352 0.7723,0.59532 0.10692,0.16012 0.19621,0.85667 0.19844,1.54789 l 0.004,1.25677 h 1.04589 c 0.57523,0 1.34321,0.13547 1.70662,0.30105 0.3634,0.16558 0.76937,0.61268 0.90214,0.99356 0.13278,0.38088 0.14705,0.9476 0.0317,1.25937 -0.11533,0.31178 -0.36687,0.66623 -0.55896,0.78767 -0.1921,0.12144 -0.94459,0.28245 -1.67219,0.3578 l -1.32292,0.13701 -0.0798,1.38361 c -0.0614,1.06396 -0.21249,1.47656 -0.65419,1.78594 -0.31592,0.22128 -0.8228,0.40232 -1.12641,0.40232 -0.30361,0 -0.77861,-0.16569 -1.05556,-0.3682 -0.34486,-0.25217 -0.5484,-0.81497 -0.64588,-1.78593 l -0.14234,-1.41774 h -1.85209 -1.85208 v 1.85208 1.85208 l 1.35965,0.079 c 0.90522,0.0526 1.50613,0.24083 1.79796,0.56329 0.3449,0.38111 0.43832,1.03371 0.43832,3.06192 0,2.05493 -0.0912,2.67839 -0.44991,3.07473 -0.26114,0.28855 -0.80405,0.49715 -1.29394,0.49715 -0.46914,0 -1.03091,-0.20651 -1.26479,-0.46494 -0.23235,-0.25675 -0.45804,-1.05645 -0.50402,-1.78594 l -0.0833,-1.321 h -1.85208 -1.85209 v 1.85209 1.85208 l 1.38257,0.13902 c 0.76041,0.0765 1.53129,0.28775 1.71306,0.46952 0.18177,0.18177 0.39305,0.95265 0.46951,1.71306 l 0.13903,1.38256 1.41774,0.14235 c 0.97097,0.0975 1.53377,0.30101 1.78593,0.64588 0.20251,0.27695 0.36638,0.8082 0.36415,1.18057 -0.002,0.37237 -0.094,0.81842 -0.20382,0.99122 -0.10987,0.17279 -0.53252,0.44068 -0.93921,0.59531 -0.41935,0.15943 -2.73637,0.28113 -5.35243,0.28113 h -4.61299 v 3.70417 3.70417 h 7.54063 7.54062 v -1.85209 -1.85208 h -1.07572 c -0.59165,0 -1.33579,-0.13689 -1.65365,-0.30419 -0.31785,-0.16731 -0.66539,-0.4352 -0.7723,-0.59531 -0.10692,-0.16012 -0.19621,-0.61855 -0.19844,-1.01873 -0.002,-0.40018 0.23407,-0.96573 0.52511,-1.25677 0.45403,-0.45402 0.88195,-0.52917 3.0134,-0.52917 2.00489,0 2.59857,0.0926 3.07681,0.47984 0.43097,0.34898 0.62853,0.85407 0.72443,1.85209 l 0.13186,1.37224 h 1.12765 c 0.70166,0 1.35528,0.18432 1.73022,0.48794 0.4001,0.32398 0.60258,0.77273 0.60258,1.33551 0,0.46617 -0.18955,1.03713 -0.42122,1.2688 -0.23167,0.23167 -1.02542,0.47927 -1.76389,0.55023 l -1.34267,0.12901 v 5.52259 5.52259 h 1.85208 1.85209 v -1.20265 c 0,-0.93627 0.1494,-1.35206 0.67452,-1.87718 l 0.67453,-0.67453 2.49146,0.0912 c 1.95316,0.0715 2.59344,0.19316 2.96349,0.56297 0.40269,0.40242 0.48464,1.05881 0.5578,4.46788 0.0472,2.19789 0.0172,4.26924 -0.0665,4.603 -0.0838,0.33377 -0.33923,0.79377 -0.56768,1.02222 -0.26508,0.26508 -0.88723,0.41538 -1.7194,0.41538 h -1.30402 v 1.07573 c 0,0.59165 -0.13688,1.33579 -0.30419,1.65364 -0.1673,0.31786 -0.4352,0.6654 -0.59531,0.77231 -0.16012,0.10691 -0.59579,0.19621 -0.96816,0.19844 -0.37236,0.002 -0.90815,-0.16456 -1.19062,-0.37064 -0.44618,-0.3255 -0.53096,-0.80302 -0.64588,-3.63802 l -0.13229,-3.26333 -1.75119,-0.0774 -1.75119,-0.0774 -0.1301,1.35397 c -0.0722,0.75101 -0.32433,1.54819 -0.56624,1.79011 -0.24235,0.24234 -1.05232,0.49808 -1.82288,0.57555 l -1.38674,0.13942 v 1.85208 1.85209 l 1.35965,0.0789 c 0.93681,0.0544 1.50421,0.2387 1.82452,0.59263 0.25785,0.28492 0.52159,1.10401 0.59224,1.83928 l 0.12738,1.3256 h 1.24824 c 0.86093,0 1.37164,0.14367 1.64591,0.46302 0.21872,0.25466 0.4721,0.67279 0.56308,0.92917 0.091,0.25639 0.0331,0.75648 -0.12855,1.11131 -0.16167,0.35484 -0.65249,0.77015 -1.09071,0.92291 -0.43822,0.15276 -1.13619,0.27775 -1.55103,0.27775 -0.65292,0 -0.75427,0.10136 -0.75427,0.75427 0,0.41485 -0.12499,1.11281 -0.27775,1.55103 -0.15277,0.43822 -0.56807,0.92904 -0.92291,1.09072 -0.35483,0.16167 -0.85492,0.21951 -1.11131,0.12854 -0.25638,-0.091 -0.67451,-0.34435 -0.92918,-0.56307 -0.32254,-0.27702 -0.46302,-0.78659 -0.46302,-1.67958 v -1.28191 h -1.99646 -1.99646 l 0.0782,1.78594 0.0782,1.78594 1.41773,0.14234 c 0.97097,0.0975 1.53377,0.30102 1.78594,0.64588 0.20251,0.27695 0.3755,1.04633 0.38441,1.70974 0.009,0.66341 0.0102,2.567 0.003,4.2302 -0.007,1.6632 -0.0844,3.2476 -0.17114,3.52089 -0.0867,0.27329 -0.45344,0.60932 -0.81489,0.74675 -0.36145,0.13742 -0.94971,0.17643 -1.30725,0.0867 -0.35754,-0.0897 -0.766,-0.37976 -0.90768,-0.6445 -0.14169,-0.26474 -0.25761,-1.85838 -0.25761,-3.54144 v -3.0601 h -1.98438 -1.98437 v 3.12443 c 0,2.27913 -0.10151,3.26338 -0.37518,3.63802 -0.31858,0.4361 -0.76896,0.52704 -2.98501,0.60272 -2.26649,0.0774 -2.69283,0.0219 -3.24079,-0.42178 z m 6.8115,-12.56579 0.0782,-1.78594 h -1.99647 -1.99646 v 1.6757 c 0,0.92163 0.0842,1.75994 0.18723,1.86292 0.10297,0.10297 0.96617,0.15258 1.91822,0.11024 l 1.73101,-0.077 z m 3.62594,-11.17865 v -5.55624 h -5.55625 -5.55625 l -0.0719,5.2842 c -0.0396,2.90631 -0.0147,5.43344 0.0553,5.61584 0.0974,0.25377 1.41879,0.31765 5.62818,0.27205 l 5.50093,-0.0596 z m -6.87124,1.1994 c -0.25902,-0.28622 -0.47095,-0.82595 -0.47095,-1.1994 0,-0.37344 0.21193,-0.91317 0.47095,-1.19939 0.28082,-0.3103 0.81172,-0.5204 1.31499,-0.5204 0.48166,0 1.03202,0.20774 1.2819,0.48386 0.24084,0.26612 0.43789,0.85468 0.43789,1.30791 0,0.55162 -0.19441,0.96023 -0.58804,1.23594 -0.32342,0.22653 -0.90028,0.41188 -1.28191,0.41188 -0.38163,0 -0.9058,-0.23418 -1.16483,-0.5204 z m 10.70769,-14.30786 v -3.71576 l -1.91823,0.0777 -1.91822,0.0777 -0.0736,3.63803 -0.0736,3.63802 h 1.99184 1.99184 z m 4.40131,36.76947 c -0.45153,-0.35517 -0.69714,-0.805 -0.69714,-1.2768 0,-0.41931 0.25986,-0.97255 0.61237,-1.30371 0.3368,-0.31641 0.85939,-0.57529 1.16131,-0.57529 0.30192,0 0.8201,0.21958 1.15152,0.48794 0.40752,0.32999 0.60258,0.77157 0.60258,1.36415 0,0.59257 -0.19506,1.03416 -0.60258,1.36414 -0.33142,0.26837 -0.81145,0.48794 -1.06675,0.48794 -0.25529,0 -0.77788,-0.24677 -1.16131,-0.54837 z m -44.69557,-3.68921 -0.71615,-0.56333 v -3.13363 -3.13364 l -3.16838,-0.0883 c -2.78838,-0.0777 -3.23431,-0.15432 -3.71809,-0.63874 l -0.54971,-0.55045 v -4.45536 c 0,-4.00431 0.0502,-4.50562 0.49632,-4.95169 0.41763,-0.41764 0.90612,-0.49632 3.08118,-0.49632 1.6907,0 2.72389,0.11539 2.98678,0.33357 0.22106,0.18346 0.49131,0.57521 0.60057,0.87055 0.10925,0.29534 0.084,0.86574 -0.056,1.26755 -0.14269,0.40933 -0.50482,0.78611 -0.82355,0.85689 -0.31288,0.0695 -1.04512,0.15806 -1.62721,0.19684 l -1.05833,0.0705 v 1.85208 1.85208 h 1.85208 1.85209 l 0.13902,-1.38257 c 0.0765,-0.76041 0.28775,-1.53128 0.46952,-1.71305 0.18177,-0.18177 0.95265,-0.39306 1.71306,-0.46952 l 1.38256,-0.13903 0.13229,-3.20193 c 0.0891,-2.15659 0.25085,-3.3443 0.49542,-3.63802 0.19972,-0.23985 0.7355,-0.43426 1.19063,-0.43204 0.45512,0.002 0.9585,0.0915 1.11862,0.19844 0.16011,0.10691 0.428,0.45445 0.59531,0.77231 0.1673,0.31785 0.30419,1.06199 0.30419,1.65364 v 1.07573 h 1.27235 c 0.69979,0 1.49751,0.16464 1.77271,0.36587 0.33611,0.24578 0.50036,0.6902 0.50036,1.35392 0,0.66372 -0.16425,1.10815 -0.50036,1.35392 -0.2752,0.20123 -1.07292,0.36587 -1.77271,0.36587 h -1.27235 v 1.97055 1.97055 l 1.36227,0.08 c 1.11476,0.0654 1.45694,0.2072 1.88328,0.78016 0.41584,0.55886 0.47043,0.85258 0.27048,1.45521 -0.13779,0.41526 -0.53878,0.9021 -0.89109,1.08185 -0.38813,0.19803 -1.75272,0.32837 -3.46268,0.33073 l -2.82211,0.004 -0.0883,3.16628 c -0.0663,2.37596 -0.18737,3.26317 -0.48518,3.55446 -0.21828,0.2135 -0.69969,0.46228 -1.06979,0.55285 -0.47025,0.11507 -0.88858,-0.005 -1.38906,-0.39867 z m 7.34161,-0.11602 c -0.35718,-0.35719 -0.64943,-0.93174 -0.64943,-1.27679 0,-0.34506 0.27557,-0.88625 0.61237,-1.20266 0.3368,-0.3164 0.87799,-0.57528 1.20265,-0.57528 0.32466,0 0.88253,0.29224 1.23972,0.64943 0.35718,0.35719 0.64943,0.89838 0.64943,1.20265 0,0.30427 -0.29225,0.84546 -0.64943,1.20265 -0.35719,0.35719 -0.89838,0.64943 -1.20266,0.64943 -0.30427,0 -0.84546,-0.29224 -1.20265,-0.64943 z m 41.03576,0.0254 c -0.52538,-0.52538 -0.67477,-0.94105 -0.67477,-1.87743 v -1.20265 h -1.20265 c -0.92412,0 -1.35307,-0.15041 -1.85209,-0.64944 -0.35718,-0.35718 -0.64943,-0.9525 -0.64943,-1.32291 0,-0.37042 0.23813,-0.91161 0.52917,-1.20265 0.45525,-0.45525 0.88194,-0.52917 3.05473,-0.52917 h 2.52557 l 0.67453,0.67453 0.67452,0.67452 -0.0912,2.49146 c -0.0648,1.76937 -0.20626,2.60404 -0.48811,2.87994 -0.21828,0.21366 -0.71831,0.46725 -1.11117,0.56352 -0.55582,0.13621 -0.86398,0.0254 -1.38906,-0.49973 z m -33.08623,-10.79394 c -0.29104,-0.15919 -0.678,-0.47598 -0.8599,-0.70398 -0.1819,-0.22801 -0.33073,-0.6687 -0.33073,-0.97932 0,-0.31062 0.27557,-0.82365 0.61237,-1.14006 0.3368,-0.3164 0.92748,-0.57528 1.31261,-0.57528 0.38513,0 0.94301,0.26057 1.23972,0.57905 0.29671,0.31848 0.53947,0.785 0.53947,1.0367 0,0.2517 -0.074,0.65037 -0.16435,0.88593 -0.0904,0.23557 -0.5012,0.6025 -0.91291,0.8154 -0.4117,0.21289 -0.78422,0.38346 -0.82783,0.37904 -0.0436,-0.004 -0.31741,-0.13829 -0.60845,-0.29748 z m -15.47812,-11.60073 c -0.45525,-0.45525 -0.52917,-0.88194 -0.52917,-3.05473 v -2.52557 l 0.64943,-0.64943 c 0.49902,-0.49902 0.92797,-0.64943 1.85208,-0.64943 h 1.20265 v -1.85209 -1.85208 h -1.81522 -1.81523 l -0.16203,1.38906 c -0.11228,0.96265 -0.33565,1.5312 -0.72762,1.85209 -0.31108,0.25466 -0.85007,0.46302 -1.19775,0.46302 -0.34768,0 -0.87027,-0.23813 -1.16131,-0.52917 -0.45747,-0.45747 -0.52862,-0.87869 -0.52512,-3.10885 0.002,-1.41883 0.0915,-2.71069 0.19844,-2.87081 0.10691,-0.16012 0.45445,-0.42801 0.77231,-0.59532 0.31785,-0.1673 1.06199,-0.30419 1.65364,-0.30419 h 1.07573 v -1.27234 c 0,-0.69979 0.16883,-1.50347 0.37518,-1.78594 0.31858,-0.4361 0.76895,-0.52704 2.98501,-0.60273 2.25304,-0.077 2.69471,-0.0204 3.23079,0.4137 0.46166,0.37383 0.65479,0.85486 0.75282,1.87507 l 0.13186,1.37224 h 1.12765 c 0.68911,0 1.34045,0.18007 1.67484,0.46302 0.30096,0.25467 0.62321,0.78445 0.71612,1.17732 0.13048,0.55177 0.0154,0.8678 -0.50586,1.38906 -0.52538,0.52537 -0.94105,0.67477 -1.87743,0.67477 h -1.20265 v 3.05473 3.05474 l -0.64943,0.64943 c -0.49353,0.49354 -0.93005,0.64943 -1.81842,0.64943 h -1.16899 l -0.12737,1.3256 c -0.0721,0.75027 -0.33417,1.5541 -0.60384,1.85208 -0.26296,0.29058 -0.81376,0.52649 -1.22921,0.52649 -0.414,0 -0.99086,-0.23812 -1.2819,-0.52917 z m 7.43257,-0.0349 c -0.30437,-0.32671 -0.55341,-0.81751 -0.55341,-1.09068 0,-0.27317 0.1263,-0.73267 0.28067,-1.02111 0.15437,-0.28844 0.57778,-0.6374 0.94091,-0.77546 0.47831,-0.18186 0.87381,-0.14059 1.43529,0.14977 0.42916,0.22193 0.85118,0.70411 0.94564,1.08047 0.11765,0.46876 0.008,0.89831 -0.35306,1.38425 -0.32745,0.44059 -0.82693,0.73495 -1.33314,0.78567 -0.56987,0.0571 -0.97331,-0.0947 -1.3629,-0.51291 z m -59.42873,-3.50827 c -0.34486,-0.25217 -0.54839,-0.81497 -0.64588,-1.78593 -0.0783,-0.77976 -0.0828,-3.76365 -0.0101,-6.63086 0.0908,-3.57971 0.233,-5.31357 0.45371,-5.53371 0.17678,-0.17633 0.98045,-0.37524 1.78594,-0.44204 l 1.46452,-0.12145 v -1.29015 c 0,-0.93738 0.14469,-1.43485 0.52917,-1.81932 0.29104,-0.29105 0.81363,-0.52917 1.16131,-0.52917 0.34768,0 0.88667,0.20836 1.19775,0.46302 0.39197,0.32088 0.61534,0.88944 0.72762,1.85208 l 0.16202,1.38907 h 4.86997 4.86996 l 0.64943,0.64943 c 0.35719,0.35719 0.64944,0.89838 0.64944,1.20265 0,0.30427 -0.29225,0.84546 -0.64944,1.20265 l -0.64943,0.64943 h -3.05473 -3.05474 v 1.85209 1.85208 h 3.70417 3.70417 v -1.20265 c 0,-0.92411 0.15041,-1.35306 0.64943,-1.85208 l 0.64943,-0.64944 h 4.25739 4.25738 l 0.64943,0.64944 c 0.35719,0.35718 0.64944,0.89838 0.64944,1.20265 0,0.30427 -0.29225,0.84546 -0.64944,1.20265 l -0.64943,0.64943 h -3.05473 -3.05474 v 1.85208 1.85209 h 0.90882 c 0.49985,0 1.20698,0.11336 1.57141,0.25191 0.36443,0.13856 0.79902,0.50684 0.96577,0.8184 0.16674,0.31156 0.23333,0.84471 0.14798,1.18479 -0.0854,0.34007 -0.34211,0.80523 -0.57057,1.03369 -0.35953,0.35954 -1.5154,0.41537 -8.59856,0.41537 h -8.18318 l -0.52917,-0.52916 -0.52916,-0.52917 v -5.03867 -5.03868 l -1.91823,0.0777 -1.91823,0.0777 -0.053,3.70417 c -0.0291,2.03729 -0.0589,4.26972 -0.0661,4.96094 -0.009,0.89138 -0.16702,1.41062 -0.54234,1.78594 -0.29104,0.29104 -0.80407,0.52916 -1.14006,0.52916 -0.33598,0 -0.83748,-0.16569 -1.11443,-0.3682 z m 44.64669,-0.0437 c -0.40989,-0.28711 -0.58803,-0.68206 -0.58803,-1.30372 0,-0.64832 0.19034,-1.04156 0.69714,-1.4402 0.38342,-0.30161 0.84361,-0.54837 1.02265,-0.54837 0.17903,0 0.63922,0.24676 1.02265,0.54837 0.50679,0.39864 0.69714,0.79188 0.69714,1.4402 0,0.62166 -0.17814,1.01661 -0.58804,1.30372 -0.32342,0.22653 -0.83271,0.41187 -1.13175,0.41187 -0.29905,0 -0.80834,-0.18534 -1.13176,-0.41187 z m 18.50808,-0.20049 c -0.3164,-0.3368 -0.57528,-0.85939 -0.57528,-1.16132 0,-0.30192 0.21957,-0.8201 0.48793,-1.15152 0.32999,-0.40751 0.77158,-0.60257 1.36415,-0.60257 0.59258,0 1.03416,0.19506 1.36415,0.60257 0.26836,0.33142 0.48793,0.81146 0.48793,1.06675 0,0.2553 -0.24676,0.77789 -0.54837,1.16131 -0.35517,0.45153 -0.805,0.69714 -1.27679,0.69714 -0.41932,0 -0.97255,-0.25985 -1.30372,-0.61236 z m -22.27111,-7.32514 c -0.29399,-0.29398 -0.52917,-0.88194 -0.52917,-1.32291 0,-0.44098 0.23518,-1.02894 0.52917,-1.32292 0.29104,-0.29104 0.71558,-0.52917 0.94343,-0.52917 0.22785,0 0.67433,0.13689 0.99219,0.30419 0.31785,0.16731 0.66539,0.4352 0.7723,0.59532 0.10692,0.16012 0.19621,0.61854 0.19844,1.01872 0.002,0.40018 -0.23407,0.96573 -0.52511,1.25677 -0.29105,0.29105 -0.82683,0.52917 -1.19063,0.52917 -0.3638,0 -0.89958,-0.23812 -1.19062,-0.52917 z m 59.65151,-3.82443 c -0.35719,-0.35719 -0.64943,-0.89838 -0.64943,-1.20265 0,-0.30427 0.29224,-0.84546 0.64943,-1.20265 0.49902,-0.49902 0.92797,-0.64943 1.85208,-0.64943 h 1.20265 v -1.85209 -1.85208 h -1.20265 c -0.92411,0 -1.35306,-0.15041 -1.85208,-0.64943 -0.35719,-0.35719 -0.64943,-0.9525 -0.64943,-1.32292 0,-0.37042 0.23812,-0.91161 0.52916,-1.20265 0.45525,-0.45525 0.88195,-0.52917 3.05474,-0.52917 h 2.52557 l 0.64943,0.64944 0.64943,0.64943 v 4.25738 4.25739 l -0.64943,0.64943 -0.64943,0.64943 h -2.40531 -2.4053 z m -82.02083,-3.70417 -0.64943,-0.64943 v -3.05473 -3.05474 h -8.2949 c -5.20872,0 -8.59701,-0.10531 -9.10691,-0.28307 -0.44661,-0.15569 -0.88736,-0.47941 -0.97945,-0.71939 -0.0921,-0.23997 -0.16743,-2.38824 -0.16743,-4.77393 0,-3.67418 0.0673,-4.41202 0.44022,-4.82406 0.29386,-0.32471 0.89225,-0.51268 1.79986,-0.56539 l 1.35965,-0.0789 0.0633,-6.61458 c 0.0348,-3.63802 0.12128,-6.86206 0.19209,-7.16454 0.0708,-0.30247 0.43488,-0.68942 0.80902,-0.85989 0.48656,-0.2217 3.9572,-0.30995 12.1892,-0.30995 h 11.50895 l 0.64943,0.64944 c 0.49354,0.49353 0.64944,0.93004 0.64944,1.81842 v 1.16898 l 1.37224,0.13186 c 0.99801,0.0959 1.5031,0.29346 1.85208,0.72443 0.38725,0.47824 0.47984,1.07192 0.47984,3.07681 0,2.13145 -0.0751,2.55937 -0.52916,3.0134 -0.29105,0.29104 -0.87772,0.52916 -1.30372,0.52916 -0.52162,0 -0.95361,-0.22765 -1.32291,-0.69714 -0.36456,-0.46345 -0.54837,-1.08429 -0.54837,-1.85208 v -1.15494 h -1.20265 c -0.92412,0 -1.35307,-0.15041 -1.85209,-0.64944 -0.49902,-0.49902 -0.64943,-0.92797 -0.64943,-1.85208 v -1.20265 h -9.26042 -9.26041 v 3.82761 3.8276 l 4.831,-0.007 c 2.65706,-0.004 5.04743,0.0757 5.31194,0.17723 0.26451,0.1015 0.59087,0.47372 0.72524,0.82715 0.13437,0.35344 0.24432,1.1111 0.24432,1.68371 v 1.04111 h 3.12443 c 2.08642,0 3.27189,0.10988 3.56831,0.33073 0.24413,0.1819 0.51241,0.68792 0.59616,1.12448 0.0958,0.49915 0.007,0.99015 -0.23883,1.32292 -0.34374,0.46507 -0.78641,0.54519 -3.65445,0.66146 l -3.26333,0.13229 -0.0777,1.91823 -0.0777,1.91823 h 3.13602 c 2.0957,0 3.28328,0.10971 3.57991,0.33073 0.24413,0.1819 0.51483,0.69236 0.60155,1.13436 0.11211,0.57136 0.0127,0.9827 -0.34398,1.42316 -0.37257,0.46011 -0.85477,0.65346 -1.8739,0.75138 l -1.37225,0.13186 v 1.81842 1.81842 h 1.20265 c 0.92412,0 1.35307,0.15041 1.85209,0.64943 0.35718,0.35719 0.64943,0.89838 0.64943,1.20265 0,0.30427 -0.29225,0.84547 -0.64943,1.20265 l -0.64943,0.64944 h -2.40531 -2.4053 z m -8.05103,-11.97792 c 0.0765,-0.76041 0.28774,-1.53129 0.46951,-1.71306 0.18177,-0.18177 0.95265,-0.39305 1.71306,-0.46952 l 1.38257,-0.13902 v -1.85208 -1.85209 l -1.78594,-0.0782 -1.78594,-0.0782 v 0.92091 c 0,0.5065 -0.12651,1.25366 -0.28113,1.66035 -0.15463,0.40669 -0.42252,0.82934 -0.59532,0.93921 -0.17279,0.10988 -0.87972,0.2016 -1.57094,0.20383 l -1.25677,0.004 v 1.99646 1.99646 l 1.78593,-0.0782 1.78594,-0.0782 z m 15.9517,8.65676 c -0.3179,-0.12809 -0.70486,-0.4699 -0.85989,-0.75958 -0.15503,-0.28969 -0.28188,-0.71854 -0.28188,-0.953 0,-0.23446 0.29224,-0.71854 0.64943,-1.07572 0.35719,-0.35719 0.93175,-0.64944 1.2768,-0.64944 0.34505,0 0.88624,0.27557 1.20265,0.61237 0.31641,0.3368 0.57529,0.87799 0.57529,1.20265 0,0.32466 -0.29225,0.88253 -0.64944,1.23972 -0.35718,0.35718 -0.80367,0.64188 -0.99218,0.63266 -0.18852,-0.009 -0.60287,-0.12157 -0.92078,-0.24966 z m 14.95442,-7.46401 c -0.38766,-0.12979 -0.78003,-0.43191 -0.87192,-0.67138 -0.0919,-0.23946 -0.16707,-1.55705 -0.16707,-2.92797 0,-1.97493 0.0934,-2.59584 0.4499,-2.98973 0.26114,-0.28855 0.80405,-0.49715 1.29394,-0.49715 0.48989,0 1.0328,0.2086 1.29394,0.49715 0.35868,0.39634 0.44991,1.0198 0.44991,3.07473 0,1.99831 -0.0957,2.68338 -0.42604,3.04835 -0.23432,0.25892 -0.62669,0.52279 -0.87192,0.58638 -0.24524,0.0636 -0.76307,0.009 -1.15074,-0.12038 z m 48.72672,0.1344 c -0.21828,-0.0803 -0.60523,-0.32744 -0.85989,-0.54928 -0.25466,-0.22185 -0.46302,-0.7421 -0.46302,-1.1561 0,-0.41401 0.23812,-0.99087 0.52916,-1.28191 0.37108,-0.37108 0.90465,-0.53619 1.78594,-0.55268 0.69123,-0.0129 1.85208,-0.003 2.57969,0.0229 0.7276,0.0255 1.48506,0.18079 1.68324,0.34505 0.19818,0.16426 0.44972,0.54029 0.55897,0.83563 0.10925,0.29534 0.0873,0.85639 -0.0488,1.24677 -0.15321,0.43948 -0.55743,0.81785 -1.06147,0.99356 -0.44772,0.15607 -1.59995,0.27437 -2.56049,0.26288 -0.96056,-0.0115 -1.92505,-0.0866 -2.14334,-0.16681 z m 10.94114,-0.0751 c -0.31253,-0.12609 -0.6676,-0.38644 -0.78904,-0.57854 -0.12144,-0.1921 -0.28245,-0.94458 -0.3578,-1.67219 l -0.137,-1.32291 -1.38362,-0.0798 c -1.06395,-0.0614 -1.47656,-0.21248 -1.78593,-0.65418 -0.22128,-0.31592 -0.40233,-0.82281 -0.40233,-1.12642 0,-0.30361 0.16569,-0.77861 0.3682,-1.05556 0.25217,-0.34486 0.81497,-0.54839 1.78594,-0.64588 l 1.41774,-0.14234 0.14234,-1.41774 c 0.0975,-0.97096 0.30102,-1.53376 0.64588,-1.78593 0.27695,-0.20251 0.80821,-0.36638 1.18057,-0.36415 0.37237,0.002 0.80804,0.0915 0.96816,0.19843 0.16011,0.10692 0.42801,0.45446 0.59531,0.77231 0.16731,0.31785 0.30419,1.062 0.30419,1.65365 v 1.07572 h 1.27235 c 0.69979,0 1.50056,0.16687 1.77948,0.37083 0.40388,0.29533 0.52783,0.78059 0.60877,2.38346 0.0559,1.10695 0.0219,2.4374 -0.0754,2.95655 -0.14056,0.74928 -0.36303,1.02161 -1.07886,1.32071 -0.49911,0.20854 -1.70308,0.3693 -2.69623,0.36001 -0.98694,-0.009 -2.05014,-0.11994 -2.36267,-0.24604 z m -75.03754,-0.3325 c -0.23813,-0.1819 -0.50574,-0.63354 -0.59469,-1.00363 -0.11242,-0.46775 0.01,-0.89127 0.40159,-1.38907 0.38316,-0.4871 0.81106,-0.71615 1.33788,-0.71615 0.426,0 1.01267,0.23813 1.30371,0.52917 0.29104,0.29104 0.52917,0.80033 0.52917,1.13175 0,0.33142 -0.18535,0.86721 -0.41188,1.19062 -0.28205,0.40269 -0.6831,0.58804 -1.27235,0.58804 -0.47326,0 -1.0553,-0.14882 -1.29343,-0.33073 z m 22.26245,-3.8062 c -0.19754,-0.23802 -0.42048,-1.04169 -0.49542,-1.78594 l -0.13625,-1.35317 -1.38674,-0.13942 c -0.76271,-0.0767 -1.57179,-0.32446 -1.79796,-0.55064 -0.31622,-0.31622 -0.41123,-1.01304 -0.41123,-3.01621 0,-2.23538 0.0736,-2.67863 0.51912,-3.12409 0.32763,-0.32763 1.01523,-0.56679 1.86411,-0.64835 l 1.34499,-0.12924 v -3.6705 -3.67051 h -1.32291 c -0.97014,0 -1.46403,-0.14111 -1.85209,-0.52916 -0.45724,-0.45724 -0.52916,-0.88195 -0.52916,-3.124433 0,-1.791555 0.1133,-2.750225 0.36587,-3.095635 0.24211,-0.33111 0.6896,-0.50036 1.32292,-0.50036 0.52637,0 1.10284,0.1458 1.28103,0.324 0.1782,0.1782 0.38656,0.94615 0.46302,1.70656 l 0.13903,1.382565 1.91823,0.0777 1.91823,0.0777 v -1.283945 c 0,-0.70616 0.14883,-1.48368 0.33073,-1.72782 0.1819,-0.24413 0.69236,-0.51483 1.13436,-0.60155 0.57136,-0.11211 0.9827,-0.0127 1.42316,0.34398 0.45653,0.36967 0.65344,0.85461 0.74843,1.84319 l 0.12891,1.341535 1.31196,0.12607 c 0.72158,0.0693 1.49829,0.312393 1.72602,0.540123 0.22773,0.22773 0.47079,1.00444 0.54012,1.72602 l 0.12606,1.31196 1.31196,0.12606 c 0.72158,0.0693 1.47383,0.29152 1.67167,0.49373 0.19784,0.20222 0.43848,0.6891 0.53476,1.08197 0.13621,0.55582 0.0253,0.86398 -0.49973,1.38906 -0.52538,0.52537 -0.94105,0.67477 -1.87743,0.67477 h -1.20265 v 1.20265 c 0,0.92411 -0.15041,1.35306 -0.64943,1.85208 l -0.64943,0.64944 h -3.05474 -3.05473 v 4.61298 c 0,2.61607 -0.1217,4.93308 -0.28114,5.35243 -0.15462,0.40669 -0.42251,0.82934 -0.59531,0.93921 -0.1728,0.10988 -0.68655,0.2016 -1.14168,0.20383 -0.45512,0.002 -0.98912,-0.1907 -1.18666,-0.42872 z m 18.68057,-3.63727 c -0.33111,-0.24212 -0.50037,-0.68961 -0.50037,-1.32292 0,-0.52637 0.14252,-1.09956 0.3167,-1.27374 0.17419,-0.17419 0.97191,-0.38882 1.77271,-0.47697 0.80081,-0.0881 2.12628,-0.0865 2.9455,0.004 1.01426,0.11164 1.60518,0.32216 1.85208,0.65983 0.19943,0.27273 0.3626,0.77077 0.3626,1.10676 0,0.33599 -0.23813,0.84901 -0.52917,1.14006 -0.45724,0.45723 -0.88194,0.52916 -3.12443,0.52916 -1.79155,0 -2.75022,-0.1133 -3.09562,-0.36587 z m 25.94651,-0.22217 c -0.22653,-0.32342 -0.41188,-0.90028 -0.41188,-1.28191 0,-0.38163 0.21774,-0.89092 0.48386,-1.13175 0.26612,-0.24084 0.84298,-0.43788 1.28191,-0.43788 0.45755,0 0.99899,0.22203 1.26901,0.5204 0.25902,0.28622 0.47095,0.82594 0.47095,1.19939 0,0.37344 -0.21193,0.91317 -0.47095,1.19939 -0.28642,0.31649 -0.81186,0.5204 -1.34099,0.5204 -0.59913,0 -0.99828,-0.1831 -1.28191,-0.58804 z m -74.30878,-3.44686 c -0.24414,-0.1819 -0.51484,-0.69236 -0.60156,-1.13436 -0.11387,-0.58035 -0.0111,-0.98467 0.36993,-1.45521 l 0.52762,-0.65157 h 2.69258 2.69259 l 0.52761,0.65157 c 0.38102,0.47054 0.4838,0.87486 0.36993,1.45521 -0.0867,0.442 -0.35742,0.95246 -0.60155,1.13436 -0.28304,0.2109 -1.36595,0.33073 -2.98858,0.33073 -1.62263,0 -2.70553,-0.11983 -2.98857,-0.33073 z m 44.64487,-0.0444 c -0.4361,-0.31858 -0.52704,-0.76895 -0.60273,-2.985 -0.0774,-2.2665 -0.0219,-2.69283 0.42179,-3.24079 0.35227,-0.43503 0.78303,-0.63097 1.38714,-0.63097 0.59258,0 1.03416,0.19506 1.36415,0.60258 0.38821,0.47941 0.48793,1.0598 0.48793,2.83961 0,1.23037 -0.13688,2.4971 -0.30419,2.81496 -0.1673,0.31785 -0.43519,0.66539 -0.59531,0.77231 -0.16012,0.10691 -0.59579,0.1962 -0.96815,0.19843 -0.37237,0.002 -0.90816,-0.16478 -1.19063,-0.37113 z m -22.28284,-3.74086 c -0.4099,-0.2871 -0.58804,-0.68205 -0.58804,-1.30371 0,-0.64833 0.19035,-1.04157 0.69714,-1.44021 0.38342,-0.3016 0.84362,-0.54837 1.02265,-0.54837 0.17903,0 0.63923,0.24677 1.02265,0.54837 0.46949,0.3693 0.69714,0.8013 0.69714,1.32292 0,0.426 -0.23812,1.01267 -0.52916,1.30371 -0.29105,0.29104 -0.80033,0.52917 -1.13176,0.52917 -0.33142,0 -0.8672,-0.18535 -1.19062,-0.41188 z m 63.29326,0.0367 c -0.43718,-0.31935 -0.52707,-0.77026 -0.60415,-3.03032 l -0.0906,-2.65515 0.69918,-0.69918 c 0.54794,-0.54794 0.85369,-0.66132 1.41347,-0.52413 0.39286,0.0963 0.89288,0.34986 1.11116,0.56352 0.2806,0.27466 0.42309,1.10316 0.48634,2.82768 0.0798,2.1768 0.028,2.5174 -0.48222,3.16599 -0.37466,0.47629 -0.82121,0.72678 -1.29567,0.72678 -0.39818,0 -0.95509,-0.16884 -1.23756,-0.37519 z m -70.7973,-3.83477 -0.62463,-0.50579 v -2.65976 c 0,-2.13517 0.0874,-2.74719 0.44327,-3.10303 0.24745,-0.24745 1.03258,-0.499893 1.77732,-0.571453 l 1.33405,-0.12818 0.0748,-10.522995 0.0748,-10.52299 0.49244,-0.54387 c 0.34974,-0.38627 0.88643,-0.56675 1.85208,-0.62282 l 1.35965,-0.079 0.0833,-1.321 c 0.046,-0.72948 0.27168,-1.52919 0.50403,-1.78593 0.23388,-0.25843 0.79565,-0.46494 1.26479,-0.46494 0.46914,0 1.03091,0.20651 1.26479,0.46494 0.23235,0.25674 0.45805,1.05645 0.50403,1.78593 l 0.0833,1.321 1.35965,0.079 c 0.90371,0.0525 1.50622,0.24092 1.79676,0.56196 0.36938,0.40815 0.44569,1.25704 0.49244,5.4773 l 0.0553,4.99429 1.38674,0.13941 c 0.80676,0.0811 1.5793,0.33199 1.84717,0.59985 0.33138,0.33138 0.48814,1.00917 0.55929,2.4182 0.0556,1.10047 -0.0405,2.38012 -0.21945,2.92229 -0.2052,0.62173 -0.55661,1.05512 -0.9888,1.21943 -0.36876,0.14021 -0.89216,0.18455 -1.16312,0.0985 -0.27096,-0.086 -0.67195,-0.33566 -0.8911,-0.5548 -0.24707,-0.24708 -0.39844,-0.89383 -0.39844,-1.70246 v -1.30402 h -1.04588 c -0.57524,0 -1.352,-0.13947 -1.72614,-0.30994 -0.37414,-0.17047 -0.74301,-0.56 -0.81972,-0.86562 -0.0767,-0.30562 -0.16314,-2.69622 -0.19209,-5.31245 l -0.0526,-4.75678 h -1.85208 -1.85208 l -0.13229,12.65533 -0.1323,12.655338 -0.51359,0.3754 c -0.35531,0.25971 -1.26359,0.3754 -2.94725,0.3754 -2.00194,0 -2.54446,-0.0897 -3.05828,-0.50579 z m 33.39353,-0.19135 c -0.3016,-0.38343 -0.54837,-0.92462 -0.54837,-1.20265 0,-0.27803 0.29225,-0.79776 0.64944,-1.15494 0.35719,-0.35719 0.89838,-0.64944 1.20265,-0.64944 0.30427,0 0.84546,0.29225 1.20265,0.64944 0.35719,0.35718 0.64943,0.93174 0.64943,1.27679 0,0.34505 -0.27556,0.88624 -0.61236,1.20265 -0.33681,0.31641 -0.92348,0.57529 -1.30372,0.57529 -0.43173,0 -0.89727,-0.26179 -1.23972,-0.69714 z m 7.64383,-3.49099 -0.65157,-0.52762 v -2.692583 -2.692595 l 0.62462,-0.50579 c 0.34355,-0.27818 0.83351,-0.50579 1.0888,-0.50579 0.2553,0 0.77789,0.24677 1.16131,0.54837 l 0.69714,0.54837 v 2.576065 c 0,1.647723 -0.11918,2.736023 -0.33072,3.019943 -0.18191,0.24413 -0.69237,0.51484 -1.13437,0.60156 -0.58035,0.11387 -0.98467,0.0111 -1.45521,-0.36993 z M 127.1363,99.531567 c -0.76744,-0.13646 -1.97448,-0.54158 -2.68231,-0.900265 -0.70782,-0.35868 -1.71607,-1.15348 -2.24055,-1.76621 -0.52448,-0.61274 -1.19829,-1.76806 -1.49736,-2.56738 l -0.54375,-1.45332 0.0786,-6.63747 0.0786,-6.63747 0.65821,-1.2888 c 0.36202,-0.70884 1.22876,-1.80177 1.92611,-2.42875 0.69951,-0.62892 1.88706,-1.35587 2.64908,-1.62161 1.18095,-0.41184 2.2634,-0.48167 7.4666,-0.48167 5.20321,0 6.28565,0.0698 7.46661,0.48167 0.76202,0.26574 1.94957,0.99269 2.64908,1.62161 0.69735,0.62698 1.542,1.68879 1.87702,2.3596 0.33502,0.67081 0.73406,2.02215 0.88676,3.00297 0.1604,1.0303 0.22347,3.90843 0.14936,6.81603 -0.0985,3.86432 -0.23486,5.32665 -0.58735,6.29887 -0.25249,0.69639 -1.03936,1.90108 -1.7486,2.6771 -0.81228,0.88876 -1.80558,1.636955 -2.68391,2.021615 l -1.39438,0.61066 -5.55625,0.0705 c -3.05594,0.0387 -6.18416,-0.0412 -6.9516,-0.17765 z m 12.4024,-4.162345 c 1.1416,-0.59638 1.5505,-1.00529 2.14688,-2.14688 l 0.73669,-1.41019 v -5.13766 c 0,-4.03868 -0.0876,-5.34731 -0.4095,-6.11774 -0.22523,-0.53904 -0.67171,-1.2653 -0.99219,-1.6139 -0.32047,-0.34861 -1.05893,-0.85363 -1.64102,-1.12228 -0.91434,-0.422 -1.76025,-0.48846 -6.2177,-0.48846 -4.46451,0 -5.30192,0.066 -6.21771,0.49 -0.58209,0.26949 -1.37944,0.83242 -1.7719,1.25096 -0.39247,0.41853 -0.89848,1.20363 -1.12448,1.74465 -0.32086,0.76811 -0.41059,2.04379 -0.40944,5.82084 8.2e-4,2.66043 0.12761,5.29136 0.28177,5.84651 0.15415,0.55515 0.74421,1.47329 1.31123,2.04031 0.56701,0.56702 1.42249,1.14386 1.90104,1.28187 0.47856,0.13802 3.14847,0.26167 5.93313,0.2748 l 5.06301,0.0239 z m -10.58105,-3.60129 c -0.34779,-0.19276 -0.79005,-0.63503 -0.98282,-0.98281 -0.24027,-0.43351 -0.35342,-1.74294 -0.35985,-4.16452 l -0.009,-3.53219 0.89958,-0.89958 0.89958,-0.89959 h 3.71028 3.71027 l 0.8141,0.81411 0.8141,0.8141 v 3.71027 3.71027 l -0.89958,0.89959 -0.89958,0.89958 -3.53219,-0.009 c -2.42159,-0.006 -3.73101,-0.11957 -4.16452,-0.35985 z m 21.62987,7.536945 -0.62462,-0.50522 -0.0839,-4.383875 -0.0839,-4.38388 0.66717,-0.66716 c 0.36694,-0.36694 0.97023,-0.66716 1.34065,-0.66716 0.37041,0 0.9116,0.23812 1.20265,0.52916 l 0.52916,0.52917 v 4.37765 4.37765 l -0.64943,0.649435 c -0.35719,0.35719 -0.87978,0.64944 -1.16131,0.64944 -0.28154,0 -0.79296,-0.22735 -1.13651,-0.50521 z m 29.79043,-0.14423 c -0.49902,-0.49902 -0.64943,-0.927975 -0.64943,-1.852085 v -1.20265 h -1.20265 c -0.92411,0 -1.35306,-0.15041 -1.85208,-0.64943 l -0.64944,-0.64943 v -3.02108 -3.02107 l -1.34267,-0.12901 c -0.75044,-0.0721 -1.53819,-0.3242 -1.78594,-0.57152 -0.37366,-0.37304 -0.46403,-1.24084 -0.57555,-5.52705 l -0.13229,-5.08454 -1.41774,-0.14233 c -0.97097,-0.0975 -1.53377,-0.30103 -1.78594,-0.64589 -0.20251,-0.27695 -0.3682,-0.76525 -0.3682,-1.08512 0,-0.31986 0.20836,-0.83847 0.46302,-1.15245 0.4158,-0.51265 0.7207,-0.57083 2.98973,-0.5705 1.38969,2e-4 2.71302,0.0719 2.94073,0.15924 0.2277,0.0874 0.5492,0.45558 0.71443,0.81823 0.18854,0.41378 0.30042,2.42846 0.30042,5.4094 v 4.75005 h 1.85209 1.85208 v -3.175 c 0,-2.82222 0.0588,-3.2338 0.52917,-3.70417 0.29104,-0.29104 0.8636,-0.52916 1.27234,-0.52916 0.40875,0 0.9743,0.16874 1.25678,0.37499 0.45219,0.33017 0.52407,0.77297 0.60131,3.70417 l 0.0877,3.32917 h 1.28244 c 0.78941,0 1.43562,0.15318 1.68088,0.39844 0.21915,0.21914 0.46881,0.62014 0.55481,0.8911 0.086,0.27096 0.0364,0.80817 -0.11022,1.1938 -0.14661,0.38563 -0.57412,0.81808 -0.95,0.96099 -0.37588,0.14291 -1.09239,0.25984 -1.59224,0.25984 h -0.90882 v 4.90681 4.90682 l -0.64943,0.649435 c -0.35719,0.35719 -0.89838,0.64944 -1.20266,0.64944 -0.30427,0 -0.84546,-0.29225 -1.20265,-0.64944 z m 7.40834,0 -0.64944,-0.649435 v -4.25738 -4.25739 l 0.64944,-0.64943 c 0.50016,-0.50017 0.92752,-0.64943 1.85934,-0.64943 h 1.20992 l -0.0734,-3.77032 -0.0734,-3.77031 -1.38257,-0.13902 c -0.76041,-0.0765 -1.52417,-0.28064 -1.69725,-0.45371 -0.17307,-0.17308 -0.36934,-0.97372 -0.43613,-1.77921 l -0.12145,-1.46452 h -1.23959 c -0.68177,0 -1.43933,-0.14882 -1.68346,-0.33073 -0.24413,-0.1819 -0.51241,-0.68791 -0.59616,-1.12448 -0.0944,-0.49201 -0.008,-0.98817 0.22673,-1.3052 0.26228,-0.35392 0.83779,-0.56194 1.86851,-0.6754 0.81922,-0.0902 2.1447,-0.0918 2.9455,-0.004 0.80081,0.0881 1.60145,0.3057 1.77921,0.48346 0.17776,0.17776 0.38576,0.94535 0.46222,1.70576 l 0.13902,1.38256 1.38257,0.13903 c 0.76041,0.0765 1.53129,0.28775 1.71306,0.46952 0.18177,0.18177 0.39305,0.95264 0.46951,1.71306 l 0.13903,1.38256 1.41774,0.14234 c 0.97097,0.0975 1.53377,0.30102 1.78593,0.64588 0.20251,0.27695 0.3682,0.76526 0.3682,1.08512 0,0.31987 -0.21592,0.84824 -0.47984,1.17416 -0.34898,0.43097 -0.85407,0.62853 -1.85208,0.72443 l -1.37224,0.13186 v 1.81842 1.81842 h 1.32291 c 0.97014,0 1.46403,0.14111 1.85209,0.52916 0.29104,0.29104 0.52916,0.83224 0.52916,1.20265 0,0.37042 -0.29224,0.96573 -0.64943,1.32292 l -0.64943,0.64943 h -3.05474 -3.05473 v 3.05474 3.05473 l -0.64943,0.649435 c -0.35719,0.35719 -0.89838,0.64944 -1.20265,0.64944 -0.30427,0 -0.84546,-0.29225 -1.20265,-0.64944 z m 21.44062,0.38848 c -0.72906,-0.10722 -1.91968,-0.49845 -2.64583,-0.86941 -0.72615,-0.370965 -1.70078,-1.072055 -2.16584,-1.557995 -0.46506,-0.48593 -1.17244,-1.59789 -1.57196,-2.47102 l -0.72639,-1.5875 -0.11471,-5.19181 c -0.0735,-3.32593 -0.002,-5.83723 0.19802,-6.9877 0.17201,-0.98774 0.49726,-2.15272 0.72279,-2.58885 0.22553,-0.43612 0.94585,-1.36576 1.60072,-2.06587 0.80197,-0.85737 1.67806,-1.4616 2.68368,-1.8509 1.2872,-0.49832 2.16772,-0.59434 6.3878,-0.69657 2.69213,-0.0652 5.76391,0.004 6.82617,0.15284 1.06225,0.14929 2.43147,0.52889 3.04271,0.84355 0.61123,0.31467 1.50891,0.94868 1.99485,1.40893 0.48593,0.46024 1.20031,1.43211 1.5875,2.15971 l 0.70398,1.32292 v 7.14375 7.14375 l -0.61841,1.19063 c -0.34012,0.65484 -0.99497,1.58771 -1.45521,2.07304 -0.46024,0.48532 -1.31305,1.16309 -1.89513,1.50614 -0.58209,0.343045 -1.83224,0.748735 -2.77813,0.901525 -0.94589,0.15279 -3.68432,0.26384 -6.08542,0.24679 -2.40109,-0.0171 -4.96213,-0.11873 -5.69119,-0.22595 z m 11.9089,-3.944825 c 0.58209,-0.2695 1.37944,-0.83243 1.7719,-1.25096 0.39247,-0.41854 0.89848,-1.20363 1.12448,-1.74466 0.32337,-0.77412 0.41091,-2.07272 0.41091,-6.0955 v -5.11181 l -0.59531,-1.177 c -0.34761,-0.68728 -1.07228,-1.50874 -1.74166,-1.9743 l -1.14635,-0.79729 -5.32227,-0.082 c -4.35338,-0.0671 -5.52115,-0.006 -6.41473,0.33517 -0.60085,0.22946 -1.4574,0.77401 -1.90345,1.21011 -0.44605,0.43609 -1.00239,1.19623 -1.23632,1.6892 -0.34703,0.7313 -0.42425,1.86306 -0.41951,6.14798 0.005,4.55633 0.0713,5.39587 0.50037,6.34073 0.272,0.59897 0.91649,1.41087 1.43219,1.80421 0.5157,0.39335 1.2728,0.81578 1.68244,0.93874 0.40965,0.12296 3.007,0.23118 5.7719,0.24049 4.35888,0.0147 5.16775,-0.0482 6.08541,-0.47306 z m -10.15733,-3.83637 c -0.34779,-0.19276 -0.79005,-0.63503 -0.98281,-0.98281 -0.24028,-0.43351 -0.35343,-1.74294 -0.35986,-4.16452 l -0.009,-3.53219 0.89958,-0.89958 0.89958,-0.89959 h 3.4536 c 2.11407,0 3.72267,0.1226 4.14734,0.3161 0.38156,0.17385 0.86341,0.64419 1.07078,1.04519 0.27024,0.52259 0.37703,1.71454 0.37703,4.20828 v 3.47918 l -0.89958,0.89959 -0.89958,0.89958 -3.53219,-0.009 c -2.42159,-0.006 -3.73101,-0.11957 -4.16452,-0.35985 z m -58.36975,-14.38567 c -0.58208,-0.0388 -1.30581,-0.12523 -1.60829,-0.19209 -0.30247,-0.0669 -0.69577,-0.44162 -0.874,-0.8328 -0.24716,-0.54244 -0.25218,-0.88477 -0.0211,-1.44254 0.1666,-0.40222 0.49445,-0.80481 0.72855,-0.89464 0.23409,-0.0898 1.56265,-0.1635 2.95233,-0.1637 2.26904,-3.5e-4 2.57393,0.0579 2.98973,0.5705 0.25466,0.31398 0.46302,0.83259 0.46302,1.15245 0,0.31987 -0.16316,0.80472 -0.36259,1.07746 -0.24469,0.33463 -0.8254,0.54465 -1.78594,0.64588 -0.78283,0.0825 -1.89959,0.11827 -2.48167,0.0795 z m 42.48483,-0.75891 c -0.30161,-0.38342 -0.54837,-0.84362 -0.54837,-1.02265 0,-0.17903 0.24676,-0.63922 0.54837,-1.02265 0.39864,-0.50679 0.79188,-0.69714 1.4402,-0.69714 0.62166,0 1.01661,0.17814 1.30372,0.58804 0.22653,0.32342 0.41187,0.8592 0.41187,1.19062 0,0.33143 -0.23812,0.84072 -0.52916,1.13176 -0.29104,0.29104 -0.87772,0.52916 -1.30372,0.52916 -0.52161,0 -0.95361,-0.22765 -1.32291,-0.69714 z"
       id="path424" /></g></svg>
