<?xml version="1.0" encoding="UTF-8" standalone="no"?>
<svg
   xmlns:dc="http://purl.org/dc/elements/1.1/"
   xmlns:cc="http://creativecommons.org/ns#"
   xmlns:rdf="http://www.w3.org/1999/02/22-rdf-syntax-ns#"
   xmlns:svg="http://www.w3.org/2000/svg"
   xmlns="http://www.w3.org/2000/svg"
   xmlns:sodipodi="http://sodipodi.sourceforge.net/DTD/sodipodi-0.dtd"
   xmlns:inkscape="http://www.inkscape.org/namespaces/inkscape"
   width="256px"
   height="256px"
   viewBox="0 0 256 256"
   version="1.1"
   preserveAspectRatio="xMidYMid"
   id="svg6"
   sodipodi:docname="ionic.svg"
   inkscape:version="0.92.5 (2060ec1f9f, 2020-04-08)">
  <metadata
     id="metadata12">
    <rdf:RDF>
      <cc:Work
         rdf:about="">
        <dc:format>image/svg+xml</dc:format>
        <dc:type
           rdf:resource="http://purl.org/dc/dcmitype/StillImage" />
      </cc:Work>
    </rdf:RDF>
  </metadata>
  <defs
     id="defs10" />
  <sodipodi:namedview
     pagecolor="#ffffff"
     bordercolor="#666666"
     borderopacity="1"
     objecttolerance="10"
     gridtolerance="10"
     guidetolerance="10"
     inkscape:pageopacity="0"
     inkscape:pageshadow="2"
     inkscape:window-width="1920"
     inkscape:window-height="1051"
     id="namedview8"
     showgrid="false"
     inkscape:zoom="0.921875"
     inkscape:cx="128"
     inkscape:cy="128"
     inkscape:window-x="0"
     inkscape:window-y="0"
     inkscape:window-maximized="1"
     inkscape:current-layer="svg6" />
  <g
     id="g4"
     style="fill:#49adff;fill-opacity:1">
    <path
       d="M234.651433,39.3216115 C234.651433,43.8242291 232.983104,47.9295567 230.245259,51.0819649 C246.406028,72.5125813 256,99.1554672 256,128.00072 C256,198.578673 198.580112,256.00144 128.00072,256.00144 C57.4213277,256.00144 0,198.578673 0,128.00072 C0,57.4213276 57.4198882,0 127.999281,0 C156.844533,0 183.487419,9.59397231 204.916597,25.756181 C208.071883,23.0183362 212.174332,21.3514465 216.678389,21.3514465 C226.601996,21.3514465 234.651433,29.3951251 234.651433,39.3216115 Z M127.999281,251.694589 C196.20501,251.694589 251.693149,196.20357 251.69027,127.997841 C251.69027,100.262409 242.515179,74.6357786 227.04247,53.9824679 C224.110299,56.0581632 220.541888,57.2888979 216.67551,57.2888979 C206.751903,57.2888979 198.705345,49.2452193 198.705345,39.3201722 C198.705345,35.4552336 199.936079,31.8825045 202.011775,28.9517728 C181.358464,13.4790633 155.731835,4.30397259 127.999281,4.30397259 C59.7949901,4.30397259 4.30397256,59.7949902 4.30397256,127.999281 C4.30397256,196.20357 59.7949901,251.694589 127.999281,251.694589 Z M128.00072,180.26016 C99.1378337,180.26016 75.7398413,156.862167 75.7398413,127.999281 C75.7398413,99.1363943 99.1378337,75.7384018 128.00072,75.7384018 C156.863607,75.7384018 180.261599,99.1363943 180.261599,127.999281 C180.261599,156.862167 156.863607,180.26016 128.00072,180.26016 Z"
       fill="#4E8EF7"
       id="path2"
       style="fill:#49adff;fill-opacity:1" />
  </g>
</svg>
