<?xml version="1.0" encoding="UTF-8" standalone="no"?>
<!-- Generator: Adobe Illustrator 16.0.0, SVG Export Plug-In . SVG Version: 6.00 Build 0)  -->

<svg
   xmlns:dc="http://purl.org/dc/elements/1.1/"
   xmlns:cc="http://creativecommons.org/ns#"
   xmlns:rdf="http://www.w3.org/1999/02/22-rdf-syntax-ns#"
   xmlns:svg="http://www.w3.org/2000/svg"
   xmlns="http://www.w3.org/2000/svg"
   xmlns:sodipodi="http://sodipodi.sourceforge.net/DTD/sodipodi-0.dtd"
   xmlns:inkscape="http://www.inkscape.org/namespaces/inkscape"
   version="1.1"
   id="Capa_1"
   x="0px"
   y="0px"
   width="552.77px"
   height="552.77px"
   viewBox="0 0 552.77 552.77"
   style="enable-background:new 0 0 552.77 552.77;"
   xml:space="preserve"
   sodipodi:docname="linkedin.svg"
   inkscape:version="0.92.5 (2060ec1f9f, 2020-04-08)"><metadata
   id="metadata47"><rdf:RDF><cc:Work
       rdf:about=""><dc:format>image/svg+xml</dc:format><dc:type
         rdf:resource="http://purl.org/dc/dcmitype/StillImage" /></cc:Work></rdf:RDF></metadata><defs
   id="defs45" /><sodipodi:namedview
   pagecolor="#ffffff"
   bordercolor="#666666"
   borderopacity="1"
   objecttolerance="10"
   gridtolerance="10"
   guidetolerance="10"
   inkscape:pageopacity="0"
   inkscape:pageshadow="2"
   inkscape:window-width="1920"
   inkscape:window-height="1051"
   id="namedview43"
   showgrid="false"
   inkscape:zoom="0.42694067"
   inkscape:cx="-144.04812"
   inkscape:cy="276.38501"
   inkscape:window-x="0"
   inkscape:window-y="0"
   inkscape:window-maximized="1"
   inkscape:current-layer="Capa_1" />
<g
   id="g10"
   style="fill:#aaaaaa;fill-opacity:1">
	<g
   id="g8"
   style="fill:#aaaaaa;fill-opacity:1">
		<path
   d="M17.95,528.854h71.861c9.914,0,17.95-8.037,17.95-17.951V196.8c0-9.915-8.036-17.95-17.95-17.95H17.95    C8.035,178.85,0,186.885,0,196.8v314.103C0,520.816,8.035,528.854,17.95,528.854z"
   id="path2"
   style="fill:#aaaaaa;fill-opacity:1" />
		<path
   d="M17.95,123.629h71.861c9.914,0,17.95-8.036,17.95-17.95V41.866c0-9.914-8.036-17.95-17.95-17.95H17.95    C8.035,23.916,0,31.952,0,41.866v63.813C0,115.593,8.035,123.629,17.95,123.629z"
   id="path4"
   style="fill:#aaaaaa;fill-opacity:1" />
		<path
   d="M525.732,215.282c-10.098-13.292-24.988-24.223-44.676-32.791c-19.688-8.562-41.42-12.846-65.197-12.846    c-48.268,0-89.168,18.421-122.699,55.27c-6.672,7.332-11.523,5.729-11.523-4.186V196.8c0-9.915-8.037-17.95-17.951-17.95h-64.192    c-9.915,0-17.95,8.035-17.95,17.95v314.103c0,9.914,8.036,17.951,17.95,17.951h71.861c9.915,0,17.95-8.037,17.95-17.951V401.666    c0-45.508,2.748-76.701,8.244-93.574c5.494-16.873,15.66-30.422,30.488-40.649c14.83-10.227,31.574-15.343,50.24-15.343    c14.572,0,27.037,3.58,37.393,10.741c10.355,7.16,17.834,17.19,22.436,30.104c4.604,12.912,6.904,41.354,6.904,85.33v132.627    c0,9.914,8.035,17.951,17.949,17.951h71.861c9.914,0,17.949-8.037,17.949-17.951V333.02c0-31.445-1.982-55.607-5.941-72.48    S535.836,228.581,525.732,215.282z"
   id="path6"
   style="fill:#aaaaaa;fill-opacity:1" />
	</g>
</g>
<g
   id="g12"
   style="fill:#aaaaaa;fill-opacity:1">
</g>
<g
   id="g14"
   style="fill:#aaaaaa;fill-opacity:1">
</g>
<g
   id="g16"
   style="fill:#aaaaaa;fill-opacity:1">
</g>
<g
   id="g18"
   style="fill:#aaaaaa;fill-opacity:1">
</g>
<g
   id="g20"
   style="fill:#aaaaaa;fill-opacity:1">
</g>
<g
   id="g22"
   style="fill:#aaaaaa;fill-opacity:1">
</g>
<g
   id="g24"
   style="fill:#aaaaaa;fill-opacity:1">
</g>
<g
   id="g26"
   style="fill:#aaaaaa;fill-opacity:1">
</g>
<g
   id="g28"
   style="fill:#aaaaaa;fill-opacity:1">
</g>
<g
   id="g30"
   style="fill:#aaaaaa;fill-opacity:1">
</g>
<g
   id="g32"
   style="fill:#aaaaaa;fill-opacity:1">
</g>
<g
   id="g34"
   style="fill:#aaaaaa;fill-opacity:1">
</g>
<g
   id="g36"
   style="fill:#aaaaaa;fill-opacity:1">
</g>
<g
   id="g38"
   style="fill:#aaaaaa;fill-opacity:1">
</g>
<g
   id="g40"
   style="fill:#aaaaaa;fill-opacity:1">
</g>
</svg>