<svg xmlns="http://www.w3.org/2000/svg" viewBox="0 0 56 56" width="56" height="56">
<g transform="matrix(0.1,0,0,0.1,-0,0)">
<path
d="m 526,215
c -10,-13 -25,-24 -45,-33 -20,-9 -41,-13 -65,-13 -48,0 -89,18 -123,55 -7,7 -12,6 -12,-4
V 197
c 0,-10 -8,-18 -18,-18
h -64
c -10,0 -18,8 -18,18
v 314.103
c 0,10 8,18 18,18
h 71.861
c 10,0 18,-8 18,-18
V 402
c 0,-46 3,-77 8,-94 5,-17 16,-30 30,-41 15,-10 32,-15 50,-15 14,0 27,3 37,11 10,7 18,17 22,30 5,13 7,41 7,85.33
v 133
c 0,10 8,18 18,18
h 72
c 10,0 18,-8 18,-18
V 333
c 0,-31 -2,-56 -6,-73 -4,-17 -11,-32 -21,-45 z"
style="fill:#000;"/></g>
<rect style="fill:#000" width="11" height="10" x="0" y="2.5" rx="2"/>
<rect style="fill:#000;" width="11" height="36" x="0" y="18" rx="2" />
</svg>
